{
.appVersion = "1230";
copyright = "Copyright 2019 Google LLC. All Rights Reserved.";
customParameters = (
{
name = vendorID;
value = GOOG;
},
{
name = panose;
value = (
2,
11,
8,
6,
3,
8,
4,
2,
2,
4
);
},
{
name = unicodeRanges;
value = (
13,
67
);
},
{
name = codePageRanges;
value = (
1252
);
},
{
name = fsType;
value = (
);
},
{
name = "Enforce Compatibility Check";
value = 1;
},
{
name = license;
value = "This Font Software is licensed under the SIL Open Font License, Version 1.1. This license is available with a FAQ at: http://scripts.sil.org/OFL";
},
{
name = licenseURL;
value = "http://scripts.sil.org/OFL";
},
{
name = description;
value = "Designed by Monotype Design Team and David Williams";
},
{
name = trademark;
value = "Noto is a trademark of Google Inc.";
},
{
name = versionString;
value = "Version 2.000";
}
);
date = "2019-09-08 03:14:21 +0000";
designer = "Monotype Design Team, David Williams";
designerURL = "http://www.monotype.com/studio";
familyName = "Noto Kufi Arabic";
featurePrefixes = (
{
code = "languagesystem DFLT dflt;\012languagesystem arab dflt;\012languagesystem hebr dflt;\012languagesystem arab URD;\012";
name = Languagesystems;
}
);
features = (
{
code = "feature locl;\012feature init;\012feature medi;\012feature fina;\012";
name = aalt;
},
{

glyphs = (
{
glyphname = "hamza-ar";
lastChange = "2019-08-29 01:59:26 +0000";
layers = (
{
anchors = (
{
name = bottom;
position = "{254, -78}";
},
{
name = top;
position = "{249, 488}";
}
);
layerId = "307C4A58-79B8-4138-817C-FBEE21722E1A";
paths = (
{
closed = 1;
nodes = (
"65 -17 LINE",
"166.333 3 OFFCURVE",
"387.667 31 OFFCURVE",
"481 31 CURVE",
"481 152 LINE",
"440 150 OFFCURVE",
"355 139 OFFCURVE",
"315 133 CURVE SMOOTH",
"292 130 LINE",
"258.667 144.667 OFFCURVE",
"235 177 OFFCURVE",
"235 217 CURVE SMOOTH",
"235 282.333 OFFCURVE",
"275.667 311 OFFCURVE",
"337 311 CURVE SMOOTH",
"375.667 311 OFFCURVE",
"407.333 304 OFFCURVE",
"432 290 CURVE",
"462 402 LINE",
"431.333 419.333 OFFCURVE",
"379.667 431 OFFCURVE",
"321 431 CURVE SMOOTH",
"231 431 OFFCURVE",
"162 401 OFFCURVE",
"124 349 CURVE SMOOTH",
"102 319 OFFCURVE",
"90 283 OFFCURVE",
"90 240 CURVE SMOOTH",
"90 182.667 OFFCURVE",
"117.333 132.333 OFFCURVE",
"160 107 CURVE",
"132.667 103 OFFCURVE",
"101 96.333 OFFCURVE",
"65 87 CURVE"
);
}
);
userData = {
assembly = "NPUSHB[ ]\011/* 44 values pushed */
17 5 23 11 5 3 28 29 20 2 23 0 23 24 70 89 15 23 31 23 143 23 3 13 3 23 23 8 0 27 8 14 70 89 31 8 63 8 111 8 223 8 4 8 
SVTCA[0]\011/* SetFreedomAndProjectionVectorToAxis */
MDAP[1]\011/* MoveDirectAbsPt */
DELTAP1[ ]\011/* DeltaExceptionP1 */
CALL[ ]\011/* CallFunction */
SVTCA[0]\011/* SetFreedomAndProjectionVectorToAxis */
RTG[ ]\011/* RoundToGrid */
MDAP[1]\011/* MoveDirectAbsPt */
SHP[1]\011/* ShiftPointByLastPoint */
SRP2[ ]\011/* SetRefPoint2 */
IP[ ]\011/* InterpolatePts */
MDAP[1]\011/* MoveDirectAbsPt */
SDS[ ]\011/* SetDeltaShiftInGState */
SDB[ ]\011/* SetDeltaBaseInGState */
DELTAP1[ ]\011/* DeltaExceptionP1 */
CALL[ ]\011/* CallFunction */
SRP1[ ]\011/* SetRefPoint1 */
SRP2[ ]\011/* SetRefPoint2 */
SVTCA[0]\011/* SetFreedomAndProjectionVectorToAxis */
IP[ ]\011/* InterpolatePts */
IP[ ]\011/* InterpolatePts */
SRP1[ ]\011/* SetRefPoint1 */
SRP2[ ]\011/* SetRefPoint2 */
SVTCA[1]\011/* SetFreedomAndProjectionVectorToAxis */
SLOOP[ ]\011/* SetLoopVariable */
IP[ ]\011/* InterpolatePts */
SRP1[ ]\011/* SetRefPoint1 */
SHP[1]\011/* ShiftPointByLastPoint */
IUP[1]\011/* InterpolateUntPts */
IUP[0]\011/* InterpolateUntPts */";
};
width = 526;
},
{
anchors = (
{
name = bottom;
position = "{254, -78}";
},
{
name = top;
position = "{249, 488}";
}
);
layerId = "15908E2C-AB74-4DC1-B0E7-8741EE8F4DA5";
paths = (
{
closed = 1;
nodes = (
"65 -9 LINE",
"130.333 5.667 OFFCURVE",
"384.667 39 OFFCURVE",
"450 39 CURVE",
"450 120 LINE",
"428 120 OFFCURVE",
"366.333 113.667 OFFCURVE",
"265 101 CURVE SMOOTH",
"243 98 LINE",
"205.667 116.667 OFFCURVE",
"180 160.333 OFFCURVE",
"180 211 CURVE SMOOTH",
"180 289.667 OFFCURVE",
"221.667 331 OFFCURVE",
"299 331 CURVE SMOOTH",
"331 331 OFFCURVE",
"363.333 322.333 OFFCURVE",
"396 305 CURVE",
"418 380 LINE",
"385.333 399.333 OFFCURVE",
"345 409 OFFCURVE",
"297 409 CURVE SMOOTH",
"214.333 409 OFFCURVE",
"149.5 377.333 OFFCURVE",
"115.5 320 CURVE SMOOTH",
"98.5 291.333 OFFCURVE",
"90 257 OFFCURVE",
"90 217 CURVE SMOOTH",
"90 158.333 OFFCURVE",
"116.667 105.333 OFFCURVE",
"154 80 CURVE",
"126 76 OFFCURVE",
"94 70 OFFCURVE",
"65 64 CURVE"
);
}
);
userData = {
assembly = "NPUSHB[ ]\011/* 34 values pushed */
18 6 6 12 24 3 30 29 3 21 0 24 24 25 70 89 24 24 10 28 28 0 70 89 28 19 10 15 70 89 31 10 1 10 
SVTCA[0]\011/* SetFreedomAndProjectionVectorToAxis */
MDAP[1]\011/* MoveDirectAbsPt */
DELTAP1[ ]\011/* DeltaExceptionP1 */
CALL[ ]\011/* CallFunction */
SVTCA[0]\011/* SetFreedomAndProjectionVectorToAxis */
RTG[ ]\011/* RoundToGrid */
MIAP[1]\011/* MoveIndirectAbsPt */
CALL[ ]\011/* CallFunction */
SRP1[ ]\011/* SetRefPoint1 */
SRP2[ ]\011/* SetRefPoint2 */
SVTCA[0]\011/* SetFreedomAndProjectionVectorToAxis */
IP[ ]\011/* InterpolatePts */
RTG[ ]\011/* RoundToGrid */
MDAP[1]\011/* MoveDirectAbsPt */
CALL[ ]\011/* CallFunction */
SRP1[ ]\011/* SetRefPoint1 */
SRP2[ ]\011/* SetRefPoint2 */
SVTCA[0]\011/* SetFreedomAndProjectionVectorToAxis */
IP[ ]\011/* InterpolatePts */
IP[ ]\011/* InterpolatePts */
SRP1[ ]\011/* SetRefPoint1 */
SRP2[ ]\011/* SetRefPoint2 */
SVTCA[1]\011/* SetFreedomAndProjectionVectorToAxis */
SLOOP[ ]\011/* SetLoopVariable */
IP[ ]\011/* InterpolatePts */
SRP1[ ]\011/* SetRefPoint1 */
SHP[1]\011/* ShiftPointByLastPoint */
IUP[1]\011/* InterpolateUntPts */
IUP[0]\011/* InterpolateUntPts */";
};
width = 490;
}
);
note = uni0621;
unicode = 0621;
},
{
glyphname = "alef-ar";
lastChange = "2019-09-07 02:40:48 +0000";
layers = (
{
anchors = (
{
name = bottom;
position = "{166, -78}";
},
{
name = top;
position = "{176, 830}";
}
);
layerId = "307C4A58-79B8-4138-817C-FBEE21722E1A";
paths = (
{
closed = 1;
nodes = (
"100 0 LINE",
"249 0 LINE",
"249 760 LINE",
"100 760 LINE"
);
}
);
userData = {
assembly = "PUSHB[ ]\011/* 7 values pushed */
3 5 4 3 18 0 0 
SVTCA[0]\011/* SetFreedomAndProjectionVectorToAxis */
MIAP[1]\011/* MoveIndirectAbsPt */
MIAP[1]\011/* MoveIndirectAbsPt */
SRP1[ ]\011/* SetRefPoint1 */
SRP2[ ]\011/* SetRefPoint2 */
SVTCA[1]\011/* SetFreedomAndProjectionVectorToAxis */
IP[ ]\011/* InterpolatePts */
IUP[1]\011/* InterpolateUntPts */
IUP[0]\011/* InterpolateUntPts */";
};
width = 349;
},
{
anchors = (
{
name = bottom;
position = "{146, -78}";
},
{
name = top;
position = "{146, 820}";
}
);
layerId = "15908E2C-AB74-4DC1-B0E7-8741EE8F4DA5";
paths = (
{
closed = 1;
nodes = (
"100 0 LINE",
"189 0 LINE",
"189 760 LINE",
"100 760 LINE"
);
}
);
userData = {
assembly = "PUSHB[ ]\011/* 7 values pushed */
3 4 5 3 18 0 0 
SVTCA[0]\011/* SetFreedomAndProjectionVectorToAxis */
MIAP[1]\011/* MoveIndirectAbsPt */
MIAP[1]\011/* MoveIndirectAbsPt */
SRP1[ ]\011/* SetRefPoint1 */
SRP2[ ]\011/* SetRefPoint2 */
SVTCA[1]\011/* SetFreedomAndProjectionVectorToAxis */
IP[ ]\011/* InterpolatePts */
IUP[1]\011/* InterpolateUntPts */
IUP[0]\011/* InterpolateUntPts */";
};
width = 289;
}
);
note = uni0627;
unicode = 0627;
},
{
glyphname = "alef-ar.fina";
lastChange = "2019-09-07 20:03:40 +0000";
layers = (
{
anchors = (
{
name = bottom;
position = "{225, -78}";
},
{
name = top;
position = "{176, 830}";
}
);
layerId = "307C4A58-79B8-4138-817C-FBEE21722E1A";
paths = (
{
closed = 1;
nodes = (
"249 120 LINE",
"249 760 LINE",
"100 760 LINE",
"100 0 LINE",
"374 0 LINE SMOOTH",
"377.333 0 OFFCURVE",
"379 1.667 OFFCURVE",
"379 5 CURVE SMOOTH",
"379 116 LINE SMOOTH",
"379 118.667 OFFCURVE",
"377.333 120 OFFCURVE",
"374 120 CURVE SMOOTH"
);
}
);
userData = {
assembly = "NPUSHB[ ]\011/* 14 values pushed */
0 9 6 6 11 10 7 0 6 9 70 89 6 18 
SVTCA[0]\011/* SetFreedomAndProjectionVectorToAxis */
MIAP[1]\011/* MoveIndirectAbsPt */
CALL[ ]\011/* CallFunction */
SVTCA[0]\011/* SetFreedomAndProjectionVectorToAxis */
RTG[ ]\011/* RoundToGrid */
MIAP[1]\011/* MoveIndirectAbsPt */
SRP1[ ]\011/* SetRefPoint1 */
SRP2[ ]\011/* SetRefPoint2 */
SVTCA[1]\011/* SetFreedomAndProjectionVectorToAxis */
IP[ ]\011/* InterpolatePts */
SRP1[ ]\011/* SetRefPoint1 */
SHP[1]\011/* ShiftPointByLastPoint */
SHP[0]\011/* ShiftPointByLastPoint */
IUP[1]\011/* InterpolateUntPts */
IUP[0]\011/* InterpolateUntPts */";
};
width = 369;
},
{
anchors = (
{
name = bottom;
position = "{195, -78}";
},
{
name = top;
position = "{146, 820}";
}
);
layerId = "15908E2C-AB74-4DC1-B0E7-8741EE8F4DA5";
paths = (
{
closed = 1;
nodes = (
"189 78 LINE",
"189 760 LINE",
"100 760 LINE",
"100 0 LINE",
"321 0 LINE SMOOTH",
"324.333 0 OFFCURVE",
"326 1.667 OFFCURVE",
"326 5 CURVE SMOOTH",
"326 74 LINE SMOOTH",
"326 76.667 OFFCURVE",
"324.333 78 OFFCURVE",
"321 78 CURVE SMOOTH"
);
}
);
userData = {
assembly = "NPUSHB[ ]\011/* 15 values pushed */
5 11 2 9 9 10 11 9 2 70 89 9 18 0 0 
SVTCA[0]\011/* SetFreedomAndProjectionVectorToAxis */
MIAP[1]\011/* MoveIndirectAbsPt */
MIAP[1]\011/* MoveIndirectAbsPt */
CALL[ ]\011/* CallFunction */
SRP1[ ]\011/* SetRefPoint1 */
SRP2[ ]\011/* SetRefPoint2 */
SVTCA[1]\011/* SetFreedomAndProjectionVectorToAxis */
IP[ ]\011/* InterpolatePts */
SRP1[ ]\011/* SetRefPoint1 */
SHP[1]\011/* ShiftPointByLastPoint */
SRP1[ ]\011/* SetRefPoint1 */
SHP[1]\011/* ShiftPointByLastPoint */
IUP[1]\011/* InterpolateUntPts */
IUP[0]\011/* InterpolateUntPts */";
};
width = 316;
}
);
note = uni0627.fina;
},
{
glyphname = "behDotless-ar";
lastChange = "2019-08-29 02:40:34 +0000";
layers = (
{
anchors = (
{
name = bottom;
position = "{391, -78}";
},
{
name = ring;
position = "{434, 0}";
},
{
name = top;
position = "{391, 488}";
}
);
layerId = "307C4A58-79B8-4138-817C-FBEE21722E1A";
paths = (
{
closed = 1;
nodes = (
"782 0 LINE",
"782 495 LINE",
"633 495 LINE",
"633 120 LINE",
"308 120 LINE SMOOTH",
"252 120 OFFCURVE",
"214 161.667 OFFCURVE",
"214 223 CURVE SMOOTH",
"214 267 OFFCURVE",
"219 310.667 OFFCURVE",
"229 354 CURVE",
"97 354 LINE",
"78.333 314 OFFCURVE",
"65 251.667 OFFCURVE",
"65 201 CURVE SMOOTH",
"65 75.667 OFFCURVE",
"141.333 0 OFFCURVE",
"264 0 CURVE SMOOTH"
);
}
);
userData = {
assembly = "NPUSHB[ ]\011/* 19 values pushed */
13 16 9 3 16 3 18 17 6 6 0 14 15 0 12 70 89 0 18 
SVTCA[0]\011/* SetFreedomAndProjectionVectorToAxis */
MIAP[1]\011/* MoveIndirectAbsPt */
CALL[ ]\011/* CallFunction */
SVTCA[0]\011/* SetFreedomAndProjectionVectorToAxis */
RTG[ ]\011/* RoundToGrid */
MIAP[1]\011/* MoveIndirectAbsPt */
SRP2[ ]\011/* SetRefPoint2 */
IP[ ]\011/* InterpolatePts */
MDAP[1]\011/* MoveDirectAbsPt */
SRP1[ ]\011/* SetRefPoint1 */
SRP2[ ]\011/* SetRefPoint2 */
SVTCA[1]\011/* SetFreedomAndProjectionVectorToAxis */
IP[ ]\011/* InterpolatePts */
IP[ ]\011/* InterpolatePts */
SRP1[ ]\011/* SetRefPoint1 */
SHP[1]\011/* ShiftPointByLastPoint */
SRP1[ ]\011/* SetRefPoint1 */
SHP[1]\011/* ShiftPointByLastPoint */
IUP[1]\011/* InterpolateUntPts */
IUP[0]\011/* InterpolateUntPts */";
};
width = 867;
},
{
anchors = (
{
name = bottom;
position = "{391, -78}";
},
{
name = ring;
position = "{389, 0}";
},
{
name = top;
position = "{391, 488}";
}
);
layerId = "15908E2C-AB74-4DC1-B0E7-8741EE8F4DA5";
paths = (
{
closed = 1;
nodes = (
"693 0 LINE",
"693 485 LINE",
"608 485 LINE",
"608 78 LINE",
"249 78 LINE SMOOTH",
"193 78 OFFCURVE",
"155 127.667 OFFCURVE",
"155 201 CURVE SMOOTH",
"155 248.333 OFFCURVE",
"160 296 OFFCURVE",
"170 344 CURVE",
"90 344 LINE",
"75.333 304 OFFCURVE",
"65 238 OFFCURVE",
"65 194 CURVE SMOOTH",
"65 74 OFFCURVE",
"137.333 0 OFFCURVE",
"252 0 CURVE SMOOTH"
);
}
);
userData = {
assembly = "NPUSHB[ ]\011/* 19 values pushed */
13 16 9 3 16 3 18 17 6 6 0 14 15 0 12 70 89 0 18 
SVTCA[0]\011/* SetFreedomAndProjectionVectorToAxis */
MIAP[1]\011/* MoveIndirectAbsPt */
CALL[ ]\011/* CallFunction */
SVTCA[0]\011/* SetFreedomAndProjectionVectorToAxis */
RTG[ ]\011/* RoundToGrid */
MIAP[1]\011/* MoveIndirectAbsPt */
SRP2[ ]\011/* SetRefPoint2 */
IP[ ]\011/* InterpolatePts */
MDAP[1]\011/* MoveDirectAbsPt */
SRP1[ ]\011/* SetRefPoint1 */
SRP2[ ]\011/* SetRefPoint2 */
SVTCA[1]\011/* SetFreedomAndProjectionVectorToAxis */
IP[ ]\011/* InterpolatePts */
IP[ ]\011/* InterpolatePts */
SRP1[ ]\011/* SetRefPoint1 */
SHP[1]\011/* ShiftPointByLastPoint */
SRP1[ ]\011/* SetRefPoint1 */
SHP[1]\011/* ShiftPointByLastPoint */
IUP[1]\011/* InterpolateUntPts */
IUP[0]\011/* InterpolateUntPts */";
};
width = 778;
}
);
note = uni066E;
unicode = 066E;
},
{
glyphname = "behDotless-ar.fina";
lastChange = "2019-08-29 02:40:34 +0000";
layers = (
{
anchors = (
{
name = bottom;
position = "{391, -78}";
},
{
name = ring;
position = "{454, 0}";
},
{
name = top;
position = "{391, 488}";
}
);
layerId = "307C4A58-79B8-4138-817C-FBEE21722E1A";
paths = (
{
closed = 1;
nodes = (
"912 0 LINE SMOOTH",
"915.333 0 OFFCURVE",
"917 1.667 OFFCURVE",
"917 5 CURVE SMOOTH",
"917 116 LINE SMOOTH",
"917 118.667 OFFCURVE",
"915.333 120 OFFCURVE",
"912 120 CURVE SMOOTH",
"782 120 LINE",
"782 495 LINE",
"633 495 LINE",
"633 120 LINE",
"308 120 LINE SMOOTH",
"252 120 OFFCURVE",
"214 161.667 OFFCURVE",
"214 223 CURVE SMOOTH",
"214 267 OFFCURVE",
"219 310.667 OFFCURVE",
"229 354 CURVE",
"97 354 LINE",
"78.333 314 OFFCURVE",
"65 251.667 OFFCURVE",
"65 201 CURVE SMOOTH",
"65 75.667 OFFCURVE",
"141.333 0 OFFCURVE",
"264 0 CURVE SMOOTH"
);
}
);
userData = {
assembly = "NPUSHB[ ]\011/* 22 values pushed */
9 3 13 16 3 16 23 20 24 6 6 0 14 15 16 12 0 12 70 89 0 18 
SVTCA[0]\011/* SetFreedomAndProjectionVectorToAxis */
MIAP[1]\011/* MoveIndirectAbsPt */
CALL[ ]\011/* CallFunction */
SRP1[ ]\011/* SetRefPoint1 */
SVTCA[0]\011/* SetFreedomAndProjectionVectorToAxis */
SHP[1]\011/* ShiftPointByLastPoint */
RTG[ ]\011/* RoundToGrid */
MIAP[1]\011/* MoveIndirectAbsPt */
SRP2[ ]\011/* SetRefPoint2 */
IP[ ]\011/* InterpolatePts */
MDAP[1]\011/* MoveDirectAbsPt */
SRP1[ ]\011/* SetRefPoint1 */
SVTCA[1]\011/* SetFreedomAndProjectionVectorToAxis */
SHP[1]\011/* ShiftPointByLastPoint */
SRP2[ ]\011/* SetRefPoint2 */
IP[ ]\011/* InterpolatePts */
IP[ ]\011/* InterpolatePts */
SRP1[ ]\011/* SetRefPoint1 */
SHP[1]\011/* ShiftPointByLastPoint */
SRP1[ ]\011/* SetRefPoint1 */
SHP[1]\011/* ShiftPointByLastPoint */
IUP[1]\011/* InterpolateUntPts */
IUP[0]\011/* InterpolateUntPts */";
};
width = 907;
},
{
anchors = (
{
name = bottom;
position = "{391, -78}";
},
{
name = ring;
position = "{411, 0}";
},
{
name = top;
position = "{391, 488}";
}
);
layerId = "15908E2C-AB74-4DC1-B0E7-8741EE8F4DA5";
paths = (
{
closed = 1;
nodes = (
"826 0 LINE SMOOTH",
"829.333 0 OFFCURVE",
"831 1.667 OFFCURVE",
"831 5 CURVE SMOOTH",
"831 74 LINE SMOOTH",
"831 76.667 OFFCURVE",
"829.333 78 OFFCURVE",
"826 78 CURVE SMOOTH",
"693 78 LINE",
"693 485 LINE",
"608 485 LINE",
"608 78 LINE",
"249 78 LINE SMOOTH",
"193 78 OFFCURVE",
"155 127.667 OFFCURVE",
"155 201 CURVE SMOOTH",
"155 248.333 OFFCURVE",
"160 296 OFFCURVE",
"170 344 CURVE",
"90 344 LINE",
"75.333 304 OFFCURVE",
"65 238 OFFCURVE",
"65 194 CURVE SMOOTH",
"65 74 OFFCURVE",
"137.333 0 OFFCURVE",
"252 0 CURVE SMOOTH"
);
}
);
userData = {
assembly = "NPUSHB[ ]\011/* 22 values pushed */
9 3 13 16 3 16 23 19 24 6 6 0 14 15 16 12 0 12 70 89 0 18 
SVTCA[0]\011/* SetFreedomAndProjectionVectorToAxis */
MIAP[1]\011/* MoveIndirectAbsPt */
CALL[ ]\011/* CallFunction */
SRP1[ ]\011/* SetRefPoint1 */
SVTCA[0]\011/* SetFreedomAndProjectionVectorToAxis */
SHP[1]\011/* ShiftPointByLastPoint */
RTG[ ]\011/* RoundToGrid */
MIAP[1]\011/* MoveIndirectAbsPt */
SRP2[ ]\011/* SetRefPoint2 */
IP[ ]\011/* InterpolatePts */
MDAP[1]\011/* MoveDirectAbsPt */
SRP1[ ]\011/* SetRefPoint1 */
SVTCA[1]\011/* SetFreedomAndProjectionVectorToAxis */
SHP[1]\011/* ShiftPointByLastPoint */
SRP2[ ]\011/* SetRefPoint2 */
IP[ ]\011/* InterpolatePts */
IP[ ]\011/* InterpolatePts */
SRP1[ ]\011/* SetRefPoint1 */
SHP[1]\011/* ShiftPointByLastPoint */
SRP1[ ]\011/* SetRefPoint1 */
SHP[1]\011/* ShiftPointByLastPoint */
IUP[1]\011/* InterpolateUntPts */
IUP[0]\011/* InterpolateUntPts */";
};
width = 821;
}
);
note = uni066E.fina;
},
{
glyphname = "behDotless-ar.medi";
lastChange = "2019-08-29 02:40:34 +0000";
layers = (
{
anchors = (
{
name = bottom;
position = "{166, -78}";
},
{
name = ring;
position = "{197, 0}";
},
{
name = top;
position = "{146, 586}";
}
);
layerId = "307C4A58-79B8-4138-817C-FBEE21722E1A";
paths = (
{
closed = 1;
nodes = (
"399 0 LINE SMOOTH",
"402.333 0 OFFCURVE",
"404 1.667 OFFCURVE",
"404 5 CURVE SMOOTH",
"404 116 LINE SMOOTH",
"404 118.667 OFFCURVE",
"402.333 120 OFFCURVE",
"399 120 CURVE SMOOTH",
"269 120 LINE",
"269 495 LINE",
"120 495 LINE",
"120 120 LINE",
"-5 120 LINE SMOOTH",
"-8.333 120 OFFCURVE",
"-10 118.667 OFFCURVE",
"-10 116 CURVE SMOOTH",
"-10 5 LINE SMOOTH",
"-10 1.667 OFFCURVE",
"-8.333 0 OFFCURVE",
"-5 0 CURVE SMOOTH"
);
}
);
userData = {
assembly = "NPUSHB[ ]\011/* 18 values pushed */
15 12 12 16 2 17 9 16 13 15 15 11 6 11 70 89 6 18 
SVTCA[0]\011/* SetFreedomAndProjectionVectorToAxis */
MIAP[1]\011/* MoveIndirectAbsPt */
CALL[ ]\011/* CallFunction */
SRP1[ ]\011/* SetRefPoint1 */
SVTCA[0]\011/* SetFreedomAndProjectionVectorToAxis */
SHP[1]\011/* ShiftPointByLastPoint */
RTG[ ]\011/* RoundToGrid */
MIAP[1]\011/* MoveIndirectAbsPt */
SRP1[ ]\011/* SetRefPoint1 */
SVTCA[1]\011/* SetFreedomAndProjectionVectorToAxis */
SHP[1]\011/* ShiftPointByLastPoint */
SRP1[ ]\011/* SetRefPoint1 */
SHP[1]\011/* ShiftPointByLastPoint */
SRP2[ ]\011/* SetRefPoint2 */
IP[ ]\011/* InterpolatePts */
SRP1[ ]\011/* SetRefPoint1 */
SHP[1]\011/* ShiftPointByLastPoint */
IUP[1]\011/* InterpolateUntPts */
IUP[0]\011/* InterpolateUntPts */";
};
width = 394;
},
{
anchors = (
{
name = bottom;
position = "{166, -78}";
},
{
name = ring;
position = "{171, 0}";
},
{
name = top;
position = "{146, 537}";
}
);
layerId = "15908E2C-AB74-4DC1-B0E7-8741EE8F4DA5";
paths = (
{
closed = 1;
nodes = (
"346 0 LINE SMOOTH",
"349.333 0 OFFCURVE",
"351 1.667 OFFCURVE",
"351 5 CURVE SMOOTH",
"351 74 LINE SMOOTH",
"351 76.667 OFFCURVE",
"349.333 78 OFFCURVE",
"346 78 CURVE SMOOTH",
"216 78 LINE",
"216 485 LINE",
"127 485 LINE",
"127 78 LINE",
"-5 78 LINE SMOOTH",
"-8.333 78 OFFCURVE",
"-10 76.667 OFFCURVE",
"-10 74 CURVE SMOOTH",
"-10 5 LINE SMOOTH",
"-10 1.667 OFFCURVE",
"-8.333 0 OFFCURVE",
"-5 0 CURVE SMOOTH"
);
}
);
userData = {
assembly = "NPUSHB[ ]\011/* 18 values pushed */
9 6 6 16 12 17 3 16 7 15 9 5 0 5 70 89 0 18 
SVTCA[0]\011/* SetFreedomAndProjectionVectorToAxis */
MIAP[1]\011/* MoveIndirectAbsPt */
CALL[ ]\011/* CallFunction */
SRP1[ ]\011/* SetRefPoint1 */
SVTCA[0]\011/* SetFreedomAndProjectionVectorToAxis */
SHP[1]\011/* ShiftPointByLastPoint */
RTG[ ]\011/* RoundToGrid */
MIAP[1]\011/* MoveIndirectAbsPt */
SRP1[ ]\011/* SetRefPoint1 */
SVTCA[1]\011/* SetFreedomAndProjectionVectorToAxis */
SHP[1]\011/* ShiftPointByLastPoint */
SRP1[ ]\011/* SetRefPoint1 */
SHP[1]\011/* ShiftPointByLastPoint */
SRP2[ ]\011/* SetRefPoint2 */
IP[ ]\011/* InterpolatePts */
SRP1[ ]\011/* SetRefPoint1 */
SHP[1]\011/* ShiftPointByLastPoint */
IUP[1]\011/* InterpolateUntPts */
IUP[0]\011/* InterpolateUntPts */";
};
width = 341;
}
);
note = uni066E.medi;
},
{
glyphname = "behDotless-ar.init";
lastChange = "2019-08-29 02:40:34 +0000";
layers = (
{
anchors = (
{
name = bottom;
position = "{127, -78}";
},
{
name = ring;
position = "{177, 0}";
},
{
name = top;
position = "{146, 586}";
}
);
layerId = "307C4A58-79B8-4138-817C-FBEE21722E1A";
paths = (
{
closed = 1;
nodes = (
"269 0 LINE",
"269 495 LINE",
"120 495 LINE",
"120 120 LINE",
"-5 120 LINE SMOOTH",
"-8.333 120 OFFCURVE",
"-10 118.667 OFFCURVE",
"-10 116 CURVE SMOOTH",
"-10 5 LINE SMOOTH",
"-10 1.667 OFFCURVE",
"-8.333 0 OFFCURVE",
"-5 0 CURVE SMOOTH"
);
}
);
userData = {
assembly = "NPUSHB[ ]\011/* 14 values pushed */
9 6 6 11 3 10 7 15 0 5 70 89 0 18 
SVTCA[0]\011/* SetFreedomAndProjectionVectorToAxis */
MIAP[1]\011/* MoveIndirectAbsPt */
CALL[ ]\011/* CallFunction */
SVTCA[0]\011/* SetFreedomAndProjectionVectorToAxis */
RTG[ ]\011/* RoundToGrid */
MIAP[1]\011/* MoveIndirectAbsPt */
SRP1[ ]\011/* SetRefPoint1 */
SVTCA[1]\011/* SetFreedomAndProjectionVectorToAxis */
SHP[1]\011/* ShiftPointByLastPoint */
SRP2[ ]\011/* SetRefPoint2 */
IP[ ]\011/* InterpolatePts */
SRP1[ ]\011/* SetRefPoint1 */
SHP[1]\011/* ShiftPointByLastPoint */
IUP[1]\011/* InterpolateUntPts */
IUP[0]\011/* InterpolateUntPts */";
};
width = 354;
},
{
anchors = (
{
name = bottom;
position = "{127, -78}";
},
{
name = ring;
position = "{151, 0}";
},
{
name = top;
position = "{146, 537}";
}
);
layerId = "15908E2C-AB74-4DC1-B0E7-8741EE8F4DA5";
paths = (
{
closed = 1;
nodes = (
"216 0 LINE",
"216 485 LINE",
"127 485 LINE",
"127 78 LINE",
"-5 78 LINE SMOOTH",
"-8.333 78 OFFCURVE",
"-10 76.667 OFFCURVE",
"-10 74 CURVE SMOOTH",
"-10 5 LINE SMOOTH",
"-10 1.667 OFFCURVE",
"-8.333 0 OFFCURVE",
"-5 0 CURVE SMOOTH"
);
}
);
userData = {
assembly = "NPUSHB[ ]\011/* 14 values pushed */
6 9 9 11 3 10 7 15 0 5 70 89 0 18 
SVTCA[0]\011/* SetFreedomAndProjectionVectorToAxis */
MIAP[1]\011/* MoveIndirectAbsPt */
CALL[ ]\011/* CallFunction */
SVTCA[0]\011/* SetFreedomAndProjectionVectorToAxis */
RTG[ ]\011/* RoundToGrid */
MIAP[1]\011/* MoveIndirectAbsPt */
SRP1[ ]\011/* SetRefPoint1 */
SVTCA[1]\011/* SetFreedomAndProjectionVectorToAxis */
SHP[1]\011/* ShiftPointByLastPoint */
SRP2[ ]\011/* SetRefPoint2 */
IP[ ]\011/* InterpolatePts */
SRP1[ ]\011/* SetRefPoint1 */
SHP[1]\011/* ShiftPointByLastPoint */
IUP[1]\011/* InterpolateUntPts */
IUP[0]\011/* InterpolateUntPts */";
};
width = 301;
}
);
note = uni066E.init;
},
{
glyphname = "behThreedotshorizontalbelow-ar";
lastChange = "2019-08-29 03:04:12 +0000";
layers = (
{
anchors = (
{
name = bottom;
position = "{518, -283}";
},
{
name = top;
position = "{459, 488}";
}
);
layerId = "307C4A58-79B8-4138-817C-FBEE21722E1A";
paths = (
{
closed = 1;
nodes = (
"893 0 LINE",
"893 495 LINE",
"744 495 LINE",
"744 120 LINE",
"308 120 LINE SMOOTH",
"252 120 OFFCURVE",
"214 161.667 OFFCURVE",
"214 223 CURVE SMOOTH",
"214 267 OFFCURVE",
"219 310.667 OFFCURVE",
"229 354 CURVE",
"97 354 LINE",
"78.333 314 OFFCURVE",
"65 251.667 OFFCURVE",
"65 201 CURVE SMOOTH",
"65 75.667 OFFCURVE",
"141.333 0 OFFCURVE",
"264 0 CURVE SMOOTH"
);
},
{
closed = 1;
nodes = (
"383 -250 OFFCURVE",
"409 -223.333 OFFCURVE",
"409 -178 CURVE SMOOTH",
"409 -132.667 OFFCURVE",
"384.333 -106 OFFCURVE",
"343 -106 CURVE SMOOTH",
"301.667 -106 OFFCURVE",
"276 -131.333 OFFCURVE",
"276 -178 CURVE SMOOTH",
"276 -224.667 OFFCURVE",
"303 -250 OFFCURVE",
"343 -250 CURVE SMOOTH"
);
},
{
closed = 1;
nodes = (
"553 -250 OFFCURVE",
"579 -223.333 OFFCURVE",
"579 -178 CURVE SMOOTH",
"579 -132.667 OFFCURVE",
"554.333 -106 OFFCURVE",
"513 -106 CURVE SMOOTH",
"471.667 -106 OFFCURVE",
"446 -131.333 OFFCURVE",
"446 -178 CURVE SMOOTH",
"446 -224.667 OFFCURVE",
"473 -250 OFFCURVE",
"513 -250 CURVE SMOOTH"
);
},
{
closed = 1;
nodes = (
"722 -250 OFFCURVE",
"748 -223.333 OFFCURVE",
"748 -178 CURVE SMOOTH",
"748 -132.667 OFFCURVE",
"723.333 -106 OFFCURVE",
"682 -106 CURVE SMOOTH",
"640.667 -106 OFFCURVE",
"615 -131.333 OFFCURVE",
"615 -178 CURVE SMOOTH",
"615 -224.667 OFFCURVE",
"642 -250 OFFCURVE",
"682 -250 CURVE SMOOTH"
);
}
);
userData = {
assembly = "NPUSHB[ ]\011/* 37 values pushed */
13 16 50 44 38 32 26 20 9 3 3 20 32 44 16 5 54 53 6 6 0 14 15 41 29 17 47 35 23 0 64 0 12 70 89 0 18 
SVTCA[0]\011/* SetFreedomAndProjectionVectorToAxis */
MIAP[1]\011/* MoveIndirectAbsPt */
CALL[ ]\011/* CallFunction */
SVTCA[0]\011/* SetFreedomAndProjectionVectorToAxis */
SMD[ ]\011/* SetMinimumDistance */
RTG[ ]\011/* RoundToGrid */
SRP0[ ]\011/* SetRefPoint0 */
MDRP[11110]\011/* MoveDirectRelPt */
SHP[0]\011/* ShiftPointByLastPoint */
SHP[0]\011/* ShiftPointByLastPoint */
MDRP[01101]\011/* MoveDirectRelPt */
SHP[0]\011/* ShiftPointByLastPoint */
SHP[0]\011/* ShiftPointByLastPoint */
MIAP[1]\011/* MoveIndirectAbsPt */
SRP2[ ]\011/* SetRefPoint2 */
IP[ ]\011/* InterpolatePts */
MDAP[1]\011/* MoveDirectAbsPt */
SRP1[ ]\011/* SetRefPoint1 */
SRP2[ ]\011/* SetRefPoint2 */
SVTCA[1]\011/* SetFreedomAndProjectionVectorToAxis */
SLOOP[ ]\011/* SetLoopVariable */
IP[ ]\011/* InterpolatePts */
SRP1[ ]\011/* SetRefPoint1 */
SHP[1]\011/* ShiftPointByLastPoint */
SRP1[ ]\011/* SetRefPoint1 */
SHP[1]\011/* ShiftPointByLastPoint */
SRP1[ ]\011/* SetRefPoint1 */
SHP[1]\011/* ShiftPointByLastPoint */
SRP1[ ]\011/* SetRefPoint1 */
SHP[1]\011/* ShiftPointByLastPoint */
SRP1[ ]\011/* SetRefPoint1 */
SHP[1]\011/* ShiftPointByLastPoint */
IUP[1]\011/* InterpolateUntPts */
IUP[0]\011/* InterpolateUntPts */";
};
width = 978;
},
{
anchors = (
{
name = bottom;
position = "{498, -264}";
},
{
name = top;
position = "{509, 458}";
}
);
layerId = "15908E2C-AB74-4DC1-B0E7-8741EE8F4DA5";
paths = (
{
closed = 1;
nodes = (
"893 0 LINE",
"893 485 LINE",
"808 485 LINE",
"808 78 LINE",
"249 78 LINE SMOOTH",
"193 78 OFFCURVE",
"155 127.667 OFFCURVE",
"155 201 CURVE SMOOTH",
"155 248.333 OFFCURVE",
"160 296 OFFCURVE",
"170 344 CURVE",
"90 344 LINE",
"75.333 304 OFFCURVE",
"65 238 OFFCURVE",
"65 194 CURVE SMOOTH",
"65 74 OFFCURVE",
"137.333 0 OFFCURVE",
"252 0 CURVE SMOOTH"
);
},
{
closed = 1;
nodes = (
"351 -200 OFFCURVE",
"371 -176 OFFCURVE",
"371 -140 CURVE SMOOTH",
"371 -104 OFFCURVE",
"351 -80 OFFCURVE",
"315 -80 CURVE SMOOTH",
"280.333 -80 OFFCURVE",
"259 -102.667 OFFCURVE",
"259 -140 CURVE SMOOTH",
"259 -178.667 OFFCURVE",
"280.333 -200 OFFCURVE",
"315 -200 CURVE SMOOTH"
);
},
{
closed = 1;
nodes = (
"529 -200 OFFCURVE",
"549 -176 OFFCURVE",
"549 -140 CURVE SMOOTH",
"549 -104 OFFCURVE",
"529 -80 OFFCURVE",
"493 -80 CURVE SMOOTH",
"458.333 -80 OFFCURVE",
"437 -101.333 OFFCURVE",
"437 -140 CURVE SMOOTH",
"437 -178.667 OFFCURVE",
"458.333 -200 OFFCURVE",
"493 -200 CURVE SMOOTH"
);
},
{
closed = 1;
nodes = (
"702 -200 OFFCURVE",
"722 -176 OFFCURVE",
"722 -140 CURVE SMOOTH",
"722 -104 OFFCURVE",
"702 -80 OFFCURVE",
"666 -80 CURVE SMOOTH",
"631.333 -80 OFFCURVE",
"610 -102.667 OFFCURVE",
"610 -140 CURVE SMOOTH",
"610 -178.667 OFFCURVE",
"631.333 -200 OFFCURVE",
"666 -200 CURVE SMOOTH"
);
}
);
userData = {
assembly = "NPUSHB[ ]\011/* 41 values pushed */
13 16 50 44 38 32 26 20 9 3 3 20 32 44 16 5 54 53 29 35 35 47 17 23 23 41 47 16 64 7 7 15 16 16 13 70 89 16 18 15 15 
SVTCA[0]\011/* SetFreedomAndProjectionVectorToAxis */
MIAP[1]\011/* MoveIndirectAbsPt */
MIAP[1]\011/* MoveIndirectAbsPt */
CALL[ ]\011/* CallFunction */
SRP1[ ]\011/* SetRefPoint1 */
SRP2[ ]\011/* SetRefPoint2 */
SVTCA[0]\011/* SetFreedomAndProjectionVectorToAxis */
IP[ ]\011/* InterpolatePts */
RTG[ ]\011/* RoundToGrid */
MDAP[1]\011/* MoveDirectAbsPt */
SMD[ ]\011/* SetMinimumDistance */
SRP0[ ]\011/* SetRefPoint0 */
MDRP[11110]\011/* MoveDirectRelPt */
MDRP[01101]\011/* MoveDirectRelPt */
SHP[1]\011/* ShiftPointByLastPoint */
MDAP[1]\011/* MoveDirectAbsPt */
MDRP[01101]\011/* MoveDirectRelPt */
SRP1[ ]\011/* SetRefPoint1 */
SHP[1]\011/* ShiftPointByLastPoint */
MDAP[1]\011/* MoveDirectAbsPt */
MDRP[01101]\011/* MoveDirectRelPt */
SRP1[ ]\011/* SetRefPoint1 */
SRP2[ ]\011/* SetRefPoint2 */
SVTCA[1]\011/* SetFreedomAndProjectionVectorToAxis */
SLOOP[ ]\011/* SetLoopVariable */
IP[ ]\011/* InterpolatePts */
SRP1[ ]\011/* SetRefPoint1 */
SHP[1]\011/* ShiftPointByLastPoint */
SRP1[ ]\011/* SetRefPoint1 */
SHP[1]\011/* ShiftPointByLastPoint */
SRP1[ ]\011/* SetRefPoint1 */
SHP[1]\011/* ShiftPointByLastPoint */
SRP1[ ]\011/* SetRefPoint1 */
SHP[1]\011/* ShiftPointByLastPoint */
SRP1[ ]\011/* SetRefPoint1 */
SHP[1]\011/* ShiftPointByLastPoint */
IUP[1]\011/* InterpolateUntPts */
IUP[0]\011/* InterpolateUntPts */";
};
width = 978;
}
);
note = uni0750;
unicode = 0750;
},
{
glyphname = "behThreedotshorizontalbelow-ar.fina";
lastChange = "2019-08-29 03:04:16 +0000";
layers = (
{
anchors = (
{
name = bottom;
position = "{527, -283}";
},
{
name = top;
position = "{459, 488}";
}
);
layerId = "307C4A58-79B8-4138-817C-FBEE21722E1A";
paths = (
{
closed = 1;
nodes = (
"1026 0 LINE SMOOTH",
"1029.333 0 OFFCURVE",
"1031 1.667 OFFCURVE",
"1031 5 CURVE SMOOTH",
"1031 116 LINE SMOOTH",
"1031 118.667 OFFCURVE",
"1029.333 120 OFFCURVE",
"1026 120 CURVE SMOOTH",
"893 120 LINE",
"893 495 LINE",
"744 495 LINE",
"744 120 LINE",
"308 120 LINE SMOOTH",
"252 120 OFFCURVE",
"214 161.667 OFFCURVE",
"214 223 CURVE SMOOTH",
"214 267 OFFCURVE",
"219 310.667 OFFCURVE",
"229 354 CURVE",
"97 354 LINE",
"78.333 314 OFFCURVE",
"65 251.667 OFFCURVE",
"65 201 CURVE SMOOTH",
"65 75.667 OFFCURVE",
"141.333 0 OFFCURVE",
"264 0 CURVE SMOOTH"
);
},
{
closed = 1;
nodes = (
"396 -250 OFFCURVE",
"422 -223.333 OFFCURVE",
"422 -178 CURVE SMOOTH",
"422 -132.667 OFFCURVE",
"397.333 -106 OFFCURVE",
"356 -106 CURVE SMOOTH",
"314.667 -106 OFFCURVE",
"289 -131.333 OFFCURVE",
"289 -178 CURVE SMOOTH",
"289 -224.667 OFFCURVE",
"316 -250 OFFCURVE",
"356 -250 CURVE SMOOTH"
);
},
{
closed = 1;
nodes = (
"566 -250 OFFCURVE",
"592 -223.333 OFFCURVE",
"592 -178 CURVE SMOOTH",
"592 -132.667 OFFCURVE",
"567.333 -106 OFFCURVE",
"526 -106 CURVE SMOOTH",
"484.667 -106 OFFCURVE",
"459 -131.333 OFFCURVE",
"459 -178 CURVE SMOOTH",
"459 -224.667 OFFCURVE",
"486 -250 OFFCURVE",
"526 -250 CURVE SMOOTH"
);
},
{
closed = 1;
nodes = (
"735 -250 OFFCURVE",
"761 -223.333 OFFCURVE",
"761 -178 CURVE SMOOTH",
"761 -132.667 OFFCURVE",
"736.333 -106 OFFCURVE",
"695 -106 CURVE SMOOTH",
"653.667 -106 OFFCURVE",
"628 -131.333 OFFCURVE",
"628 -178 CURVE SMOOTH",
"628 -224.667 OFFCURVE",
"655 -250 OFFCURVE",
"695 -250 CURVE SMOOTH"
);
}
);
userData = {
assembly = "NPUSHB[ ]\011/* 43 values pushed */
9 3 32 26 44 38 56 50 13 16 16 50 38 26 3 5 59 19 60 7 7 0 14 15 47 53 53 29 35 41 41 23 29 0 64 16 12 0 12 70 89 0 18 
SVTCA[0]\011/* SetFreedomAndProjectionVectorToAxis */
MIAP[1]\011/* MoveIndirectAbsPt */
CALL[ ]\011/* CallFunction */
SRP1[ ]\011/* SetRefPoint1 */
SVTCA[0]\011/* SetFreedomAndProjectionVectorToAxis */
SHP[1]\011/* ShiftPointByLastPoint */
SMD[ ]\011/* SetMinimumDistance */
RTG[ ]\011/* RoundToGrid */
SRP0[ ]\011/* SetRefPoint0 */
MDRP[11110]\011/* MoveDirectRelPt */
MDRP[01101]\011/* MoveDirectRelPt */
SHP[1]\011/* ShiftPointByLastPoint */
MDAP[1]\011/* MoveDirectAbsPt */
MDRP[01101]\011/* MoveDirectRelPt */
SRP1[ ]\011/* SetRefPoint1 */
SHP[1]\011/* ShiftPointByLastPoint */
MDAP[1]\011/* MoveDirectAbsPt */
MDRP[01101]\011/* MoveDirectRelPt */
MIAP[1]\011/* MoveIndirectAbsPt */
SRP2[ ]\011/* SetRefPoint2 */
IP[ ]\011/* InterpolatePts */
MDAP[1]\011/* MoveDirectAbsPt */
SRP1[ ]\011/* SetRefPoint1 */
SVTCA[1]\011/* SetFreedomAndProjectionVectorToAxis */
SHP[1]\011/* ShiftPointByLastPoint */
SRP2[ ]\011/* SetRefPoint2 */
SLOOP[ ]\011/* SetLoopVariable */
IP[ ]\011/* InterpolatePts */
SRP1[ ]\011/* SetRefPoint1 */
SHP[1]\011/* ShiftPointByLastPoint */
SRP1[ ]\011/* SetRefPoint1 */
SHP[1]\011/* ShiftPointByLastPoint */
SRP1[ ]\011/* SetRefPoint1 */
SHP[1]\011/* ShiftPointByLastPoint */
SRP1[ ]\011/* SetRefPoint1 */
SHP[1]\011/* ShiftPointByLastPoint */
SRP1[ ]\011/* SetRefPoint1 */
SHP[1]\011/* ShiftPointByLastPoint */
IUP[1]\011/* InterpolateUntPts */
IUP[0]\011/* InterpolateUntPts */";
};
width = 1021;
},
{
anchors = (
{
name = bottom;
position = "{498, -264}";
},
{
name = top;
position = "{459, 488}";
}
);
layerId = "15908E2C-AB74-4DC1-B0E7-8741EE8F4DA5";
paths = (
{
closed = 1;
nodes = (
"1026 0 LINE SMOOTH",
"1029.333 0 OFFCURVE",
"1031 1.667 OFFCURVE",
"1031 5 CURVE SMOOTH",
"1031 74 LINE SMOOTH",
"1031 76.667 OFFCURVE",
"1029.333 78 OFFCURVE",
"1026 78 CURVE SMOOTH",
"893 78 LINE",
"893 485 LINE",
"808 485 LINE",
"808 78 LINE",
"249 78 LINE SMOOTH",
"193 78 OFFCURVE",
"155 127.667 OFFCURVE",
"155 201 CURVE SMOOTH",
"155 248.333 OFFCURVE",
"160 296 OFFCURVE",
"170 344 CURVE",
"90 344 LINE",
"75.333 304 OFFCURVE",
"65 238 OFFCURVE",
"65 194 CURVE SMOOTH",
"65 74 OFFCURVE",
"137.333 0 OFFCURVE",
"252 0 CURVE SMOOTH"
);
},
{
closed = 1;
nodes = (
"351 -200 OFFCURVE",
"371 -176 OFFCURVE",
"371 -140 CURVE SMOOTH",
"371 -104 OFFCURVE",
"351 -80 OFFCURVE",
"315 -80 CURVE SMOOTH",
"280.333 -80 OFFCURVE",
"259 -102.667 OFFCURVE",
"259 -140 CURVE SMOOTH",
"259 -178.667 OFFCURVE",
"280.333 -200 OFFCURVE",
"315 -200 CURVE SMOOTH"
);
},
{
closed = 1;
nodes = (
"529 -200 OFFCURVE",
"549 -176 OFFCURVE",
"549 -140 CURVE SMOOTH",
"549 -104 OFFCURVE",
"529 -80 OFFCURVE",
"493 -80 CURVE SMOOTH",
"458.333 -80 OFFCURVE",
"437 -101.333 OFFCURVE",
"437 -140 CURVE SMOOTH",
"437 -178.667 OFFCURVE",
"458.333 -200 OFFCURVE",
"493 -200 CURVE SMOOTH"
);
},
{
closed = 1;
nodes = (
"702 -200 OFFCURVE",
"722 -176 OFFCURVE",
"722 -140 CURVE SMOOTH",
"722 -104 OFFCURVE",
"702 -80 OFFCURVE",
"666 -80 CURVE SMOOTH",
"631.333 -80 OFFCURVE",
"610 -102.667 OFFCURVE",
"610 -140 CURVE SMOOTH",
"610 -178.667 OFFCURVE",
"631.333 -200 OFFCURVE",
"666 -200 CURVE SMOOTH"
);
}
);
userData = {
assembly = "NPUSHB[ ]\011/* 43 values pushed */
9 3 32 26 44 38 56 50 16 13 13 50 38 26 3 5 59 19 60 7 7 0 14 15 47 53 53 29 35 41 41 23 29 0 64 16 13 0 13 70 89 0 18 
SVTCA[0]\011/* SetFreedomAndProjectionVectorToAxis */
MIAP[1]\011/* MoveIndirectAbsPt */
CALL[ ]\011/* CallFunction */
SRP1[ ]\011/* SetRefPoint1 */
SVTCA[0]\011/* SetFreedomAndProjectionVectorToAxis */
SHP[1]\011/* ShiftPointByLastPoint */
SMD[ ]\011/* SetMinimumDistance */
RTG[ ]\011/* RoundToGrid */
SRP0[ ]\011/* SetRefPoint0 */
MDRP[11110]\011/* MoveDirectRelPt */
MDRP[01101]\011/* MoveDirectRelPt */
SHP[1]\011/* ShiftPointByLastPoint */
MDAP[1]\011/* MoveDirectAbsPt */
MDRP[01101]\011/* MoveDirectRelPt */
SRP1[ ]\011/* SetRefPoint1 */
SHP[1]\011/* ShiftPointByLastPoint */
MDAP[1]\011/* MoveDirectAbsPt */
MDRP[01101]\011/* MoveDirectRelPt */
MIAP[1]\011/* MoveIndirectAbsPt */
SRP2[ ]\011/* SetRefPoint2 */
IP[ ]\011/* InterpolatePts */
MDAP[1]\011/* MoveDirectAbsPt */
SRP1[ ]\011/* SetRefPoint1 */
SVTCA[1]\011/* SetFreedomAndProjectionVectorToAxis */
SHP[1]\011/* ShiftPointByLastPoint */
SRP2[ ]\011/* SetRefPoint2 */
SLOOP[ ]\011/* SetLoopVariable */
IP[ ]\011/* InterpolatePts */
SRP1[ ]\011/* SetRefPoint1 */
SHP[1]\011/* ShiftPointByLastPoint */
SRP1[ ]\011/* SetRefPoint1 */
SHP[1]\011/* ShiftPointByLastPoint */
SRP1[ ]\011/* SetRefPoint1 */
SHP[1]\011/* ShiftPointByLastPoint */
SRP1[ ]\011/* SetRefPoint1 */
SHP[1]\011/* ShiftPointByLastPoint */
SRP1[ ]\011/* SetRefPoint1 */
SHP[1]\011/* ShiftPointByLastPoint */
IUP[1]\011/* InterpolateUntPts */
IUP[0]\011/* InterpolateUntPts */";
};
width = 1021;
}
);
note = uni0750.fina;
},
{
glyphname = "behThreedotshorizontalbelow-ar.medi";
lastChange = "2019-08-29 03:04:23 +0000";
layers = (
{
anchors = (
{
name = bottom;
position = "{322, -293}";
},
{
name = top;
position = "{322, 586}";
}
);
layerId = "307C4A58-79B8-4138-817C-FBEE21722E1A";
paths = (
{
closed = 1;
nodes = (
"606 0 LINE SMOOTH",
"609.333 0 OFFCURVE",
"611 1.667 OFFCURVE",
"611 5 CURVE SMOOTH",
"611 116 LINE SMOOTH",
"611 118.667 OFFCURVE",
"609.333 120 OFFCURVE",
"606 120 CURVE SMOOTH",
"486 120 LINE",
"486 485 LINE",
"337 485 LINE",
"337 120 LINE",
"-5 120 LINE SMOOTH",
"-8.333 120 OFFCURVE",
"-10 118.667 OFFCURVE",
"-10 116 CURVE SMOOTH",
"-10 5 LINE SMOOTH",
"-10 1.667 OFFCURVE",
"-8.333 0 OFFCURVE",
"-5 0 CURVE SMOOTH"
);
},
{
closed = 1;
nodes = (
"186 -250 OFFCURVE",
"212 -223.333 OFFCURVE",
"212 -178 CURVE SMOOTH",
"212 -132.667 OFFCURVE",
"187.333 -106 OFFCURVE",
"146 -106 CURVE SMOOTH",
"104.667 -106 OFFCURVE",
"79 -131.333 OFFCURVE",
"79 -178 CURVE SMOOTH",
"79 -224.667 OFFCURVE",
"106 -250 OFFCURVE",
"146 -250 CURVE SMOOTH"
);
},
{
closed = 1;
nodes = (
"356 -250 OFFCURVE",
"382 -223.333 OFFCURVE",
"382 -178 CURVE SMOOTH",
"382 -132.667 OFFCURVE",
"357.333 -106 OFFCURVE",
"316 -106 CURVE SMOOTH",
"274.667 -106 OFFCURVE",
"249 -131.333 OFFCURVE",
"249 -178 CURVE SMOOTH",
"249 -224.667 OFFCURVE",
"276 -250 OFFCURVE",
"316 -250 CURVE SMOOTH"
);
},
{
closed = 1;
nodes = (
"525 -250 OFFCURVE",
"551 -223.333 OFFCURVE",
"551 -178 CURVE SMOOTH",
"551 -132.667 OFFCURVE",
"526.333 -106 OFFCURVE",
"485 -106 CURVE SMOOTH",
"443.667 -106 OFFCURVE",
"418 -131.333 OFFCURVE",
"418 -178 CURVE SMOOTH",
"418 -224.667 OFFCURVE",
"445 -250 OFFCURVE",
"485 -250 CURVE SMOOTH"
);
}
);
userData = {
assembly = "NPUSHB[ ]\011/* 39 values pushed */
49 43 9 6 37 31 25 19 19 31 6 43 4 52 12 53 3 52 28 34 34 46 16 22 22 40 46 15 64 6 9 15 9 70 89 15 18 8 15 
SVTCA[0]\011/* SetFreedomAndProjectionVectorToAxis */
MIAP[1]\011/* MoveIndirectAbsPt */
MIAP[1]\011/* MoveIndirectAbsPt */
CALL[ ]\011/* CallFunction */
SRP1[ ]\011/* SetRefPoint1 */
SVTCA[0]\011/* SetFreedomAndProjectionVectorToAxis */
SHP[1]\011/* ShiftPointByLastPoint */
SMD[ ]\011/* SetMinimumDistance */
RTG[ ]\011/* RoundToGrid */
SRP0[ ]\011/* SetRefPoint0 */
MDRP[11110]\011/* MoveDirectRelPt */
MDRP[01101]\011/* MoveDirectRelPt */
SHP[1]\011/* ShiftPointByLastPoint */
MDAP[1]\011/* MoveDirectAbsPt */
MDRP[01101]\011/* MoveDirectRelPt */
SRP1[ ]\011/* SetRefPoint1 */
SHP[1]\011/* ShiftPointByLastPoint */
MDAP[1]\011/* MoveDirectAbsPt */
MDRP[01101]\011/* MoveDirectRelPt */
SRP1[ ]\011/* SetRefPoint1 */
SVTCA[1]\011/* SetFreedomAndProjectionVectorToAxis */
SHP[1]\011/* ShiftPointByLastPoint */
SRP1[ ]\011/* SetRefPoint1 */
SHP[1]\011/* ShiftPointByLastPoint */
SRP2[ ]\011/* SetRefPoint2 */
SLOOP[ ]\011/* SetLoopVariable */
IP[ ]\011/* InterpolatePts */
SRP1[ ]\011/* SetRefPoint1 */
SHP[1]\011/* ShiftPointByLastPoint */
SRP1[ ]\011/* SetRefPoint1 */
SHP[1]\011/* ShiftPointByLastPoint */
SRP1[ ]\011/* SetRefPoint1 */
SHP[1]\011/* ShiftPointByLastPoint */
SRP1[ ]\011/* SetRefPoint1 */
SHP[1]\011/* ShiftPointByLastPoint */
IUP[1]\011/* InterpolateUntPts */
IUP[0]\011/* InterpolateUntPts */";
};
width = 601;
},
{
anchors = (
{
name = bottom;
position = "{322, -264}";
},
{
name = top;
position = "{404, 557}";
}
);
layerId = "15908E2C-AB74-4DC1-B0E7-8741EE8F4DA5";
paths = (
{
closed = 1;
nodes = (
"606 0 LINE SMOOTH",
"609.333 0 OFFCURVE",
"611 1.667 OFFCURVE",
"611 5 CURVE SMOOTH",
"611 74 LINE SMOOTH",
"611 76.667 OFFCURVE",
"609.333 78 OFFCURVE",
"606 78 CURVE SMOOTH",
"456 78 LINE",
"456 485 LINE",
"367 485 LINE",
"367 78 LINE",
"-5 78 LINE SMOOTH",
"-8.333 78 OFFCURVE",
"-10 76.667 OFFCURVE",
"-10 74 CURVE SMOOTH",
"-10 5 LINE SMOOTH",
"-10 1.667 OFFCURVE",
"-8.333 0 OFFCURVE",
"-5 0 CURVE SMOOTH"
);
},
{
closed = 1;
nodes = (
"174 -200 OFFCURVE",
"194 -176 OFFCURVE",
"194 -140 CURVE SMOOTH",
"194 -104 OFFCURVE",
"174 -80 OFFCURVE",
"138 -80 CURVE SMOOTH",
"102 -80 OFFCURVE",
"82 -102.667 OFFCURVE",
"82 -140 CURVE SMOOTH",
"82 -178.667 OFFCURVE",
"103.333 -200 OFFCURVE",
"138 -200 CURVE SMOOTH"
);
},
{
closed = 1;
nodes = (
"352 -200 OFFCURVE",
"372 -176 OFFCURVE",
"372 -140 CURVE SMOOTH",
"372 -104 OFFCURVE",
"352 -80 OFFCURVE",
"316 -80 CURVE SMOOTH",
"281.333 -80 OFFCURVE",
"260 -101.333 OFFCURVE",
"260 -140 CURVE SMOOTH",
"260 -178.667 OFFCURVE",
"281.333 -200 OFFCURVE",
"316 -200 CURVE SMOOTH"
);
},
{
closed = 1;
nodes = (
"525 -200 OFFCURVE",
"545 -176 OFFCURVE",
"545 -140 CURVE SMOOTH",
"545 -104 OFFCURVE",
"525 -80 OFFCURVE",
"489 -80 CURVE SMOOTH",
"453 -80 OFFCURVE",
"433 -102.667 OFFCURVE",
"433 -140 CURVE SMOOTH",
"433 -178.667 OFFCURVE",
"454.333 -200 OFFCURVE",
"489 -200 CURVE SMOOTH"
);
}
);
userData = {
assembly = "NPUSHB[ ]\011/* 39 values pushed */
49 43 9 6 37 31 25 19 19 31 6 43 4 52 12 53 3 52 8 15 40 46 46 22 28 34 34 16 22 0 64 9 5 0 5 70 89 0 18 
SVTCA[0]\011/* SetFreedomAndProjectionVectorToAxis */
MIAP[1]\011/* MoveIndirectAbsPt */
CALL[ ]\011/* CallFunction */
SRP1[ ]\011/* SetRefPoint1 */
SVTCA[0]\011/* SetFreedomAndProjectionVectorToAxis */
SHP[1]\011/* ShiftPointByLastPoint */
SMD[ ]\011/* SetMinimumDistance */
RTG[ ]\011/* RoundToGrid */
SRP0[ ]\011/* SetRefPoint0 */
MDRP[11110]\011/* MoveDirectRelPt */
MDRP[01101]\011/* MoveDirectRelPt */
SHP[1]\011/* ShiftPointByLastPoint */
MDAP[1]\011/* MoveDirectAbsPt */
MDRP[01101]\011/* MoveDirectRelPt */
SRP1[ ]\011/* SetRefPoint1 */
SHP[1]\011/* ShiftPointByLastPoint */
MDAP[1]\011/* MoveDirectAbsPt */
MDRP[01101]\011/* MoveDirectRelPt */
MIAP[1]\011/* MoveIndirectAbsPt */
SRP1[ ]\011/* SetRefPoint1 */
SVTCA[1]\011/* SetFreedomAndProjectionVectorToAxis */
SHP[1]\011/* ShiftPointByLastPoint */
SRP1[ ]\011/* SetRefPoint1 */
SHP[1]\011/* ShiftPointByLastPoint */
SRP2[ ]\011/* SetRefPoint2 */
SLOOP[ ]\011/* SetLoopVariable */
IP[ ]\011/* InterpolatePts */
SRP1[ ]\011/* SetRefPoint1 */
SHP[1]\011/* ShiftPointByLastPoint */
SRP1[ ]\011/* SetRefPoint1 */
SHP[1]\011/* ShiftPointByLastPoint */
SRP1[ ]\011/* SetRefPoint1 */
SHP[1]\011/* ShiftPointByLastPoint */
SRP1[ ]\011/* SetRefPoint1 */
SHP[1]\011/* ShiftPointByLastPoint */
IUP[1]\011/* InterpolateUntPts */
IUP[0]\011/* InterpolateUntPts */";
};
width = 601;
}
);
note = uni0750.medi;
},
{
glyphname = "behThreedotshorizontalbelow-ar.init";
lastChange = "2019-08-29 01:59:26 +0000";
layers = (
{
anchors = (
{
name = bottom;
position = "{264, -293}";
},
{
name = top;
position = "{342, 586}";
}
);
layerId = "307C4A58-79B8-4138-817C-FBEE21722E1A";
paths = (
{
closed = 1;
nodes = (
"516 0 LINE",
"516 485 LINE",
"367 485 LINE",
"367 120 LINE",
"-5 120 LINE SMOOTH",
"-8.333 120 OFFCURVE",
"-10 118.667 OFFCURVE",
"-10 116 CURVE SMOOTH",
"-10 5 LINE SMOOTH",
"-10 1.667 OFFCURVE",
"-8.333 0 OFFCURVE",
"-5 0 CURVE SMOOTH"
);
},
{
closed = 1;
nodes = (
"132 -250 OFFCURVE",
"158 -223.333 OFFCURVE",
"158 -178 CURVE SMOOTH",
"158 -132.667 OFFCURVE",
"133.333 -106 OFFCURVE",
"92 -106 CURVE SMOOTH",
"50.667 -106 OFFCURVE",
"25 -131.333 OFFCURVE",
"25 -178 CURVE SMOOTH",
"25 -224.667 OFFCURVE",
"52 -250 OFFCURVE",
"92 -250 CURVE SMOOTH"
);
},
{
closed = 1;
nodes = (
"302 -250 OFFCURVE",
"328 -223.333 OFFCURVE",
"328 -178 CURVE SMOOTH",
"328 -132.667 OFFCURVE",
"303.333 -106 OFFCURVE",
"262 -106 CURVE SMOOTH",
"220.667 -106 OFFCURVE",
"195 -131.333 OFFCURVE",
"195 -178 CURVE SMOOTH",
"195 -224.667 OFFCURVE",
"222 -250 OFFCURVE",
"262 -250 CURVE SMOOTH"
);
},
{
closed = 1;
nodes = (
"471 -250 OFFCURVE",
"497 -223.333 OFFCURVE",
"497 -178 CURVE SMOOTH",
"497 -132.667 OFFCURVE",
"472.333 -106 OFFCURVE",
"431 -106 CURVE SMOOTH",
"389.667 -106 OFFCURVE",
"364 -131.333 OFFCURVE",
"364 -178 CURVE SMOOTH",
"364 -224.667 OFFCURVE",
"391 -250 OFFCURVE",
"431 -250 CURVE SMOOTH"
);
}
);
userData = {
assembly = "NPUSHB[ ]\011/* 35 values pushed */
6 9 43 37 31 25 19 13 13 25 37 9 4 47 3 46 22 28 28 40 10 16 16 34 40 9 64 9 6 70 89 9 18 8 15 
SVTCA[0]\011/* SetFreedomAndProjectionVectorToAxis */
MIAP[1]\011/* MoveIndirectAbsPt */
MIAP[1]\011/* MoveIndirectAbsPt */
CALL[ ]\011/* CallFunction */
SVTCA[0]\011/* SetFreedomAndProjectionVectorToAxis */
SMD[ ]\011/* SetMinimumDistance */
RTG[ ]\011/* RoundToGrid */
SRP0[ ]\011/* SetRefPoint0 */
MDRP[11110]\011/* MoveDirectRelPt */
MDRP[01101]\011/* MoveDirectRelPt */
SHP[1]\011/* ShiftPointByLastPoint */
MDAP[1]\011/* MoveDirectAbsPt */
MDRP[01101]\011/* MoveDirectRelPt */
SRP1[ ]\011/* SetRefPoint1 */
SHP[1]\011/* ShiftPointByLastPoint */
MDAP[1]\011/* MoveDirectAbsPt */
MDRP[01101]\011/* MoveDirectRelPt */
SRP1[ ]\011/* SetRefPoint1 */
SVTCA[1]\011/* SetFreedomAndProjectionVectorToAxis */
SHP[1]\011/* ShiftPointByLastPoint */
SRP2[ ]\011/* SetRefPoint2 */
SLOOP[ ]\011/* SetLoopVariable */
IP[ ]\011/* InterpolatePts */
SRP1[ ]\011/* SetRefPoint1 */
SHP[1]\011/* ShiftPointByLastPoint */
SRP1[ ]\011/* SetRefPoint1 */
SHP[1]\011/* ShiftPointByLastPoint */
SRP1[ ]\011/* SetRefPoint1 */
SHP[1]\011/* ShiftPointByLastPoint */
SRP1[ ]\011/* SetRefPoint1 */
SHP[1]\011/* ShiftPointByLastPoint */
IUP[1]\011/* InterpolateUntPts */
IUP[0]\011/* InterpolateUntPts */";
};
width = 601;
},
{
anchors = (
{
name = bottom;
position = "{264, -244}";
},
{
name = top;
position = "{391, 537}";
}
);
layerId = "15908E2C-AB74-4DC1-B0E7-8741EE8F4DA5";
paths = (
{
closed = 1;
nodes = (
"516 0 LINE",
"516 485 LINE",
"427 485 LINE",
"427 78 LINE",
"-5 78 LINE SMOOTH",
"-8.333 78 OFFCURVE",
"-10 76.667 OFFCURVE",
"-10 74 CURVE SMOOTH",
"-10 5 LINE SMOOTH",
"-10 1.667 OFFCURVE",
"-8.333 0 OFFCURVE",
"-5 0 CURVE SMOOTH"
);
},
{
closed = 1;
nodes = (
"120 -200 OFFCURVE",
"140 -176 OFFCURVE",
"140 -140 CURVE SMOOTH",
"140 -104 OFFCURVE",
"120 -80 OFFCURVE",
"84 -80 CURVE SMOOTH",
"49.333 -80 OFFCURVE",
"28 -102.667 OFFCURVE",
"28 -140 CURVE SMOOTH",
"28 -178.667 OFFCURVE",
"49.333 -200 OFFCURVE",
"84 -200 CURVE SMOOTH"
);
},
{
closed = 1;
nodes = (
"298 -200 OFFCURVE",
"318 -176 OFFCURVE",
"318 -140 CURVE SMOOTH",
"318 -104 OFFCURVE",
"298 -80 OFFCURVE",
"262 -80 CURVE SMOOTH",
"227.333 -80 OFFCURVE",
"206 -101.333 OFFCURVE",
"206 -140 CURVE SMOOTH",
"206 -178.667 OFFCURVE",
"227.333 -200 OFFCURVE",
"262 -200 CURVE SMOOTH"
);
},
{
closed = 1;
nodes = (
"471 -200 OFFCURVE",
"491 -176 OFFCURVE",
"491 -140 CURVE SMOOTH",
"491 -104 OFFCURVE",
"471 -80 OFFCURVE",
"435 -80 CURVE SMOOTH",
"400.333 -80 OFFCURVE",
"379 -102.667 OFFCURVE",
"379 -140 CURVE SMOOTH",
"379 -178.667 OFFCURVE",
"400.333 -200 OFFCURVE",
"435 -200 CURVE SMOOTH"
);
}
);
userData = {
assembly = "NPUSHB[ ]\011/* 35 values pushed */
19 13 31 25 43 37 6 9 9 37 25 13 4 47 3 46 7 15 34 40 40 16 22 28 28 10 16 0 64 0 5 70 89 0 18 
SVTCA[0]\011/* SetFreedomAndProjectionVectorToAxis */
MIAP[1]\011/* MoveIndirectAbsPt */
CALL[ ]\011/* CallFunction */
SVTCA[0]\011/* SetFreedomAndProjectionVectorToAxis */
SMD[ ]\011/* SetMinimumDistance */
RTG[ ]\011/* RoundToGrid */
SRP0[ ]\011/* SetRefPoint0 */
MDRP[11110]\011/* MoveDirectRelPt */
MDRP[01101]\011/* MoveDirectRelPt */
SHP[1]\011/* ShiftPointByLastPoint */
MDAP[1]\011/* MoveDirectAbsPt */
MDRP[01101]\011/* MoveDirectRelPt */
SRP1[ ]\011/* SetRefPoint1 */
SHP[1]\011/* ShiftPointByLastPoint */
MDAP[1]\011/* MoveDirectAbsPt */
MDRP[01101]\011/* MoveDirectRelPt */
MIAP[1]\011/* MoveIndirectAbsPt */
SRP1[ ]\011/* SetRefPoint1 */
SVTCA[1]\011/* SetFreedomAndProjectionVectorToAxis */
SHP[1]\011/* ShiftPointByLastPoint */
SRP2[ ]\011/* SetRefPoint2 */
SLOOP[ ]\011/* SetLoopVariable */
IP[ ]\011/* InterpolatePts */
SRP1[ ]\011/* SetRefPoint1 */
SHP[1]\011/* ShiftPointByLastPoint */
SRP1[ ]\011/* SetRefPoint1 */
SHP[1]\011/* ShiftPointByLastPoint */
SRP1[ ]\011/* SetRefPoint1 */
SHP[1]\011/* ShiftPointByLastPoint */
SRP1[ ]\011/* SetRefPoint1 */
SHP[1]\011/* ShiftPointByLastPoint */
IUP[1]\011/* InterpolateUntPts */
IUP[0]\011/* InterpolateUntPts */";
};
width = 601;
}
);
note = uni0750.init;
},
{
glyphname = "hah-ar";
lastChange = "2019-08-29 02:40:34 +0000";
layers = (
{
anchors = (
{
name = bottom;
position = "{195, -366}";
},
{
name = center;
position = "{342, 445}";
},
{
name = top;
position = "{244, 586}";
}
);
layerId = "307C4A58-79B8-4138-817C-FBEE21722E1A";
paths = (
{
closed = 1;
nodes = (
"337.667 -326 OFFCURVE",
"402.333 -314.667 OFFCURVE",
"467 -292 CURVE",
"450 -183 LINE",
"396.667 -197 OFFCURVE",
"347.667 -204 OFFCURVE",
"303 -204 CURVE SMOOTH",
"237.667 -204 OFFCURVE",
"191 -166 OFFCURVE",
"191 -110 CURVE SMOOTH",
"191 -49 OFFCURVE",
"226 -5 OFFCURVE",
"291.5 28.5 CURVE SMOOTH",
"323.833 44.833 OFFCURVE",
"380.333 63.333 OFFCURVE",
"461 84 CURVE",
"482.333 54 OFFCURVE",
"509.333 26 OFFCURVE",
"542 0 CURVE",
"618 98 LINE",
"563.333 139.333 OFFCURVE",
"536.667 186.667 OFFCURVE",
"514 312 CURVE SMOOTH",
"492 440.667 OFFCURVE",
"414.667 505 OFFCURVE",
"282 505 CURVE SMOOTH",
"203.333 505 OFFCURVE",
"113 483.667 OFFCURVE",
"49 449 CURVE",
"102 339 LINE",
"158 369.667 OFFCURVE",
"207.667 385 OFFCURVE",
"251 385 CURVE SMOOTH",
"323 385 OFFCURVE",
"365 346.667 OFFCURVE",
"385 268 CURVE SMOOTH",
"391 245.333 OFFCURVE",
"399 218.333 OFFCURVE",
"409 187 CURVE",
"263.667 147 OFFCURVE",
"182.667 107 OFFCURVE",
"128 59 CURVE SMOOTH",
"73.333 11 OFFCURVE",
"45 -47.333 OFFCURVE",
"45 -118 CURVE SMOOTH",
"45 -243.333 OFFCURVE",
"135.667 -326 OFFCURVE",
"273 -326 CURVE SMOOTH"
);
}
);
userData = {
assembly = "NPUSHB[ ]\011/* 34 values pushed */
27 8 31 3 3 16 8 37 24 5 40 39 27 8 8 19 25 18 15 19 19 13 70 89 19 16 36 0 0 34 70 89 0 28 
SVTCA[0]\011/* SetFreedomAndProjectionVectorToAxis */
MIAP[1]\011/* MoveIndirectAbsPt */
CALL[ ]\011/* CallFunction */
SRP1[ ]\011/* SetRefPoint1 */
SVTCA[0]\011/* SetFreedomAndProjectionVectorToAxis */
SHP[1]\011/* ShiftPointByLastPoint */
RTG[ ]\011/* RoundToGrid */
MIAP[1]\011/* MoveIndirectAbsPt */
CALL[ ]\011/* CallFunction */
SRP1[ ]\011/* SetRefPoint1 */
SVTCA[0]\011/* SetFreedomAndProjectionVectorToAxis */
SHP[1]\011/* ShiftPointByLastPoint */
RTG[ ]\011/* RoundToGrid */
MIAP[1]\011/* MoveIndirectAbsPt */
SRP2[ ]\011/* SetRefPoint2 */
IP[ ]\011/* InterpolatePts */
MDAP[1]\011/* MoveDirectAbsPt */
SHP[1]\011/* ShiftPointByLastPoint */
SRP1[ ]\011/* SetRefPoint1 */
SRP2[ ]\011/* SetRefPoint2 */
SVTCA[1]\011/* SetFreedomAndProjectionVectorToAxis */
SLOOP[ ]\011/* SetLoopVariable */
IP[ ]\011/* InterpolatePts */
SRP1[ ]\011/* SetRefPoint1 */
SHP[1]\011/* ShiftPointByLastPoint */
SRP1[ ]\011/* SetRefPoint1 */
SHP[1]\011/* ShiftPointByLastPoint */
IUP[1]\011/* InterpolateUntPts */
IUP[0]\011/* InterpolateUntPts */";
};
width = 683;
},
{
anchors = (
{
name = bottom;
position = "{195, -366}";
},
{
name = center;
position = "{322, 445}";
},
{
name = top;
position = "{195, 566}";
}
);
layerId = "15908E2C-AB74-4DC1-B0E7-8741EE8F4DA5";
paths = (
{
closed = 1;
nodes = (
"306.333 -321 OFFCURVE",
"352.333 -317 OFFCURVE",
"447 -297 CURVE",
"436 -228 LINE",
"371.333 -238.667 OFFCURVE",
"322.333 -244 OFFCURVE",
"289 -244 CURVE SMOOTH",
"183.667 -244 OFFCURVE",
"136 -205.333 OFFCURVE",
"136 -120 CURVE SMOOTH",
"136 -74 OFFCURVE",
"159.833 -33.333 OFFCURVE",
"207.5 2 CURVE SMOOTH",
"255.167 37.333 OFFCURVE",
"335 70 OFFCURVE",
"447 100 CURVE",
"465.667 65.333 OFFCURVE",
"490 41.333 OFFCURVE",
"526 12 CURVE",
"579 81 LINE",
"525.667 117 OFFCURVE",
"496 180 OFFCURVE",
"480 284 CURVE SMOOTH",
"458 424.667 OFFCURVE",
"383.333 495 OFFCURVE",
"256 495 CURVE SMOOTH",
"181.333 495 OFFCURVE",
"95.667 469.333 OFFCURVE",
"45 436 CURVE",
"80 367 LINE",
"132 395 OFFCURVE",
"207 417 OFFCURVE",
"255 417 CURVE SMOOTH",
"336.333 417 OFFCURVE",
"383.667 366.333 OFFCURVE",
"401 261 CURVE SMOOTH",
"408.333 218.333 OFFCURVE",
"414.667 188.333 OFFCURVE",
"420 171 CURVE",
"226.667 113.667 OFFCURVE",
"130.167 58.667 OFFCURVE",
"81.5 -12 CURVE SMOOTH",
"57.167 -47.333 OFFCURVE",
"45 -86 OFFCURVE",
"45 -128 CURVE SMOOTH",
"45 -250.667 OFFCURVE",
"123.667 -321 OFFCURVE",
"253 -321 CURVE SMOOTH"
);
}
);
userData = {
assembly = "NPUSHB[ ]\011/* 37 values pushed */
6 18 3 22 12 22 18 31 39 5 40 41 22 3 70 89 0 22 0 22 15 30 34 34 27 70 89 34 16 11 15 15 9 70 89 15 28 
SVTCA[0]\011/* SetFreedomAndProjectionVectorToAxis */
MIAP[1]\011/* MoveIndirectAbsPt */
CALL[ ]\011/* CallFunction */
SRP1[ ]\011/* SetRefPoint1 */
SVTCA[0]\011/* SetFreedomAndProjectionVectorToAxis */
SHP[1]\011/* ShiftPointByLastPoint */
RTG[ ]\011/* RoundToGrid */
MIAP[1]\011/* MoveIndirectAbsPt */
CALL[ ]\011/* CallFunction */
SRP1[ ]\011/* SetRefPoint1 */
SVTCA[0]\011/* SetFreedomAndProjectionVectorToAxis */
SHP[1]\011/* ShiftPointByLastPoint */
SRP2[ ]\011/* SetRefPoint2 */
IP[ ]\011/* InterpolatePts */
IP[ ]\011/* InterpolatePts */
RTG[ ]\011/* RoundToGrid */
MDAP[1]\011/* MoveDirectAbsPt */
MDAP[1]\011/* MoveDirectAbsPt */
CALL[ ]\011/* CallFunction */
SRP1[ ]\011/* SetRefPoint1 */
SRP2[ ]\011/* SetRefPoint2 */
SVTCA[1]\011/* SetFreedomAndProjectionVectorToAxis */
SLOOP[ ]\011/* SetLoopVariable */
IP[ ]\011/* InterpolatePts */
SRP1[ ]\011/* SetRefPoint1 */
SHP[1]\011/* ShiftPointByLastPoint */
SRP1[ ]\011/* SetRefPoint1 */
SHP[1]\011/* ShiftPointByLastPoint */
IUP[1]\011/* InterpolateUntPts */
IUP[0]\011/* InterpolateUntPts */";
};
width = 644;
}
);
note = uni062D;
unicode = 062D;
},
{
glyphname = "hah-ar.fina";
lastChange = "2019-08-29 20:55:18 +0000";
layers = (
{
anchors = (
{
name = bottom;
position = "{195, -366}";
},
{
name = center;
position = "{323, 445}";
},
{
name = top;
position = "{244, 586}";
}
);
layerId = "307C4A58-79B8-4138-817C-FBEE21722E1A";
paths = (
{
closed = 1;
nodes = (
"650 0 LINE SMOOTH",
"653.333 0 OFFCURVE",
"655 1.667 OFFCURVE",
"655 5 CURVE SMOOTH",
"655 116 LINE SMOOTH",
"655 118.667 OFFCURVE",
"653.333 120 OFFCURVE",
"650 120 CURVE SMOOTH",
"644 120 LINE SMOOTH",
"608 120 OFFCURVE",
"576 147 OFFCURVE",
"551 195 CURVE SMOOTH",
"535 226 OFFCURVE",
"522 265 OFFCURVE",
"514 312 CURVE SMOOTH",
"492 440.667 OFFCURVE",
"414.667 505 OFFCURVE",
"282 505 CURVE SMOOTH",
"203.333 505 OFFCURVE",
"113 483.667 OFFCURVE",
"49 449 CURVE",
"102 339 LINE",
"158 369.667 OFFCURVE",
"207.667 385 OFFCURVE",
"251 385 CURVE SMOOTH",
"323 385 OFFCURVE",
"363.667 348 OFFCURVE",
"385 268 CURVE SMOOTH",
"392.333 240.667 OFFCURVE",
"400.667 213.667 OFFCURVE",
"410 187 CURVE",
"262 147 OFFCURVE",
"183.667 108 OFFCURVE",
"129 60 CURVE SMOOTH",
"74.333 12 OFFCURVE",
"45 -47.333 OFFCURVE",
"45 -118 CURVE SMOOTH",
"45 -243.333 OFFCURVE",
"135.667 -326 OFFCURVE",
"273 -326 CURVE SMOOTH",
"337.667 -326 OFFCURVE",
"402.333 -314.667 OFFCURVE",
"467 -292 CURVE",
"450 -183 LINE",
"397 -197 OFFCURVE",
"348 -204 OFFCURVE",
"303 -204 CURVE SMOOTH",
"237.667 -204 OFFCURVE",
"191 -166 OFFCURVE",
"191 -110 CURVE SMOOTH",
"191 -49 OFFCURVE",
"226 -5 OFFCURVE",
"291.5 28.5 CURVE SMOOTH",
"323.833 44.833 OFFCURVE",
"380.333 63.333 OFFCURVE",
"461 84 CURVE",
"500 27 OFFCURVE",
"552 0 OFFCURVE",
"644 0 CURVE SMOOTH"
);
}
);
userData = {
assembly = "NPUSHB[ ]\011/* 38 values pushed */
7 18 3 23 13 23 31 18 4 46 42 47 3 23 23 0 30 34 34 28 70 89 34 16 12 15 15 10 70 89 15 28 0 41 70 89 0 18 
SVTCA[0]\011/* SetFreedomAndProjectionVectorToAxis */
MIAP[1]\011/* MoveIndirectAbsPt */
CALL[ ]\011/* CallFunction */
SVTCA[0]\011/* SetFreedomAndProjectionVectorToAxis */
RTG[ ]\011/* RoundToGrid */
MIAP[1]\011/* MoveIndirectAbsPt */
CALL[ ]\011/* CallFunction */
SRP1[ ]\011/* SetRefPoint1 */
SVTCA[0]\011/* SetFreedomAndProjectionVectorToAxis */
SHP[1]\011/* ShiftPointByLastPoint */
RTG[ ]\011/* RoundToGrid */
MIAP[1]\011/* MoveIndirectAbsPt */
CALL[ ]\011/* CallFunction */
SRP1[ ]\011/* SetRefPoint1 */
SVTCA[0]\011/* SetFreedomAndProjectionVectorToAxis */
SHP[1]\011/* ShiftPointByLastPoint */
SRP2[ ]\011/* SetRefPoint2 */
IP[ ]\011/* InterpolatePts */
RTG[ ]\011/* RoundToGrid */
MDAP[1]\011/* MoveDirectAbsPt */
SHP[1]\011/* ShiftPointByLastPoint */
SRP1[ ]\011/* SetRefPoint1 */
SVTCA[1]\011/* SetFreedomAndProjectionVectorToAxis */
SHP[1]\011/* ShiftPointByLastPoint */
SRP2[ ]\011/* SetRefPoint2 */
SLOOP[ ]\011/* SetLoopVariable */
IP[ ]\011/* InterpolatePts */
SRP1[ ]\011/* SetRefPoint1 */
SHP[1]\011/* ShiftPointByLastPoint */
SRP1[ ]\011/* SetRefPoint1 */
SHP[1]\011/* ShiftPointByLastPoint */
IUP[1]\011/* InterpolateUntPts */
IUP[0]\011/* InterpolateUntPts */";
};
width = 645;
},
{
anchors = (
{
name = bottom;
position = "{195, -366}";
},
{
name = center;
position = "{307, 445}";
},
{
name = top;
position = "{195, 566}";
}
);
layerId = "15908E2C-AB74-4DC1-B0E7-8741EE8F4DA5";
paths = (
{
closed = 1;
nodes = (
"619 0 LINE SMOOTH",
"622.333 0 OFFCURVE",
"624 1.667 OFFCURVE",
"624 5 CURVE SMOOTH",
"624 74 LINE SMOOTH",
"624 76.667 OFFCURVE",
"622.333 78 OFFCURVE",
"619 78 CURVE SMOOTH",
"614 78 LINE SMOOTH",
"562 78 OFFCURVE",
"531 102.833 OFFCURVE",
"511 151.5 CURVE SMOOTH",
"501 175.833 OFFCURVE",
"490.667 220 OFFCURVE",
"480 284 CURVE SMOOTH",
"458 424.667 OFFCURVE",
"383.333 495 OFFCURVE",
"256 495 CURVE SMOOTH",
"181.333 495 OFFCURVE",
"95.667 469.333 OFFCURVE",
"45 436 CURVE",
"80 367 LINE",
"132 395 OFFCURVE",
"207 417 OFFCURVE",
"255 417 CURVE SMOOTH",
"336.333 417 OFFCURVE",
"383.667 366.333 OFFCURVE",
"401 261 CURVE SMOOTH",
"407 223.667 OFFCURVE",
"413.667 193.667 OFFCURVE",
"421 171 CURVE",
"233 116.333 OFFCURVE",
"132.5 59.667 OFFCURVE",
"82.5 -11 CURVE SMOOTH",
"57.5 -46.333 OFFCURVE",
"45 -85.333 OFFCURVE",
"45 -128 CURVE SMOOTH",
"45 -250.667 OFFCURVE",
"123.667 -321 OFFCURVE",
"253 -321 CURVE SMOOTH",
"306.333 -321 OFFCURVE",
"352.333 -317 OFFCURVE",
"447 -297 CURVE",
"436 -228 LINE",
"371.333 -238.667 OFFCURVE",
"322.333 -244 OFFCURVE",
"289 -244 CURVE SMOOTH",
"183.667 -244 OFFCURVE",
"136 -205.333 OFFCURVE",
"136 -120 CURVE SMOOTH",
"136 -60 OFFCURVE",
"176 -8.833 OFFCURVE",
"264 34.5 CURVE SMOOTH",
"308 56.167 OFFCURVE",
"369.667 78 OFFCURVE",
"449 100 CURVE",
"487.667 29.333 OFFCURVE",
"540.667 0 OFFCURVE",
"614 0 CURVE SMOOTH"
);
}
);
userData = {
assembly = "NPUSHB[ ]\011/* 42 values pushed */
39 3 35 7 45 7 16 3 4 48 28 49 7 35 70 89 7 7 32 19 32 25 70 89 32 18 15 19 19 12 70 89 19 16 44 0 0 42 70 89 0 28 
SVTCA[0]\011/* SetFreedomAndProjectionVectorToAxis */
MIAP[1]\011/* MoveIndirectAbsPt */
CALL[ ]\011/* CallFunction */
SRP1[ ]\011/* SetRefPoint1 */
SVTCA[0]\011/* SetFreedomAndProjectionVectorToAxis */
SHP[1]\011/* ShiftPointByLastPoint */
RTG[ ]\011/* RoundToGrid */
MIAP[1]\011/* MoveIndirectAbsPt */
CALL[ ]\011/* CallFunction */
SRP1[ ]\011/* SetRefPoint1 */
SVTCA[0]\011/* SetFreedomAndProjectionVectorToAxis */
SHP[1]\011/* ShiftPointByLastPoint */
RTG[ ]\011/* RoundToGrid */
MIAP[1]\011/* MoveIndirectAbsPt */
CALL[ ]\011/* CallFunction */
SRP1[ ]\011/* SetRefPoint1 */
SRP2[ ]\011/* SetRefPoint2 */
SVTCA[0]\011/* SetFreedomAndProjectionVectorToAxis */
IP[ ]\011/* InterpolatePts */
RTG[ ]\011/* RoundToGrid */
MDAP[1]\011/* MoveDirectAbsPt */
CALL[ ]\011/* CallFunction */
SRP1[ ]\011/* SetRefPoint1 */
SVTCA[1]\011/* SetFreedomAndProjectionVectorToAxis */
SHP[1]\011/* ShiftPointByLastPoint */
SRP2[ ]\011/* SetRefPoint2 */
SLOOP[ ]\011/* SetLoopVariable */
IP[ ]\011/* InterpolatePts */
SRP1[ ]\011/* SetRefPoint1 */
SHP[1]\011/* ShiftPointByLastPoint */
SRP1[ ]\011/* SetRefPoint1 */
SHP[1]\011/* ShiftPointByLastPoint */
IUP[1]\011/* InterpolateUntPts */
IUP[0]\011/* InterpolateUntPts */";
};
width = 614;
}
);
note = uni062D.fina;
},
{
glyphname = "hah-ar.medi";
lastChange = "2019-08-29 01:59:26 +0000";
layers = (
{
anchors = (
{
name = bottom;
position = "{244, -78}";
},
{
name = top;
position = "{205, 586}";
}
);
layerId = "307C4A58-79B8-4138-817C-FBEE21722E1A";
paths = (
{
closed = 1;
nodes = (
"613 0 LINE SMOOTH",
"616.333 0 OFFCURVE",
"618 1.667 OFFCURVE",
"618 5 CURVE SMOOTH",
"618 116 LINE SMOOTH",
"618 118.667 OFFCURVE",
"616.333 120 OFFCURVE",
"613 120 CURVE SMOOTH",
"548 120 LINE",
"518.667 148.667 OFFCURVE",
"495.333 212.667 OFFCURVE",
"478 312 CURVE SMOOTH",
"461 411 OFFCURVE",
"419 467 OFFCURVE",
"347 491 CURVE SMOOTH",
"319 501 OFFCURVE",
"286 505 OFFCURVE",
"249 505 CURVE SMOOTH",
"169 505 OFFCURVE",
"99 489 OFFCURVE",
"40 457 CURVE",
"85 347 LINE",
"133 373.667 OFFCURVE",
"171.333 385 OFFCURVE",
"218 385 CURVE SMOOTH",
"288.667 385 OFFCURVE",
"319.333 353.667 OFFCURVE",
"338 263 CURVE SMOOTH",
"352 192.333 OFFCURVE",
"372.333 144.667 OFFCURVE",
"399 120 CURVE",
"-5 120 LINE SMOOTH",
"-8.333 120 OFFCURVE",
"-10 118.667 OFFCURVE",
"-10 116 CURVE SMOOTH",
"-10 5 LINE SMOOTH",
"-10 1.667 OFFCURVE",
"-8.333 0 OFFCURVE",
"-5 0 CURVE SMOOTH"
);
}
);
userData = {
assembly = "NPUSHB[ ]\011/* 25 values pushed */
6 22 22 15 29 25 30 3 29 14 17 17 11 70 89 17 16 22 5 0 5 70 89 0 18 
SVTCA[0]\011/* SetFreedomAndProjectionVectorToAxis */
MIAP[1]\011/* MoveIndirectAbsPt */
CALL[ ]\011/* CallFunction */
SRP1[ ]\011/* SetRefPoint1 */
SVTCA[0]\011/* SetFreedomAndProjectionVectorToAxis */
SHP[1]\011/* ShiftPointByLastPoint */
RTG[ ]\011/* RoundToGrid */
MIAP[1]\011/* MoveIndirectAbsPt */
CALL[ ]\011/* CallFunction */
SRP1[ ]\011/* SetRefPoint1 */
SVTCA[0]\011/* SetFreedomAndProjectionVectorToAxis */
SHP[1]\011/* ShiftPointByLastPoint */
SRP1[ ]\011/* SetRefPoint1 */
SVTCA[1]\011/* SetFreedomAndProjectionVectorToAxis */
SHP[1]\011/* ShiftPointByLastPoint */
SRP1[ ]\011/* SetRefPoint1 */
SHP[1]\011/* ShiftPointByLastPoint */
SRP2[ ]\011/* SetRefPoint2 */
IP[ ]\011/* InterpolatePts */
IP[ ]\011/* InterpolatePts */
SRP1[ ]\011/* SetRefPoint1 */
SHP[1]\011/* ShiftPointByLastPoint */
IUP[1]\011/* InterpolateUntPts */
IUP[0]\011/* InterpolateUntPts */";
};
width = 608;
},
{
anchors = (
{
name = bottom;
position = "{244, -78}";
},
{
name = top;
position = "{205, 576}";
}
);
layerId = "15908E2C-AB74-4DC1-B0E7-8741EE8F4DA5";
paths = (
{
closed = 1;
nodes = (
"579 0 LINE SMOOTH",
"582.333 0 OFFCURVE",
"584 1.667 OFFCURVE",
"584 5 CURVE SMOOTH",
"584 74 LINE SMOOTH",
"584 76.667 OFFCURVE",
"582.333 78 OFFCURVE",
"579 78 CURVE SMOOTH",
"512 78 LINE",
"479.333 110.667 OFFCURVE",
"455.333 179.333 OFFCURVE",
"440 284 CURVE SMOOTH",
"422.667 392 OFFCURVE",
"392.667 443.667 OFFCURVE",
"338 473 CURVE SMOOTH",
"310.667 487.667 OFFCURVE",
"276.667 495 OFFCURVE",
"236 495 CURVE SMOOTH",
"169.333 495 OFFCURVE",
"112.333 483.333 OFFCURVE",
"55 446 CURVE",
"90 377 LINE",
"141 404 OFFCURVE",
"189 417 OFFCURVE",
"235 417 CURVE SMOOTH",
"308.333 417 OFFCURVE",
"342.333 374.333 OFFCURVE",
"361 261 CURVE SMOOTH",
"377 165 OFFCURVE",
"398 104 OFFCURVE",
"424 78 CURVE",
"-5 78 LINE SMOOTH",
"-8.333 78 OFFCURVE",
"-10 76.667 OFFCURVE",
"-10 74 CURVE SMOOTH",
"-10 5 LINE SMOOTH",
"-10 1.667 OFFCURVE",
"-8.333 0 OFFCURVE",
"-5 0 CURVE SMOOTH"
);
}
);
userData = {
assembly = "NPUSHB[ ]\011/* 25 values pushed */
6 23 23 14 30 26 31 4 30 13 17 17 11 70 89 17 16 23 5 0 5 70 89 0 18 
SVTCA[0]\011/* SetFreedomAndProjectionVectorToAxis */
MIAP[1]\011/* MoveIndirectAbsPt */
CALL[ ]\011/* CallFunction */
SRP1[ ]\011/* SetRefPoint1 */
SVTCA[0]\011/* SetFreedomAndProjectionVectorToAxis */
SHP[1]\011/* ShiftPointByLastPoint */
RTG[ ]\011/* RoundToGrid */
MIAP[1]\011/* MoveIndirectAbsPt */
CALL[ ]\011/* CallFunction */
SRP1[ ]\011/* SetRefPoint1 */
SVTCA[0]\011/* SetFreedomAndProjectionVectorToAxis */
SHP[1]\011/* ShiftPointByLastPoint */
SRP1[ ]\011/* SetRefPoint1 */
SVTCA[1]\011/* SetFreedomAndProjectionVectorToAxis */
SHP[1]\011/* ShiftPointByLastPoint */
SRP1[ ]\011/* SetRefPoint1 */
SHP[1]\011/* ShiftPointByLastPoint */
SRP2[ ]\011/* SetRefPoint2 */
IP[ ]\011/* InterpolatePts */
IP[ ]\011/* InterpolatePts */
SRP1[ ]\011/* SetRefPoint1 */
SHP[1]\011/* ShiftPointByLastPoint */
IUP[1]\011/* InterpolateUntPts */
IUP[0]\011/* InterpolateUntPts */";
};
width = 574;
}
);
note = uni062D.medi;
},
{
glyphname = "hah-ar.init";
lastChange = "2019-08-29 01:59:26 +0000";
layers = (
{
anchors = (
{
name = bottom;
position = "{244, -78}";
},
{
name = top;
position = "{205, 586}";
}
);
layerId = "307C4A58-79B8-4138-817C-FBEE21722E1A";
paths = (
{
closed = 1;
nodes = (
"548 0 LINE",
"548 120 LINE",
"518.667 148.667 OFFCURVE",
"495.333 212.667 OFFCURVE",
"478 312 CURVE SMOOTH",
"460 413 OFFCURVE",
"417 469 OFFCURVE",
"343 493 CURVE SMOOTH",
"316 501 OFFCURVE",
"285 505 OFFCURVE",
"249 505 CURVE SMOOTH",
"169 505 OFFCURVE",
"99.333 489 OFFCURVE",
"40 457 CURVE",
"85 347 LINE",
"133 373.667 OFFCURVE",
"171.333 385 OFFCURVE",
"218 385 CURVE SMOOTH",
"288.667 385 OFFCURVE",
"319.333 353.667 OFFCURVE",
"338 263 CURVE SMOOTH",
"352 191.667 OFFCURVE",
"372 144.333 OFFCURVE",
"398 121 CURVE",
"-5 120 LINE SMOOTH",
"-8.333 120 OFFCURVE",
"-10 118.667 OFFCURVE",
"-10 116 CURVE SMOOTH",
"-10 5 LINE SMOOTH",
"-10 1.667 OFFCURVE",
"-8.333 0 OFFCURVE",
"-5 0 CURVE SMOOTH"
);
}
);
userData = {
assembly = "NPUSHB[ ]\011/* 23 values pushed */
6 24 24 16 26 3 25 15 18 18 12 70 89 18 16 23 5 0 5 70 89 0 18 
SVTCA[0]\011/* SetFreedomAndProjectionVectorToAxis */
MIAP[1]\011/* MoveIndirectAbsPt */
CALL[ ]\011/* CallFunction */
SRP1[ ]\011/* SetRefPoint1 */
SVTCA[0]\011/* SetFreedomAndProjectionVectorToAxis */
SHP[1]\011/* ShiftPointByLastPoint */
RTG[ ]\011/* RoundToGrid */
MIAP[1]\011/* MoveIndirectAbsPt */
CALL[ ]\011/* CallFunction */
SRP1[ ]\011/* SetRefPoint1 */
SVTCA[0]\011/* SetFreedomAndProjectionVectorToAxis */
SHP[1]\011/* ShiftPointByLastPoint */
SRP1[ ]\011/* SetRefPoint1 */
SVTCA[1]\011/* SetFreedomAndProjectionVectorToAxis */
SHP[1]\011/* ShiftPointByLastPoint */
SRP2[ ]\011/* SetRefPoint2 */
IP[ ]\011/* InterpolatePts */
IP[ ]\011/* InterpolatePts */
SRP1[ ]\011/* SetRefPoint1 */
SHP[1]\011/* ShiftPointByLastPoint */
IUP[1]\011/* InterpolateUntPts */
IUP[0]\011/* InterpolateUntPts */";
};
width = 613;
},
{
anchors = (
{
name = bottom;
position = "{244, -78}";
},
{
name = top;
position = "{205, 576}";
}
);
layerId = "15908E2C-AB74-4DC1-B0E7-8741EE8F4DA5";
paths = (
{
closed = 1;
nodes = (
"515 0 LINE",
"515 76 LINE",
"483 105.333 OFFCURVE",
"460 165.333 OFFCURVE",
"440 284 CURVE SMOOTH",
"422.667 392 OFFCURVE",
"392.667 443.667 OFFCURVE",
"338 473 CURVE SMOOTH",
"310.667 487.667 OFFCURVE",
"276.667 495 OFFCURVE",
"236 495 CURVE SMOOTH",
"169.333 495 OFFCURVE",
"112.333 483.333 OFFCURVE",
"55 446 CURVE",
"90 377 LINE",
"140.667 403.667 OFFCURVE",
"189 417 OFFCURVE",
"235 417 CURVE SMOOTH",
"309.667 417 OFFCURVE",
"341 377 OFFCURVE",
"361 261 CURVE SMOOTH",
"378.333 163.667 OFFCURVE",
"399.333 102.667 OFFCURVE",
"424 78 CURVE",
"-5 78 LINE SMOOTH",
"-8.333 78 OFFCURVE",
"-10 76.667 OFFCURVE",
"-10 74 CURVE SMOOTH",
"-10 5 LINE SMOOTH",
"-10 1.667 OFFCURVE",
"-8.333 0 OFFCURVE",
"-5 0 CURVE SMOOTH"
);
}
);
userData = {
assembly = "NPUSHB[ ]\011/* 23 values pushed */
6 25 25 14 27 0 26 13 17 17 11 70 89 17 16 24 5 0 5 70 89 0 18 
SVTCA[0]\011/* SetFreedomAndProjectionVectorToAxis */
MIAP[1]\011/* MoveIndirectAbsPt */
CALL[ ]\011/* CallFunction */
SRP1[ ]\011/* SetRefPoint1 */
SVTCA[0]\011/* SetFreedomAndProjectionVectorToAxis */
SHP[1]\011/* ShiftPointByLastPoint */
RTG[ ]\011/* RoundToGrid */
MIAP[1]\011/* MoveIndirectAbsPt */
CALL[ ]\011/* CallFunction */
SRP1[ ]\011/* SetRefPoint1 */
SVTCA[0]\011/* SetFreedomAndProjectionVectorToAxis */
SHP[1]\011/* ShiftPointByLastPoint */
SRP1[ ]\011/* SetRefPoint1 */
SVTCA[1]\011/* SetFreedomAndProjectionVectorToAxis */
SHP[1]\011/* ShiftPointByLastPoint */
SRP2[ ]\011/* SetRefPoint2 */
IP[ ]\011/* InterpolatePts */
IP[ ]\011/* InterpolatePts */
SRP1[ ]\011/* SetRefPoint1 */
SHP[1]\011/* ShiftPointByLastPoint */
IUP[1]\011/* InterpolateUntPts */
IUP[0]\011/* InterpolateUntPts */";
};
width = 580;
}
);
note = uni062D.init;
},
{
glyphname = "dal-ar";
lastChange = "2019-08-29 01:59:26 +0000";
layers = (
{
anchors = (
{
name = bottom;
position = "{220, -78}";
},
{
name = top;
position = "{146, 635}";
}
);
layerId = "307C4A58-79B8-4138-817C-FBEE21722E1A";
paths = (
{
closed = 1;
nodes = (
"45 0 LINE",
"530 0 LINE",
"530 116 LINE",
"482 358.667 OFFCURVE",
"376.667 504 OFFCURVE",
"198 576 CURVE",
"142 436 LINE",
"230 400 OFFCURVE",
"289.167 345 OFFCURVE",
"328.5 269 CURVE SMOOTH",
"348.167 231 OFFCURVE",
"365 181.333 OFFCURVE",
"379 120 CURVE",
"45 120 LINE"
);
}
);
userData = {
assembly = "NPUSHB[ ]\011/* 17 values pushed */
1 10 10 5 0 3 12 13 9 0 11 0 70 89 6 11 18 
SVTCA[0]\011/* SetFreedomAndProjectionVectorToAxis */
MIAP[1]\011/* MoveIndirectAbsPt */
MDRP[00100]\011/* MoveDirectRelPt */
CALL[ ]\011/* CallFunction */
SRP1[ ]\011/* SetRefPoint1 */
SVTCA[0]\011/* SetFreedomAndProjectionVectorToAxis */
SHP[1]\011/* ShiftPointByLastPoint */
SRP1[ ]\011/* SetRefPoint1 */
SRP2[ ]\011/* SetRefPoint2 */
SVTCA[1]\011/* SetFreedomAndProjectionVectorToAxis */
SLOOP[ ]\011/* SetLoopVariable */
IP[ ]\011/* InterpolatePts */
SRP1[ ]\011/* SetRefPoint1 */
SHP[1]\011/* ShiftPointByLastPoint */
IUP[1]\011/* InterpolateUntPts */
IUP[0]\011/* InterpolateUntPts */";
};
width = 595;
},
{
anchors = (
{
name = bottom;
position = "{220, -78}";
},
{
name = top;
position = "{171, 586}";
}
);
layerId = "15908E2C-AB74-4DC1-B0E7-8741EE8F4DA5";
paths = (
{
closed = 1;
nodes = (
"45 0 LINE",
"464 0 LINE",
"464 76 LINE",
"429.333 308 OFFCURVE",
"331.333 466 OFFCURVE",
"178 546 CURVE",
"146 470 LINE",
"244 404 OFFCURVE",
"307 322 OFFCURVE",
"345 215 CURVE SMOOTH",
"360 173 OFFCURVE",
"371 128 OFFCURVE",
"378 78 CURVE",
"45 78 LINE"
);
}
);
userData = {
assembly = "NPUSHB[ ]\011/* 20 values pushed */
1 9 9 4 0 3 11 12 10 0 70 89 10 18 5 4 70 89 5 16 
SVTCA[0]\011/* SetFreedomAndProjectionVectorToAxis */
MIAP[1]\011/* MoveIndirectAbsPt */
CALL[ ]\011/* CallFunction */
SVTCA[0]\011/* SetFreedomAndProjectionVectorToAxis */
RTG[ ]\011/* RoundToGrid */
MIAP[1]\011/* MoveIndirectAbsPt */
CALL[ ]\011/* CallFunction */
SRP1[ ]\011/* SetRefPoint1 */
SRP2[ ]\011/* SetRefPoint2 */
SVTCA[1]\011/* SetFreedomAndProjectionVectorToAxis */
SLOOP[ ]\011/* SetLoopVariable */
IP[ ]\011/* InterpolatePts */
SRP1[ ]\011/* SetRefPoint1 */
SHP[1]\011/* ShiftPointByLastPoint */
IUP[1]\011/* InterpolateUntPts */
IUP[0]\011/* InterpolateUntPts */";
};
width = 509;
}
);
note = uni062F;
unicode = 062F;
},
{
glyphname = "dal-ar.fina";
lastChange = "2019-08-29 01:59:26 +0000";
layers = (
{
anchors = (
{
name = bottom;
position = "{220, -78}";
},
{
name = top;
position = "{146, 635}";
}
);
layerId = "307C4A58-79B8-4138-817C-FBEE21722E1A";
paths = (
{
closed = 1;
nodes = (
"45 0 LINE",
"660 0 LINE SMOOTH",
"663.333 0 OFFCURVE",
"665 1.667 OFFCURVE",
"665 5 CURVE SMOOTH",
"665 116 LINE SMOOTH",
"665 118.667 OFFCURVE",
"663.333 120 OFFCURVE",
"660 120 CURVE SMOOTH",
"529 120 LINE",
"478.333 364 OFFCURVE",
"374 505.333 OFFCURVE",
"198 576 CURVE",
"142 436 LINE",
"230 400 OFFCURVE",
"289.167 345 OFFCURVE",
"328.5 269 CURVE SMOOTH",
"348.167 231 OFFCURVE",
"365 181.333 OFFCURVE",
"379 120 CURVE",
"45 120 LINE"
);
}
);
userData = {
assembly = "NPUSHB[ ]\011/* 19 values pushed */
1 9 9 5 0 3 17 12 18 9 0 16 0 70 89 16 18 5 6 
SVTCA[0]\011/* SetFreedomAndProjectionVectorToAxis */
MDAP[1]\011/* MoveDirectAbsPt */
SHP[1]\011/* ShiftPointByLastPoint */
MIAP[1]\011/* MoveIndirectAbsPt */
CALL[ ]\011/* CallFunction */
SRP1[ ]\011/* SetRefPoint1 */
SVTCA[0]\011/* SetFreedomAndProjectionVectorToAxis */
SHP[1]\011/* ShiftPointByLastPoint */
SRP1[ ]\011/* SetRefPoint1 */
SVTCA[1]\011/* SetFreedomAndProjectionVectorToAxis */
SHP[1]\011/* ShiftPointByLastPoint */
SRP2[ ]\011/* SetRefPoint2 */
SLOOP[ ]\011/* SetLoopVariable */
IP[ ]\011/* InterpolatePts */
SRP1[ ]\011/* SetRefPoint1 */
SHP[1]\011/* ShiftPointByLastPoint */
IUP[1]\011/* InterpolateUntPts */
IUP[0]\011/* InterpolateUntPts */";
};
width = 655;
},
{
anchors = (
{
name = bottom;
position = "{220, -78}";
},
{
name = top;
position = "{171, 586}";
}
);
layerId = "15908E2C-AB74-4DC1-B0E7-8741EE8F4DA5";
paths = (
{
closed = 1;
nodes = (
"45 0 LINE",
"574 0 LINE SMOOTH",
"577.333 0 OFFCURVE",
"579 1.667 OFFCURVE",
"579 5 CURVE SMOOTH",
"579 74 LINE SMOOTH",
"579 76.667 OFFCURVE",
"577.333 78 OFFCURVE",
"574 78 CURVE SMOOTH",
"463 78 LINE",
"429.667 306 OFFCURVE",
"331.333 464.667 OFFCURVE",
"178 546 CURVE",
"146 470 LINE",
"234 410 OFFCURVE",
"294 338 OFFCURVE",
"333 246 CURVE SMOOTH",
"354 197 OFFCURVE",
"369 141 OFFCURVE",
"378 78 CURVE",
"45 78 LINE"
);
}
);
userData = {
assembly = "NPUSHB[ ]\011/* 19 values pushed */
1 8 8 4 0 3 16 12 17 8 0 15 0 70 89 15 18 4 5 
SVTCA[0]\011/* SetFreedomAndProjectionVectorToAxis */
MDAP[1]\011/* MoveDirectAbsPt */
SHP[1]\011/* ShiftPointByLastPoint */
MIAP[1]\011/* MoveIndirectAbsPt */
CALL[ ]\011/* CallFunction */
SRP1[ ]\011/* SetRefPoint1 */
SVTCA[0]\011/* SetFreedomAndProjectionVectorToAxis */
SHP[1]\011/* ShiftPointByLastPoint */
SRP1[ ]\011/* SetRefPoint1 */
SVTCA[1]\011/* SetFreedomAndProjectionVectorToAxis */
SHP[1]\011/* ShiftPointByLastPoint */
SRP2[ ]\011/* SetRefPoint2 */
SLOOP[ ]\011/* SetLoopVariable */
IP[ ]\011/* InterpolatePts */
SRP1[ ]\011/* SetRefPoint1 */
SHP[1]\011/* ShiftPointByLastPoint */
IUP[1]\011/* InterpolateUntPts */
IUP[0]\011/* InterpolateUntPts */";
};
width = 569;
}
);
note = uni062F.fina;
},
{
glyphname = "reh-ar";
lastChange = "2019-08-29 01:59:26 +0000";
layers = (
{
anchors = (
{
name = bottom;
position = "{98, -293}";
},
{
name = top;
position = "{205, 566}";
}
);
layerId = "307C4A58-79B8-4138-817C-FBEE21722E1A";
paths = (
{
closed = 1;
nodes = (
"270.667 -240 OFFCURVE",
"353 -153.333 OFFCURVE",
"353 -16 CURVE SMOOTH",
"353 495 LINE",
"204 495 LINE",
"204 -9 LINE SMOOTH",
"204 -70.333 OFFCURVE",
"168.333 -116 OFFCURVE",
"115 -116 CURVE SMOOTH",
"77.667 -116 OFFCURVE",
"54.667 -109.667 OFFCURVE",
"20 -87 CURVE",
"-40 -184 LINE",
"22.667 -226.667 OFFCURVE",
"76 -240 OFFCURVE",
"144 -240 CURVE SMOOTH"
);
}
);
userData = {
assembly = "NPUSHB[ ]\011/* 14 values pushed */
13 10 10 17 3 16 11 15 0 7 71 89 0 27 
SVTCA[0]\011/* SetFreedomAndProjectionVectorToAxis */
MIAP[1]\011/* MoveIndirectAbsPt */
CALL[ ]\011/* CallFunction */
SVTCA[0]\011/* SetFreedomAndProjectionVectorToAxis */
RTG[ ]\011/* RoundToGrid */
MIAP[1]\011/* MoveIndirectAbsPt */
SRP1[ ]\011/* SetRefPoint1 */
SVTCA[1]\011/* SetFreedomAndProjectionVectorToAxis */
SHP[1]\011/* ShiftPointByLastPoint */
SRP2[ ]\011/* SetRefPoint2 */
IP[ ]\011/* InterpolatePts */
SRP1[ ]\011/* SetRefPoint1 */
SHP[1]\011/* ShiftPointByLastPoint */
IUP[1]\011/* InterpolateUntPts */
IUP[0]\011/* InterpolateUntPts */";
};
width = 438;
},
{
anchors = (
{
name = bottom;
position = "{98, -293}";
},
{
name = top;
position = "{176, 547}";
}
);
layerId = "15908E2C-AB74-4DC1-B0E7-8741EE8F4DA5";
paths = (
{
closed = 1;
nodes = (
"176.667 -240 OFFCURVE",
"240 -158.667 OFFCURVE",
"240 -24 CURVE SMOOTH",
"240 485 LINE",
"156 485 LINE",
"156 -29 LINE SMOOTH",
"156 -109 OFFCURVE",
"120 -162 OFFCURVE",
"60 -162 CURVE SMOOTH",
"36 -162 OFFCURVE",
"18 -159.667 OFFCURVE",
"-14 -145 CURVE",
"-40 -212 LINE",
"-4 -230.667 OFFCURVE",
"30 -240 OFFCURVE",
"62 -240 CURVE SMOOTH"
);
}
);
userData = {
assembly = "NPUSHB[ ]\011/* 14 values pushed */
9 12 12 16 2 15 10 15 0 6 70 89 0 27 
SVTCA[0]\011/* SetFreedomAndProjectionVectorToAxis */
MIAP[1]\011/* MoveIndirectAbsPt */
CALL[ ]\011/* CallFunction */
SVTCA[0]\011/* SetFreedomAndProjectionVectorToAxis */
RTG[ ]\011/* RoundToGrid */
MIAP[1]\011/* MoveIndirectAbsPt */
SRP1[ ]\011/* SetRefPoint1 */
SVTCA[1]\011/* SetFreedomAndProjectionVectorToAxis */
SHP[1]\011/* ShiftPointByLastPoint */
SRP2[ ]\011/* SetRefPoint2 */
IP[ ]\011/* InterpolatePts */
SRP1[ ]\011/* SetRefPoint1 */
SHP[1]\011/* ShiftPointByLastPoint */
IUP[1]\011/* InterpolateUntPts */
IUP[0]\011/* InterpolateUntPts */";
};
width = 325;
}
);
note = uni0631;
unicode = 0631;
},
{
glyphname = "reh-ar.fina";
lastChange = "2019-09-01 03:12:02 +0000";
layers = (
{
anchors = (
{
name = bottom;
position = "{98, -293}";
},
{
name = top;
position = "{207, 563}";
}
);
layerId = "307C4A58-79B8-4138-817C-FBEE21722E1A";
paths = (
{
closed = 1;
nodes = (
"483 0 LINE SMOOTH",
"486.333 0 OFFCURVE",
"488 1.667 OFFCURVE",
"488 5 CURVE SMOOTH",
"488 116 LINE SMOOTH",
"488 118.667 OFFCURVE",
"486.333 120 OFFCURVE",
"483 120 CURVE SMOOTH",
"353 120 LINE",
"353 495 LINE",
"204 495 LINE",
"204 -9 LINE SMOOTH",
"204 -70.333 OFFCURVE",
"168.333 -116 OFFCURVE",
"115 -116 CURVE SMOOTH",
"77.667 -116 OFFCURVE",
"54.667 -109.667 OFFCURVE",
"20 -87 CURVE",
"-40 -184 LINE",
"22.667 -226.667 OFFCURVE",
"76 -240 OFFCURVE",
"144 -240 CURVE SMOOTH",
"270.667 -240 OFFCURVE",
"353 -153.333 OFFCURVE",
"353 -16 CURVE SMOOTH",
"353 0 LINE"
);
}
);
userData = {
assembly = "NPUSHB[ ]\011/* 24 values pushed */
23 7 7 20 20 24 0 25 13 24 21 15 10 17 71 89 10 27 6 23 70 89 6 18 
SVTCA[0]\011/* SetFreedomAndProjectionVectorToAxis */
MIAP[1]\011/* MoveIndirectAbsPt */
CALL[ ]\011/* CallFunction */
SVTCA[0]\011/* SetFreedomAndProjectionVectorToAxis */
RTG[ ]\011/* RoundToGrid */
MIAP[1]\011/* MoveIndirectAbsPt */
CALL[ ]\011/* CallFunction */
SVTCA[0]\011/* SetFreedomAndProjectionVectorToAxis */
RTG[ ]\011/* RoundToGrid */
MIAP[1]\011/* MoveIndirectAbsPt */
SRP1[ ]\011/* SetRefPoint1 */
SVTCA[1]\011/* SetFreedomAndProjectionVectorToAxis */
SHP[1]\011/* ShiftPointByLastPoint */
SRP1[ ]\011/* SetRefPoint1 */
SHP[1]\011/* ShiftPointByLastPoint */
SRP2[ ]\011/* SetRefPoint2 */
IP[ ]\011/* InterpolatePts */
SRP1[ ]\011/* SetRefPoint1 */
SHP[1]\011/* ShiftPointByLastPoint */
SRP1[ ]\011/* SetRefPoint1 */
SHP[1]\011/* ShiftPointByLastPoint */
IUP[1]\011/* InterpolateUntPts */
IUP[0]\011/* InterpolateUntPts */";
};
width = 478;
},
{
anchors = (
{
name = bottom;
position = "{98, -293}";
},
{
name = top;
position = "{176, 547}";
}
);
layerId = "15908E2C-AB74-4DC1-B0E7-8741EE8F4DA5";
paths = (
{
closed = 1;
nodes = (
"364 0 LINE SMOOTH",
"367.333 0 OFFCURVE",
"369 1.667 OFFCURVE",
"369 5 CURVE SMOOTH",
"369 74 LINE SMOOTH",
"369 76.667 OFFCURVE",
"367.333 78 OFFCURVE",
"364 78 CURVE SMOOTH",
"240 78 LINE",
"240 485 LINE",
"156 485 LINE",
"156 -29 LINE SMOOTH",
"156 -109 OFFCURVE",
"120 -162 OFFCURVE",
"60 -162 CURVE SMOOTH",
"36 -162 OFFCURVE",
"18 -159.667 OFFCURVE",
"-14 -145 CURVE",
"-40 -212 LINE",
"-4 -230.667 OFFCURVE",
"30 -240 OFFCURVE",
"62 -240 CURVE SMOOTH",
"176.667 -240 OFFCURVE",
"240 -158.667 OFFCURVE",
"240 -24 CURVE SMOOTH",
"240 0 LINE"
);
}
);
userData = {
assembly = "NPUSHB[ ]\011/* 24 values pushed */
16 1 1 13 13 23 19 24 6 23 14 15 4 10 70 89 4 27 0 16 70 89 0 18 
SVTCA[0]\011/* SetFreedomAndProjectionVectorToAxis */
MIAP[1]\011/* MoveIndirectAbsPt */
CALL[ ]\011/* CallFunction */
SVTCA[0]\011/* SetFreedomAndProjectionVectorToAxis */
RTG[ ]\011/* RoundToGrid */
MIAP[1]\011/* MoveIndirectAbsPt */
CALL[ ]\011/* CallFunction */
SVTCA[0]\011/* SetFreedomAndProjectionVectorToAxis */
RTG[ ]\011/* RoundToGrid */
MIAP[1]\011/* MoveIndirectAbsPt */
SRP1[ ]\011/* SetRefPoint1 */
SVTCA[1]\011/* SetFreedomAndProjectionVectorToAxis */
SHP[1]\011/* ShiftPointByLastPoint */
SRP1[ ]\011/* SetRefPoint1 */
SHP[1]\011/* ShiftPointByLastPoint */
SRP2[ ]\011/* SetRefPoint2 */
IP[ ]\011/* InterpolatePts */
SRP1[ ]\011/* SetRefPoint1 */
SHP[1]\011/* ShiftPointByLastPoint */
SRP1[ ]\011/* SetRefPoint1 */
SHP[1]\011/* ShiftPointByLastPoint */
IUP[1]\011/* InterpolateUntPts */
IUP[0]\011/* InterpolateUntPts */";
};
width = 359;
}
);
note = uni0631.fina;
},
{
glyphname = "rehStroke-ar";
lastChange = "2019-08-29 01:59:26 +0000";
layers = (
{
anchors = (
{
name = bottom;
position = "{98, -391}";
},
{
name = top;
position = "{205, 566}";
}
);
layerId = "307C4A58-79B8-4138-817C-FBEE21722E1A";
paths = (
{
closed = 1;
nodes = (
"34 -148 LINE",
"139 -148 LINE",
"116.333 -185.333 OFFCURVE",
"84.333 -221.667 OFFCURVE",
"43 -257 CURVE",
"133 -360 LINE",
"223.667 -281.333 OFFCURVE",
"271 -216 OFFCURVE",
"299 -148 CURVE",
"386 -148 LINE",
"386 -51 LINE",
"323 -51 LINE",
"324 -39 OFFCURVE",
"324 -28 OFFCURVE",
"325 -16 CURVE",
"325 495 LINE",
"176 495 LINE",
"176 -18 LINE SMOOTH",
"176 -29.333 OFFCURVE",
"175 -40.333 OFFCURVE",
"173 -51 CURVE",
"34 -51 LINE"
);
}
);
userData = {
assembly = "NPUSHB[ ]\011/* 25 values pushed */
10 6 6 16 3 0 14 3 9 4 19 18 10 7 7 16 0 1 1 1 1 5 13 5 15 
SVTCA[0]\011/* SetFreedomAndProjectionVectorToAxis */
MIAP[1]\011/* MoveIndirectAbsPt */
MDAP[1]\011/* MoveDirectAbsPt */
SRP2[ ]\011/* SetRefPoint2 */
IP[ ]\011/* InterpolatePts */
MDAP[1]\011/* MoveDirectAbsPt */
DELTAP1[ ]\011/* DeltaExceptionP1 */
MDRP[01101]\011/* MoveDirectRelPt */
SHP[1]\011/* ShiftPointByLastPoint */
MDAP[1]\011/* MoveDirectAbsPt */
MDRP[01101]\011/* MoveDirectRelPt */
SRP1[ ]\011/* SetRefPoint1 */
SRP2[ ]\011/* SetRefPoint2 */
SVTCA[1]\011/* SetFreedomAndProjectionVectorToAxis */
SLOOP[ ]\011/* SetLoopVariable */
IP[ ]\011/* InterpolatePts */
SRP1[ ]\011/* SetRefPoint1 */
SHP[1]\011/* ShiftPointByLastPoint */
SHP[1]\011/* ShiftPointByLastPoint */
SRP1[ ]\011/* SetRefPoint1 */
SHP[1]\011/* ShiftPointByLastPoint */
IUP[1]\011/* InterpolateUntPts */
IUP[0]\011/* InterpolateUntPts */";
};
width = 438;
},
{
anchors = (
{
name = bottom;
position = "{98, -361}";
},
{
name = top;
position = "{176, 547}";
}
);
layerId = "15908E2C-AB74-4DC1-B0E7-8741EE8F4DA5";
paths = (
{
closed = 1;
nodes = (
"34 -148 LINE",
"147 -148 LINE",
"127.667 -179.333 OFFCURVE",
"93 -215.667 OFFCURVE",
"43 -257 CURVE",
"98 -320 LINE",
"166 -258.667 OFFCURVE",
"212.667 -206.667 OFFCURVE",
"238 -148 CURVE",
"316 -148 LINE",
"316 -91 LINE",
"256 -91 LINE",
"258.667 -79 OFFCURVE",
"260 -63.333 OFFCURVE",
"260 -44 CURVE SMOOTH",
"260 485 LINE",
"175 485 LINE",
"176 -49 LINE SMOOTH",
"176 -63 OFFCURVE",
"174.333 -77 OFFCURVE",
"171 -91 CURVE",
"34 -91 LINE"
);
}
);
userData = {
assembly = "NPUSHB[ ]\011/* 28 values pushed */
6 3 9 3 17 15 0 5 19 20 8 11 72 89 8 8 1 1 17 72 89 1 1 5 14 28 5 15 
SVTCA[0]\011/* SetFreedomAndProjectionVectorToAxis */
MIAP[1]\011/* MoveIndirectAbsPt */
MIAP[1]\011/* MoveIndirectAbsPt */
SRP2[ ]\011/* SetRefPoint2 */
IP[ ]\011/* InterpolatePts */
MDAP[1]\011/* MoveDirectAbsPt */
CALL[ ]\011/* CallFunction */
SRP1[ ]\011/* SetRefPoint1 */
SVTCA[0]\011/* SetFreedomAndProjectionVectorToAxis */
SHP[1]\011/* ShiftPointByLastPoint */
RTG[ ]\011/* RoundToGrid */
MDAP[1]\011/* MoveDirectAbsPt */
CALL[ ]\011/* CallFunction */
SRP1[ ]\011/* SetRefPoint1 */
SRP2[ ]\011/* SetRefPoint2 */
SVTCA[1]\011/* SetFreedomAndProjectionVectorToAxis */
SLOOP[ ]\011/* SetLoopVariable */
IP[ ]\011/* InterpolatePts */
SRP1[ ]\011/* SetRefPoint1 */
SHP[1]\011/* ShiftPointByLastPoint */
IUP[1]\011/* InterpolateUntPts */
IUP[0]\011/* InterpolateUntPts */";
};
width = 325;
}
);
note = uni075B;
unicode = 075B;
},
{
glyphname = "rehStroke-ar.fina";
lastChange = "2019-08-29 01:59:26 +0000";
layers = (
{
anchors = (
{
name = bottom;
position = "{127, -391}";
},
{
name = top;
position = "{205, 566}";
}
);
layerId = "307C4A58-79B8-4138-817C-FBEE21722E1A";
paths = (
{
closed = 1;
nodes = (
"353 495 LINE",
"204 495 LINE",
"204 -18 LINE SMOOTH",
"204 -29.333 OFFCURVE",
"203 -40.333 OFFCURVE",
"201 -51 CURVE",
"62 -51 LINE",
"62 -148 LINE",
"167 -148 LINE",
"145.667 -184.667 OFFCURVE",
"113.667 -221 OFFCURVE",
"71 -257 CURVE",
"161 -360 LINE",
"246.333 -286.667 OFFCURVE",
"297.667 -220 OFFCURVE",
"327 -148 CURVE",
"414 -148 LINE",
"414 -51 LINE",
"351 -51 LINE",
"352 -39 OFFCURVE",
"352 -28 OFFCURVE",
"353 -16 CURVE",
"353 0 LINE",
"483 0 LINE SMOOTH",
"486.333 0 OFFCURVE",
"488 1.667 OFFCURVE",
"488 5 CURVE SMOOTH",
"488 116 LINE SMOOTH",
"488 118.667 OFFCURVE",
"486.333 120 OFFCURVE",
"483 120 CURVE SMOOTH",
"353 120 LINE"
);
}
);
userData = {
assembly = "NPUSHB[ ]\011/* 36 values pushed */
12 0 7 7 18 23 11 23 16 20 4 26 3 27 25 15 12 9 9 18 64 0 21 1 9 3 21 21 7 15 7 0 70 89 7 18 
SVTCA[0]\011/* SetFreedomAndProjectionVectorToAxis */
MIAP[1]\011/* MoveIndirectAbsPt */
CALL[ ]\011/* CallFunction */
SVTCA[0]\011/* SetFreedomAndProjectionVectorToAxis */
RTG[ ]\011/* RoundToGrid */
MDAP[1]\011/* MoveDirectAbsPt */
SRP2[ ]\011/* SetRefPoint2 */
IP[ ]\011/* InterpolatePts */
MDAP[1]\011/* MoveDirectAbsPt */
SDS[ ]\011/* SetDeltaShiftInGState */
SDB[ ]\011/* SetDeltaBaseInGState */
DELTAP1[ ]\011/* DeltaExceptionP1 */
SMD[ ]\011/* SetMinimumDistance */
MDRP[01101]\011/* MoveDirectRelPt */
SHP[1]\011/* ShiftPointByLastPoint */
MDAP[1]\011/* MoveDirectAbsPt */
MDRP[01101]\011/* MoveDirectRelPt */
MIAP[1]\011/* MoveIndirectAbsPt */
SRP1[ ]\011/* SetRefPoint1 */
SVTCA[1]\011/* SetFreedomAndProjectionVectorToAxis */
SHP[1]\011/* ShiftPointByLastPoint */
SRP2[ ]\011/* SetRefPoint2 */
SLOOP[ ]\011/* SetLoopVariable */
IP[ ]\011/* InterpolatePts */
SRP1[ ]\011/* SetRefPoint1 */
SHP[1]\011/* ShiftPointByLastPoint */
SHP[1]\011/* ShiftPointByLastPoint */
SRP1[ ]\011/* SetRefPoint1 */
SHP[1]\011/* ShiftPointByLastPoint */
SHP[1]\011/* ShiftPointByLastPoint */
IUP[1]\011/* InterpolateUntPts */
IUP[0]\011/* InterpolateUntPts */";
};
width = 478;
},
{
anchors = (
{
name = bottom;
position = "{98, -361}";
},
{
name = top;
position = "{176, 547}";
}
);
layerId = "15908E2C-AB74-4DC1-B0E7-8741EE8F4DA5";
paths = (
{
closed = 1;
nodes = (
"240 485 LINE",
"155 485 LINE",
"156 -49 LINE SMOOTH",
"156 -63 OFFCURVE",
"154.333 -77 OFFCURVE",
"151 -91 CURVE",
"14 -91 LINE",
"14 -148 LINE",
"127 -148 LINE",
"107.667 -179.333 OFFCURVE",
"73 -215.667 OFFCURVE",
"23 -257 CURVE",
"78 -320 LINE",
"146 -258.667 OFFCURVE",
"192.667 -206.667 OFFCURVE",
"218 -148 CURVE",
"296 -148 LINE",
"296 -91 LINE",
"236 -91 LINE",
"238.667 -76.333 OFFCURVE",
"240 -60.667 OFFCURVE",
"240 -44 CURVE SMOOTH",
"240 0 LINE",
"364 0 LINE SMOOTH",
"367.333 0 OFFCURVE",
"369 1.667 OFFCURVE",
"369 5 CURVE SMOOTH",
"369 74 LINE SMOOTH",
"369 76.667 OFFCURVE",
"367.333 78 OFFCURVE",
"364 78 CURVE SMOOTH",
"240 78 LINE"
);
}
);
userData = {
assembly = "NPUSHB[ ]\011/* 37 values pushed */
2 9 9 26 13 26 21 19 23 5 27 5 28 23 22 72 89 23 23 13 13 14 72 89 13 13 9 18 28 9 2 70 89 9 18 1 15 
SVTCA[0]\011/* SetFreedomAndProjectionVectorToAxis */
MIAP[1]\011/* MoveIndirectAbsPt */
MIAP[1]\011/* MoveIndirectAbsPt */
CALL[ ]\011/* CallFunction */
SVTCA[0]\011/* SetFreedomAndProjectionVectorToAxis */
RTG[ ]\011/* RoundToGrid */
MIAP[1]\011/* MoveIndirectAbsPt */
SRP2[ ]\011/* SetRefPoint2 */
IP[ ]\011/* InterpolatePts */
MDAP[1]\011/* MoveDirectAbsPt */
CALL[ ]\011/* CallFunction */
SRP1[ ]\011/* SetRefPoint1 */
SVTCA[0]\011/* SetFreedomAndProjectionVectorToAxis */
SHP[1]\011/* ShiftPointByLastPoint */
RTG[ ]\011/* RoundToGrid */
MDAP[1]\011/* MoveDirectAbsPt */
CALL[ ]\011/* CallFunction */
SRP1[ ]\011/* SetRefPoint1 */
SVTCA[1]\011/* SetFreedomAndProjectionVectorToAxis */
SHP[1]\011/* ShiftPointByLastPoint */
SRP2[ ]\011/* SetRefPoint2 */
SLOOP[ ]\011/* SetLoopVariable */
IP[ ]\011/* InterpolatePts */
SRP1[ ]\011/* SetRefPoint1 */
SHP[1]\011/* ShiftPointByLastPoint */
SRP1[ ]\011/* SetRefPoint1 */
SHP[1]\011/* ShiftPointByLastPoint */
IUP[1]\011/* InterpolateUntPts */
IUP[0]\011/* InterpolateUntPts */";
};
width = 359;
}
);
note = uni075B.fina;
},
{
glyphname = "seen-ar";
lastChange = "2019-09-07 20:12:31 +0000";
layers = (
{
anchors = (
{
name = bottom;
position = "{879, -78}";
},
{
name = top;
position = "{869, 537}";
}
);
layerId = "307C4A58-79B8-4138-817C-FBEE21722E1A";
paths = (
{
closed = 1;
nodes = (
"1326 0 LINE",
"1326 495 LINE",
"1177 495 LINE",
"1177 120 LINE",
"1115 120 LINE SMOOTH",
"1064.333 120 OFFCURVE",
"1036.333 135 OFFCURVE",
"1003 179 CURVE",
"1005 193 OFFCURVE",
"1006 208 OFFCURVE",
"1006 224 CURVE SMOOTH",
"1006 417 LINE",
"857 417 LINE",
"857 236 LINE SMOOTH",
"857 156 OFFCURVE",
"827.667 120 OFFCURVE",
"761 120 CURVE SMOOTH",
"676 120 LINE",
"676 417 LINE",
"527 417 LINE",
"527 39 LINE SMOOTH",
"527 -62.333 OFFCURVE",
"479.667 -120 OFFCURVE",
"377 -120 CURVE SMOOTH",
"347 -120 LINE SMOOTH",
"267 -120 OFFCURVE",
"214 -58.333 OFFCURVE",
"214 39 CURVE SMOOTH",
"214 107 OFFCURVE",
"226.667 190.333 OFFCURVE",
"248 261 CURVE",
"116 261 LINE",
"84 198.333 OFFCURVE",
"65 116 OFFCURVE",
"65 40 CURVE SMOOTH",
"65 -126 OFFCURVE",
"166 -240 OFFCURVE",
"337 -240 CURVE SMOOTH",
"381 -240 LINE SMOOTH",
"565 -240 OFFCURVE",
"663 -160 OFFCURVE",
"675 0 CURVE",
"794 0 LINE SMOOTH",
"868 0 OFFCURVE",
"923.667 25 OFFCURVE",
"961 75 CURVE",
"1009 25 OFFCURVE",
"1061.333 0 OFFCURVE",
"1118 0 CURVE SMOOTH"
);
}
);
userData = {
assembly = "NPUSHB[ ]\011/* 43 values pushed */
12 15 18 6 3 45 21 42 35 28 28 42 3 15 4 47 46 24 38 70 89 24 27 11 45 21 45 70 89 4 43 18 21 31 43 31 43 13 16 21 18 13 15 
SVTCA[0]\011/* SetFreedomAndProjectionVectorToAxis */
MIAP[1]\011/* MoveIndirectAbsPt */
MIAP[1]\011/* MoveIndirectAbsPt */
SHP[1]\011/* ShiftPointByLastPoint */
SRP2[ ]\011/* SetRefPoint2 */
IP[ ]\011/* InterpolatePts */
IP[ ]\011/* InterpolatePts */
MDAP[1]\011/* MoveDirectAbsPt */
MDAP[1]\011/* MoveDirectAbsPt */
SRP2[ ]\011/* SetRefPoint2 */
IP[ ]\011/* InterpolatePts */
SRP1[ ]\011/* SetRefPoint1 */
SHP[1]\011/* ShiftPointByLastPoint */
CALL[ ]\011/* CallFunction */
SRP1[ ]\011/* SetRefPoint1 */
SVTCA[0]\011/* SetFreedomAndProjectionVectorToAxis */
SHP[1]\011/* ShiftPointByLastPoint */
RTG[ ]\011/* RoundToGrid */
MIAP[1]\011/* MoveIndirectAbsPt */
CALL[ ]\011/* CallFunction */
SRP1[ ]\011/* SetRefPoint1 */
SRP2[ ]\011/* SetRefPoint2 */
SVTCA[1]\011/* SetFreedomAndProjectionVectorToAxis */
SLOOP[ ]\011/* SetLoopVariable */
IP[ ]\011/* InterpolatePts */
SRP1[ ]\011/* SetRefPoint1 */
SHP[1]\011/* ShiftPointByLastPoint */
SRP1[ ]\011/* SetRefPoint1 */
SHP[1]\011/* ShiftPointByLastPoint */
SHP[1]\011/* ShiftPointByLastPoint */
SRP1[ ]\011/* SetRefPoint1 */
SHP[1]\011/* ShiftPointByLastPoint */
SHP[1]\011/* ShiftPointByLastPoint */
SRP1[ ]\011/* SetRefPoint1 */
SHP[1]\011/* ShiftPointByLastPoint */
IUP[1]\011/* InterpolateUntPts */
IUP[0]\011/* InterpolateUntPts */";
};
width = 1411;
},
{
anchors = (
{
name = bottom;
position = "{820, -78}";
},
{
name = top;
position = "{820, 488}";
}
);
layerId = "15908E2C-AB74-4DC1-B0E7-8741EE8F4DA5";
paths = (
{
closed = 1;
nodes = (
"1157 0 LINE",
"1157 485 LINE",
"1072 485 LINE",
"1072 78 LINE",
"1011 78 LINE SMOOTH",
"951 78 OFFCURVE",
"914.333 97.333 OFFCURVE",
"881 156 CURVE",
"882 161 OFFCURVE",
"882 167 OFFCURVE",
"882 172 CURVE",
"882 407 LINE",
"797 407 LINE",
"797 194 LINE SMOOTH",
"797 124.667 OFFCURVE",
"759 78 OFFCURVE",
"695 78 CURVE SMOOTH",
"587 78 LINE",
"587 407 LINE",
"502 407 LINE",
"502 -3 LINE SMOOTH",
"502 -109.667 OFFCURVE",
"450 -162 OFFCURVE",
"334 -162 CURVE SMOOTH",
"285 -162 LINE SMOOTH",
"202.333 -162 OFFCURVE",
"155 -97.333 OFFCURVE",
"155 16 CURVE SMOOTH",
"155 116 OFFCURVE",
"166.333 194.667 OFFCURVE",
"189 252 CURVE",
"106 252 LINE",
"79.333 188 OFFCURVE",
"65 98.667 OFFCURVE",
"65 16 CURVE SMOOTH",
"65 -144 OFFCURVE",
"142 -240 OFFCURVE",
"266 -240 CURVE SMOOTH",
"338 -240 LINE SMOOTH",
"510 -240 OFFCURVE",
"587 -157.333 OFFCURVE",
"587 0 CURVE",
"704 0 LINE SMOOTH",
"770.667 0 OFFCURVE",
"819.333 27.667 OFFCURVE",
"850 69 CURVE",
"904.667 17 OFFCURVE",
"951 0 OFFCURVE",
"1011 0 CURVE SMOOTH"
);
}
);
userData = {
assembly = "NPUSHB[ ]\011/* 43 values pushed */
42 45 37 3 34 30 7 7 27 20 14 14 27 34 45 4 47 46 35 28 3 17 28 17 28 7 43 15 11 23 70 89 11 27 41 30 7 30 70 89 0 7 18 
SVTCA[0]\011/* SetFreedomAndProjectionVectorToAxis */
MIAP[1]\011/* MoveIndirectAbsPt */
SHP[1]\011/* ShiftPointByLastPoint */
CALL[ ]\011/* CallFunction */
SRP1[ ]\011/* SetRefPoint1 */
SVTCA[0]\011/* SetFreedomAndProjectionVectorToAxis */
SHP[1]\011/* ShiftPointByLastPoint */
RTG[ ]\011/* RoundToGrid */
MIAP[1]\011/* MoveIndirectAbsPt */
CALL[ ]\011/* CallFunction */
SVTCA[0]\011/* SetFreedomAndProjectionVectorToAxis */
RTG[ ]\011/* RoundToGrid */
MIAP[1]\011/* MoveIndirectAbsPt */
SRP2[ ]\011/* SetRefPoint2 */
IP[ ]\011/* InterpolatePts */
IP[ ]\011/* InterpolatePts */
MDAP[1]\011/* MoveDirectAbsPt */
MDAP[1]\011/* MoveDirectAbsPt */
IP[ ]\011/* InterpolatePts */
SRP1[ ]\011/* SetRefPoint1 */
SHP[1]\011/* ShiftPointByLastPoint */
SRP1[ ]\011/* SetRefPoint1 */
SRP2[ ]\011/* SetRefPoint2 */
SVTCA[1]\011/* SetFreedomAndProjectionVectorToAxis */
SLOOP[ ]\011/* SetLoopVariable */
IP[ ]\011/* InterpolatePts */
SRP1[ ]\011/* SetRefPoint1 */
SHP[1]\011/* ShiftPointByLastPoint */
SRP1[ ]\011/* SetRefPoint1 */
SHP[1]\011/* ShiftPointByLastPoint */
SRP1[ ]\011/* SetRefPoint1 */
SHP[1]\011/* ShiftPointByLastPoint */
SRP1[ ]\011/* SetRefPoint1 */
SHP[1]\011/* ShiftPointByLastPoint */
SHP[1]\011/* ShiftPointByLastPoint */
SRP1[ ]\011/* SetRefPoint1 */
SHP[1]\011/* ShiftPointByLastPoint */
IUP[1]\011/* InterpolateUntPts */
IUP[0]\011/* InterpolateUntPts */";
};
width = 1242;
}
);
note = uni0633;
unicode = 0633;
},
{
glyphname = "seen-ar.fina";
lastChange = "2019-09-07 20:12:31 +0000";
layers = (
{
anchors = (
{
name = bottom;
position = "{879, -78}";
},
{
name = top;
position = "{869, 537}";
}
);
layerId = "307C4A58-79B8-4138-817C-FBEE21722E1A";
paths = (
{
closed = 1;
nodes = (
"1456 0 LINE SMOOTH",
"1459.333 0 OFFCURVE",
"1461 1.667 OFFCURVE",
"1461 5 CURVE SMOOTH",
"1461 116 LINE SMOOTH",
"1461 118.667 OFFCURVE",
"1459.333 120 OFFCURVE",
"1456 120 CURVE SMOOTH",
"1326 120 LINE",
"1326 495 LINE",
"1177 495 LINE",
"1177 120 LINE",
"1115 120 LINE SMOOTH",
"1064.333 120 OFFCURVE",
"1036.333 135 OFFCURVE",
"1003 179 CURVE",
"1005 193 OFFCURVE",
"1006 208 OFFCURVE",
"1006 224 CURVE SMOOTH",
"1006 417 LINE",
"857 417 LINE",
"857 236 LINE SMOOTH",
"857 156 OFFCURVE",
"827.667 120 OFFCURVE",
"761 120 CURVE SMOOTH",
"676 120 LINE",
"676 417 LINE",
"527 417 LINE",
"527 39 LINE SMOOTH",
"527 -62.333 OFFCURVE",
"479.667 -120 OFFCURVE",
"377 -120 CURVE SMOOTH",
"347 -120 LINE SMOOTH",
"267 -120 OFFCURVE",
"214 -58.333 OFFCURVE",
"214 39 CURVE SMOOTH",
"214 107 OFFCURVE",
"226.667 190.333 OFFCURVE",
"248 261 CURVE",
"116 261 LINE",
"84 198.333 OFFCURVE",
"65 116 OFFCURVE",
"65 40 CURVE SMOOTH",
"65 -69.333 OFFCURVE",
"109.5 -158.333 OFFCURVE",
"191.5 -205 CURVE SMOOTH",
"232.5 -228.333 OFFCURVE",
"281 -240 OFFCURVE",
"337 -240 CURVE SMOOTH",
"381 -240 LINE SMOOTH",
"565 -240 OFFCURVE",
"663 -160 OFFCURVE",
"675 0 CURVE",
"794 0 LINE SMOOTH",
"868 0 OFFCURVE",
"923.667 25 OFFCURVE",
"961 75 CURVE",
"1009 25 OFFCURVE",
"1061.333 0 OFFCURVE",
"1118 0 CURVE SMOOTH"
);
}
);
userData = {
assembly = "NPUSHB[ ]\011/* 45 values pushed */
48 51 42 8 39 35 11 11 32 25 18 18 32 39 51 4 52 0 53 40 33 8 21 33 21 33 11 49 15 14 28 70 89 14 27 51 47 35 11 35 70 89 6 11 18 
SVTCA[0]\011/* SetFreedomAndProjectionVectorToAxis */
MIAP[1]\011/* MoveIndirectAbsPt */
SHP[1]\011/* ShiftPointByLastPoint */
CALL[ ]\011/* CallFunction */
SRP1[ ]\011/* SetRefPoint1 */
SVTCA[0]\011/* SetFreedomAndProjectionVectorToAxis */
SHP[1]\011/* ShiftPointByLastPoint */
SHP[1]\011/* ShiftPointByLastPoint */
RTG[ ]\011/* RoundToGrid */
MIAP[1]\011/* MoveIndirectAbsPt */
CALL[ ]\011/* CallFunction */
SVTCA[0]\011/* SetFreedomAndProjectionVectorToAxis */
RTG[ ]\011/* RoundToGrid */
MIAP[1]\011/* MoveIndirectAbsPt */
SRP2[ ]\011/* SetRefPoint2 */
IP[ ]\011/* InterpolatePts */
IP[ ]\011/* InterpolatePts */
MDAP[1]\011/* MoveDirectAbsPt */
MDAP[1]\011/* MoveDirectAbsPt */
IP[ ]\011/* InterpolatePts */
SRP1[ ]\011/* SetRefPoint1 */
SHP[1]\011/* ShiftPointByLastPoint */
SRP1[ ]\011/* SetRefPoint1 */
SVTCA[1]\011/* SetFreedomAndProjectionVectorToAxis */
SHP[1]\011/* ShiftPointByLastPoint */
SRP2[ ]\011/* SetRefPoint2 */
SLOOP[ ]\011/* SetLoopVariable */
IP[ ]\011/* InterpolatePts */
SRP1[ ]\011/* SetRefPoint1 */
SHP[1]\011/* ShiftPointByLastPoint */
SRP1[ ]\011/* SetRefPoint1 */
SHP[1]\011/* ShiftPointByLastPoint */
SRP1[ ]\011/* SetRefPoint1 */
SHP[1]\011/* ShiftPointByLastPoint */
SRP1[ ]\011/* SetRefPoint1 */
SHP[1]\011/* ShiftPointByLastPoint */
SHP[1]\011/* ShiftPointByLastPoint */
SRP1[ ]\011/* SetRefPoint1 */
SHP[1]\011/* ShiftPointByLastPoint */
IUP[1]\011/* InterpolateUntPts */
IUP[0]\011/* InterpolateUntPts */";
};
width = 1451;
},
{
anchors = (
{
name = bottom;
position = "{820, -78}";
},
{
name = top;
position = "{820, 488}";
}
);
layerId = "15908E2C-AB74-4DC1-B0E7-8741EE8F4DA5";
paths = (
{
closed = 1;
nodes = (
"1291 0 LINE SMOOTH",
"1294.333 0 OFFCURVE",
"1296 1.667 OFFCURVE",
"1296 5 CURVE SMOOTH",
"1296 74 LINE SMOOTH",
"1296 76.667 OFFCURVE",
"1294.333 78 OFFCURVE",
"1291 78 CURVE SMOOTH",
"1157 78 LINE",
"1157 485 LINE",
"1072 485 LINE",
"1072 78 LINE",
"1011 78 LINE SMOOTH",
"951 78 OFFCURVE",
"914.333 97.333 OFFCURVE",
"881 156 CURVE",
"881 165 OFFCURVE",
"882 175 OFFCURVE",
"882 190 CURVE",
"882 407 LINE",
"797 407 LINE",
"797 194 LINE SMOOTH",
"797 124.667 OFFCURVE",
"759 78 OFFCURVE",
"695 78 CURVE SMOOTH",
"587 78 LINE",
"587 407 LINE",
"502 407 LINE",
"502 -3 LINE SMOOTH",
"502 -109.667 OFFCURVE",
"450 -162 OFFCURVE",
"334 -162 CURVE SMOOTH",
"285 -162 LINE SMOOTH",
"202.333 -162 OFFCURVE",
"155 -97.333 OFFCURVE",
"155 16 CURVE SMOOTH",
"155 116 OFFCURVE",
"166.333 194.667 OFFCURVE",
"189 252 CURVE",
"106 252 LINE",
"79.333 188 OFFCURVE",
"65 98.667 OFFCURVE",
"65 16 CURVE SMOOTH",
"65 -88 OFFCURVE",
"98 -165 OFFCURVE",
"155 -206 CURVE SMOOTH",
"185 -228 OFFCURVE",
"223 -240 OFFCURVE",
"266 -240 CURVE SMOOTH",
"338 -240 LINE SMOOTH",
"510 -240 OFFCURVE",
"587 -157.333 OFFCURVE",
"587 0 CURVE",
"704 0 LINE SMOOTH",
"770.667 0 OFFCURVE",
"819.333 27.667 OFFCURVE",
"850 69 CURVE",
"904.667 17 OFFCURVE",
"951 0 OFFCURVE",
"1011 0 CURVE SMOOTH"
);
}
);
userData = {
assembly = "NPUSHB[ ]\011/* 45 values pushed */
20 14 30 7 7 27 37 3 34 45 42 42 34 27 14 4 52 48 53 35 28 3 17 28 17 28 7 43 15 11 23 70 89 11 27 45 41 30 7 30 70 89 0 7 18 
SVTCA[0]\011/* SetFreedomAndProjectionVectorToAxis */
MIAP[1]\011/* MoveIndirectAbsPt */
SHP[1]\011/* ShiftPointByLastPoint */
CALL[ ]\011/* CallFunction */
SRP1[ ]\011/* SetRefPoint1 */
SVTCA[0]\011/* SetFreedomAndProjectionVectorToAxis */
SHP[1]\011/* ShiftPointByLastPoint */
SHP[1]\011/* ShiftPointByLastPoint */
RTG[ ]\011/* RoundToGrid */
MIAP[1]\011/* MoveIndirectAbsPt */
CALL[ ]\011/* CallFunction */
SVTCA[0]\011/* SetFreedomAndProjectionVectorToAxis */
RTG[ ]\011/* RoundToGrid */
MIAP[1]\011/* MoveIndirectAbsPt */
SRP2[ ]\011/* SetRefPoint2 */
IP[ ]\011/* InterpolatePts */
IP[ ]\011/* InterpolatePts */
MDAP[1]\011/* MoveDirectAbsPt */
MDAP[1]\011/* MoveDirectAbsPt */
IP[ ]\011/* InterpolatePts */
SRP1[ ]\011/* SetRefPoint1 */
SHP[1]\011/* ShiftPointByLastPoint */
SRP1[ ]\011/* SetRefPoint1 */
SVTCA[1]\011/* SetFreedomAndProjectionVectorToAxis */
SHP[1]\011/* ShiftPointByLastPoint */
SRP2[ ]\011/* SetRefPoint2 */
SLOOP[ ]\011/* SetLoopVariable */
IP[ ]\011/* InterpolatePts */
SRP1[ ]\011/* SetRefPoint1 */
SHP[1]\011/* ShiftPointByLastPoint */
SRP1[ ]\011/* SetRefPoint1 */
SHP[1]\011/* ShiftPointByLastPoint */
SHP[1]\011/* ShiftPointByLastPoint */
SRP1[ ]\011/* SetRefPoint1 */
SHP[1]\011/* ShiftPointByLastPoint */
SRP1[ ]\011/* SetRefPoint1 */
SHP[1]\011/* ShiftPointByLastPoint */
SRP1[ ]\011/* SetRefPoint1 */
SHP[1]\011/* ShiftPointByLastPoint */
IUP[1]\011/* InterpolateUntPts */
IUP[0]\011/* InterpolateUntPts */";
};
width = 1286;
}
);
note = uni0633.fina;
},
{
glyphname = "seen-ar.medi";
lastChange = "2019-08-29 01:59:26 +0000";
layers = (
{
anchors = (
{
name = bottom;
position = "{449, -78}";
},
{
name = top;
position = "{479, 518}";
}
);
layerId = "307C4A58-79B8-4138-817C-FBEE21722E1A";
paths = (
{
closed = 1;
nodes = (
"1049 0 LINE SMOOTH",
"1052.333 0 OFFCURVE",
"1054 1.667 OFFCURVE",
"1054 5 CURVE SMOOTH",
"1054 116 LINE SMOOTH",
"1054 118.667 OFFCURVE",
"1052.333 120 OFFCURVE",
"1049 120 CURVE SMOOTH",
"919 120 LINE",
"919 495 LINE",
"770 495 LINE",
"770 120 LINE",
"708 120 LINE SMOOTH",
"656 120 OFFCURVE",
"629.333 135 OFFCURVE",
"596 179 CURVE",
"598 193 OFFCURVE",
"599 208 OFFCURVE",
"599 224 CURVE SMOOTH",
"599 417 LINE",
"450 417 LINE",
"450 236 LINE SMOOTH",
"450 154.667 OFFCURVE",
"420.667 120 OFFCURVE",
"354 120 CURVE SMOOTH",
"269 120 LINE",
"269 417 LINE",
"120 417 LINE",
"120 120 LINE",
"-5 120 LINE SMOOTH",
"-8.333 120 OFFCURVE",
"-10 118.667 OFFCURVE",
"-10 116 CURVE SMOOTH",
"-10 5 LINE SMOOTH",
"-10 1.667 OFFCURVE",
"-8.333 0 OFFCURVE",
"-5 0 CURVE SMOOTH",
"387 0 LINE SMOOTH",
"461 0 OFFCURVE",
"516.667 25 OFFCURVE",
"554 75 CURVE",
"602 25 OFFCURVE",
"654.333 0 OFFCURVE",
"711 0 CURVE SMOOTH"
);
}
);
userData = {
assembly = "NPUSHB[ ]\011/* 34 values pushed */
1 14 37 27 8 24 33 36 20 17 36 24 17 3 38 37 25 8 18 18 11 34 15 36 32 20 16 11 16 70 89 6 11 18 
SVTCA[0]\011/* SetFreedomAndProjectionVectorToAxis */
MIAP[1]\011/* MoveIndirectAbsPt */
SHP[1]\011/* ShiftPointByLastPoint */
CALL[ ]\011/* CallFunction */
SRP1[ ]\011/* SetRefPoint1 */
SVTCA[0]\011/* SetFreedomAndProjectionVectorToAxis */
SHP[1]\011/* ShiftPointByLastPoint */
SHP[1]\011/* ShiftPointByLastPoint */
SHP[1]\011/* ShiftPointByLastPoint */
RTG[ ]\011/* RoundToGrid */
MIAP[1]\011/* MoveIndirectAbsPt */
SRP2[ ]\011/* SetRefPoint2 */
IP[ ]\011/* InterpolatePts */
MDAP[1]\011/* MoveDirectAbsPt */
IP[ ]\011/* InterpolatePts */
SHP[1]\011/* ShiftPointByLastPoint */
SRP1[ ]\011/* SetRefPoint1 */
SRP2[ ]\011/* SetRefPoint2 */
SVTCA[1]\011/* SetFreedomAndProjectionVectorToAxis */
SLOOP[ ]\011/* SetLoopVariable */
IP[ ]\011/* InterpolatePts */
SRP1[ ]\011/* SetRefPoint1 */
SHP[1]\011/* ShiftPointByLastPoint */
SRP1[ ]\011/* SetRefPoint1 */
SHP[1]\011/* ShiftPointByLastPoint */
SRP1[ ]\011/* SetRefPoint1 */
SHP[1]\011/* ShiftPointByLastPoint */
SHP[1]\011/* ShiftPointByLastPoint */
SRP1[ ]\011/* SetRefPoint1 */
SHP[1]\011/* ShiftPointByLastPoint */
SHP[0]\011/* ShiftPointByLastPoint */
IUP[1]\011/* InterpolateUntPts */
IUP[0]\011/* InterpolateUntPts */";
};
width = 1044;
},
{
anchors = (
{
name = bottom;
position = "{449, -78}";
},
{
name = top;
position = "{439, 488}";
}
);
layerId = "15908E2C-AB74-4DC1-B0E7-8741EE8F4DA5";
paths = (
{
closed = 1;
nodes = (
"927 0 LINE SMOOTH",
"930.333 0 OFFCURVE",
"932 1.667 OFFCURVE",
"932 5 CURVE SMOOTH",
"932 74 LINE SMOOTH",
"932 76.667 OFFCURVE",
"930.333 78 OFFCURVE",
"927 78 CURVE SMOOTH",
"793 78 LINE",
"793 485 LINE",
"708 485 LINE",
"708 78 LINE",
"647 78 LINE SMOOTH",
"585.667 78 OFFCURVE",
"550.333 98.667 OFFCURVE",
"517 156 CURVE",
"517 167 OFFCURVE",
"518 178 OFFCURVE",
"518 189 CURVE",
"518 407 LINE",
"433 407 LINE",
"433 194 LINE SMOOTH",
"433 124.667 OFFCURVE",
"395 78 OFFCURVE",
"331 78 CURVE SMOOTH",
"223 78 LINE",
"223 407 LINE",
"138 407 LINE",
"138 78 LINE",
"-5 78 LINE SMOOTH",
"-8.333 78 OFFCURVE",
"-10 76.667 OFFCURVE",
"-10 74 CURVE SMOOTH",
"-10 5 LINE SMOOTH",
"-10 1.667 OFFCURVE",
"-8.333 0 OFFCURVE",
"-5 0 CURVE SMOOTH",
"340 0 LINE SMOOTH",
"408 0 OFFCURVE",
"456.667 28.667 OFFCURVE",
"486 70 CURVE",
"539.333 16.667 OFFCURVE",
"587 0 OFFCURVE",
"647 0 CURVE SMOOTH"
);
}
);
userData = {
assembly = "NPUSHB[ ]\011/* 34 values pushed */
31 28 23 3 20 16 13 13 20 28 3 38 34 39 9 38 21 3 14 14 7 29 15 31 27 16 12 7 12 70 89 0 7 18 
SVTCA[0]\011/* SetFreedomAndProjectionVectorToAxis */
MIAP[1]\011/* MoveIndirectAbsPt */
SHP[1]\011/* ShiftPointByLastPoint */
CALL[ ]\011/* CallFunction */
SRP1[ ]\011/* SetRefPoint1 */
SVTCA[0]\011/* SetFreedomAndProjectionVectorToAxis */
SHP[1]\011/* ShiftPointByLastPoint */
SHP[1]\011/* ShiftPointByLastPoint */
SHP[1]\011/* ShiftPointByLastPoint */
RTG[ ]\011/* RoundToGrid */
MIAP[1]\011/* MoveIndirectAbsPt */
SRP2[ ]\011/* SetRefPoint2 */
IP[ ]\011/* InterpolatePts */
MDAP[1]\011/* MoveDirectAbsPt */
IP[ ]\011/* InterpolatePts */
SHP[1]\011/* ShiftPointByLastPoint */
SRP1[ ]\011/* SetRefPoint1 */
SVTCA[1]\011/* SetFreedomAndProjectionVectorToAxis */
SHP[1]\011/* ShiftPointByLastPoint */
SRP1[ ]\011/* SetRefPoint1 */
SHP[1]\011/* ShiftPointByLastPoint */
SRP2[ ]\011/* SetRefPoint2 */
SLOOP[ ]\011/* SetLoopVariable */
IP[ ]\011/* InterpolatePts */
SRP1[ ]\011/* SetRefPoint1 */
SHP[1]\011/* ShiftPointByLastPoint */
SRP1[ ]\011/* SetRefPoint1 */
SHP[1]\011/* ShiftPointByLastPoint */
SHP[1]\011/* ShiftPointByLastPoint */
SRP1[ ]\011/* SetRefPoint1 */
SHP[1]\011/* ShiftPointByLastPoint */
IUP[1]\011/* InterpolateUntPts */
IUP[0]\011/* InterpolateUntPts */";
};
width = 922;
}
);
note = uni0633.medi;
},
{
glyphname = "seen-ar.init";
lastChange = "2019-08-29 01:59:26 +0000";
layers = (
{
anchors = (
{
name = bottom;
position = "{449, -78}";
},
{
name = top;
position = "{479, 518}";
}
);
layerId = "307C4A58-79B8-4138-817C-FBEE21722E1A";
paths = (
{
closed = 1;
nodes = (
"919 0 LINE",
"919 495 LINE",
"770 495 LINE",
"770 120 LINE",
"708 120 LINE SMOOTH",
"656 120 OFFCURVE",
"629.333 135 OFFCURVE",
"596 179 CURVE",
"598 193 OFFCURVE",
"599 208 OFFCURVE",
"599 224 CURVE SMOOTH",
"599 417 LINE",
"450 417 LINE",
"450 236 LINE SMOOTH",
"450 154.667 OFFCURVE",
"420.667 120 OFFCURVE",
"354 120 CURVE SMOOTH",
"269 120 LINE",
"269 417 LINE",
"120 417 LINE",
"120 120 LINE",
"-5 120 LINE SMOOTH",
"-8.333 120 OFFCURVE",
"-10 118.667 OFFCURVE",
"-10 116 CURVE SMOOTH",
"-10 5 LINE SMOOTH",
"-10 1.667 OFFCURVE",
"-8.333 0 OFFCURVE",
"-5 0 CURVE SMOOTH",
"387 0 LINE SMOOTH",
"461 0 OFFCURVE",
"516.667 25 OFFCURVE",
"554 75 CURVE",
"602 25 OFFCURVE",
"654.333 0 OFFCURVE",
"711 0 CURVE SMOOTH"
);
}
);
userData = {
assembly = "NPUSHB[ ]\011/* 31 values pushed */
22 25 28 16 13 9 6 6 13 25 3 32 3 31 14 28 7 7 0 23 15 21 9 5 0 5 70 89 26 0 18 
SVTCA[0]\011/* SetFreedomAndProjectionVectorToAxis */
MIAP[1]\011/* MoveIndirectAbsPt */
SHP[0]\011/* ShiftPointByLastPoint */
CALL[ ]\011/* CallFunction */
SRP1[ ]\011/* SetRefPoint1 */
SVTCA[0]\011/* SetFreedomAndProjectionVectorToAxis */
SHP[1]\011/* ShiftPointByLastPoint */
SHP[1]\011/* ShiftPointByLastPoint */
RTG[ ]\011/* RoundToGrid */
MIAP[1]\011/* MoveIndirectAbsPt */
SRP2[ ]\011/* SetRefPoint2 */
IP[ ]\011/* InterpolatePts */
MDAP[1]\011/* MoveDirectAbsPt */
IP[ ]\011/* InterpolatePts */
SHP[1]\011/* ShiftPointByLastPoint */
SRP1[ ]\011/* SetRefPoint1 */
SVTCA[1]\011/* SetFreedomAndProjectionVectorToAxis */
SHP[1]\011/* ShiftPointByLastPoint */
SRP2[ ]\011/* SetRefPoint2 */
SLOOP[ ]\011/* SetLoopVariable */
IP[ ]\011/* InterpolatePts */
SRP1[ ]\011/* SetRefPoint1 */
SHP[1]\011/* ShiftPointByLastPoint */
SRP1[ ]\011/* SetRefPoint1 */
SHP[1]\011/* ShiftPointByLastPoint */
SHP[1]\011/* ShiftPointByLastPoint */
SRP1[ ]\011/* SetRefPoint1 */
SHP[1]\011/* ShiftPointByLastPoint */
IUP[1]\011/* InterpolateUntPts */
IUP[0]\011/* InterpolateUntPts */";
};
width = 1004;
},
{
anchors = (
{
name = bottom;
position = "{449, -78}";
},
{
name = top;
position = "{439, 488}";
}
);
layerId = "15908E2C-AB74-4DC1-B0E7-8741EE8F4DA5";
paths = (
{
closed = 1;
nodes = (
"793 0 LINE",
"793 485 LINE",
"708 485 LINE",
"708 78 LINE",
"647 78 LINE SMOOTH",
"585.667 78 OFFCURVE",
"550.333 98.667 OFFCURVE",
"517 156 CURVE",
"517 167 OFFCURVE",
"518 178 OFFCURVE",
"518 189 CURVE",
"518 407 LINE",
"433 407 LINE",
"433 194 LINE SMOOTH",
"433 124.667 OFFCURVE",
"395 78 OFFCURVE",
"331 78 CURVE SMOOTH",
"223 78 LINE",
"223 407 LINE",
"138 407 LINE",
"138 78 LINE",
"-5 78 LINE SMOOTH",
"-8.333 78 OFFCURVE",
"-10 76.667 OFFCURVE",
"-10 74 CURVE SMOOTH",
"-10 5 LINE SMOOTH",
"-10 1.667 OFFCURVE",
"-8.333 0 OFFCURVE",
"-5 0 CURVE SMOOTH",
"340 0 LINE SMOOTH",
"408 0 OFFCURVE",
"456.667 28.667 OFFCURVE",
"486 70 CURVE",
"539.333 16.667 OFFCURVE",
"587 0 OFFCURVE",
"647 0 CURVE SMOOTH"
);
}
);
userData = {
assembly = "NPUSHB[ ]\011/* 31 values pushed */
28 31 23 3 20 16 13 13 20 31 3 33 9 32 21 3 14 14 7 29 15 27 16 12 7 12 70 89 0 7 18 
SVTCA[0]\011/* SetFreedomAndProjectionVectorToAxis */
MIAP[1]\011/* MoveIndirectAbsPt */
SHP[1]\011/* ShiftPointByLastPoint */
CALL[ ]\011/* CallFunction */
SRP1[ ]\011/* SetRefPoint1 */
SVTCA[0]\011/* SetFreedomAndProjectionVectorToAxis */
SHP[1]\011/* ShiftPointByLastPoint */
SHP[1]\011/* ShiftPointByLastPoint */
RTG[ ]\011/* RoundToGrid */
MIAP[1]\011/* MoveIndirectAbsPt */
SRP2[ ]\011/* SetRefPoint2 */
IP[ ]\011/* InterpolatePts */
MDAP[1]\011/* MoveDirectAbsPt */
IP[ ]\011/* InterpolatePts */
SHP[1]\011/* ShiftPointByLastPoint */
SRP1[ ]\011/* SetRefPoint1 */
SVTCA[1]\011/* SetFreedomAndProjectionVectorToAxis */
SHP[1]\011/* ShiftPointByLastPoint */
SRP2[ ]\011/* SetRefPoint2 */
SLOOP[ ]\011/* SetLoopVariable */
IP[ ]\011/* InterpolatePts */
SRP1[ ]\011/* SetRefPoint1 */
SHP[1]\011/* ShiftPointByLastPoint */
SRP1[ ]\011/* SetRefPoint1 */
SHP[1]\011/* ShiftPointByLastPoint */
SHP[1]\011/* ShiftPointByLastPoint */
SRP1[ ]\011/* SetRefPoint1 */
SHP[1]\011/* ShiftPointByLastPoint */
IUP[1]\011/* InterpolateUntPts */
IUP[0]\011/* InterpolateUntPts */";
};
width = 878;
}
);
note = uni0633.init;
},
{
glyphname = "sad-ar";
lastChange = "2019-08-29 01:59:26 +0000";
layers = (
{
anchors = (
{
name = bottom;
position = "{811, -78}";
},
{
name = top;
position = "{830, 586}";
}
);
layerId = "307C4A58-79B8-4138-817C-FBEE21722E1A";
paths = (
{
closed = 1;
nodes = (
"381 -240 LINE SMOOTH",
"563.667 -240 OFFCURVE",
"664.333 -157.333 OFFCURVE",
"675 0 CURVE",
"1195 0 LINE",
"1195 240 LINE SMOOTH",
"1195 420 OFFCURVE",
"1111 505 OFFCURVE",
"947 505 CURVE SMOOTH",
"827 505 OFFCURVE",
"736.667 443.333 OFFCURVE",
"676 320 CURVE",
"676 495 LINE",
"527 495 LINE",
"527 39 LINE SMOOTH",
"527 -62.333 OFFCURVE",
"479.667 -120 OFFCURVE",
"377 -120 CURVE SMOOTH",
"347 -120 LINE SMOOTH",
"267 -120 OFFCURVE",
"214 -58.333 OFFCURVE",
"214 39 CURVE SMOOTH",
"214 107 OFFCURVE",
"226.667 190.333 OFFCURVE",
"248 261 CURVE",
"116 261 LINE",
"84 198.333 OFFCURVE",
"65 116 OFFCURVE",
"65 40 CURVE SMOOTH",
"65 -126 OFFCURVE",
"166 -240 OFFCURVE",
"337 -240 CURVE SMOOTH"
);
},
{
closed = 1;
nodes = (
"676 120 LINE",
"676 198 LINE",
"741.333 322.667 OFFCURVE",
"819 385 OFFCURVE",
"909 385 CURVE SMOOTH",
"1002.333 385 OFFCURVE",
"1046 340.333 OFFCURVE",
"1046 243 CURVE SMOOTH",
"1046 120 LINE"
);
}
);
userData = {
assembly = "NPUSHB[ ]\011/* 41 values pushed */
39 21 28 28 18 32 27 11 4 27 18 4 3 41 40 21 23 7 7 28 19 28 39 70 89 28 18 23 36 70 89 23 16 19 15 0 14 70 89 0 27 
SVTCA[0]\011/* SetFreedomAndProjectionVectorToAxis */
MIAP[1]\011/* MoveIndirectAbsPt */
CALL[ ]\011/* CallFunction */
SVTCA[0]\011/* SetFreedomAndProjectionVectorToAxis */
RTG[ ]\011/* RoundToGrid */
MIAP[1]\011/* MoveIndirectAbsPt */
MIAP[1]\011/* MoveIndirectAbsPt */
CALL[ ]\011/* CallFunction */
SVTCA[0]\011/* SetFreedomAndProjectionVectorToAxis */
RTG[ ]\011/* RoundToGrid */
MIAP[1]\011/* MoveIndirectAbsPt */
CALL[ ]\011/* CallFunction */
SRP1[ ]\011/* SetRefPoint1 */
SRP2[ ]\011/* SetRefPoint2 */
SVTCA[0]\011/* SetFreedomAndProjectionVectorToAxis */
IP[ ]\011/* InterpolatePts */
RTG[ ]\011/* RoundToGrid */
MDAP[1]\011/* MoveDirectAbsPt */
SRP1[ ]\011/* SetRefPoint1 */
IP[ ]\011/* InterpolatePts */
SRP1[ ]\011/* SetRefPoint1 */
SRP2[ ]\011/* SetRefPoint2 */
SVTCA[1]\011/* SetFreedomAndProjectionVectorToAxis */
SLOOP[ ]\011/* SetLoopVariable */
IP[ ]\011/* InterpolatePts */
SRP1[ ]\011/* SetRefPoint1 */
SHP[1]\011/* ShiftPointByLastPoint */
SRP1[ ]\011/* SetRefPoint1 */
SHP[1]\011/* ShiftPointByLastPoint */
SRP1[ ]\011/* SetRefPoint1 */
SHP[1]\011/* ShiftPointByLastPoint */
SRP1[ ]\011/* SetRefPoint1 */
SHP[1]\011/* ShiftPointByLastPoint */
SHP[1]\011/* ShiftPointByLastPoint */
IUP[1]\011/* InterpolateUntPts */
IUP[0]\011/* InterpolateUntPts */";
};
width = 1270;
},
{
anchors = (
{
name = bottom;
position = "{811, -78}";
},
{
name = top;
position = "{830, 586}";
}
);
layerId = "15908E2C-AB74-4DC1-B0E7-8741EE8F4DA5";
paths = (
{
closed = 1;
nodes = (
"338 -240 LINE SMOOTH",
"510 -240 OFFCURVE",
"587 -161.333 OFFCURVE",
"587 0 CURVE",
"1093 0 LINE",
"1093 241 LINE SMOOTH",
"1093 415.667 OFFCURVE",
"1014.667 495 OFFCURVE",
"864 495 CURVE SMOOTH",
"745.333 495 OFFCURVE",
"649.667 419.333 OFFCURVE",
"587 270 CURVE",
"587 485 LINE",
"502 485 LINE",
"502 -3 LINE SMOOTH",
"502 -109.667 OFFCURVE",
"450 -162 OFFCURVE",
"334 -162 CURVE SMOOTH",
"285 -162 LINE SMOOTH",
"202.333 -162 OFFCURVE",
"155 -97.333 OFFCURVE",
"155 16 CURVE SMOOTH",
"155 116 OFFCURVE",
"166.333 194.667 OFFCURVE",
"189 252 CURVE",
"106 252 LINE",
"79.333 188 OFFCURVE",
"65 98.667 OFFCURVE",
"65 16 CURVE SMOOTH",
"65 -144 OFFCURVE",
"142 -240 OFFCURVE",
"266 -240 CURVE SMOOTH"
);
},
{
closed = 1;
nodes = (
"587 78 LINE",
"587 162 LINE",
"656.333 331.333 OFFCURVE",
"742.667 416 OFFCURVE",
"846 416 CURVE SMOOTH",
"955.333 416 OFFCURVE",
"1008 359.667 OFFCURVE",
"1008 237 CURVE SMOOTH",
"1008 78 LINE"
);
}
);
userData = {
assembly = "NPUSHB[ ]\011/* 41 values pushed */
31 26 38 19 27 27 16 9 3 3 16 26 3 40 39 19 22 6 6 27 17 27 38 70 89 27 18 22 35 70 89 22 16 17 15 0 12 70 89 0 27 
SVTCA[0]\011/* SetFreedomAndProjectionVectorToAxis */
MIAP[1]\011/* MoveIndirectAbsPt */
CALL[ ]\011/* CallFunction */
SVTCA[0]\011/* SetFreedomAndProjectionVectorToAxis */
RTG[ ]\011/* RoundToGrid */
MIAP[1]\011/* MoveIndirectAbsPt */
MIAP[1]\011/* MoveIndirectAbsPt */
CALL[ ]\011/* CallFunction */
SVTCA[0]\011/* SetFreedomAndProjectionVectorToAxis */
RTG[ ]\011/* RoundToGrid */
MIAP[1]\011/* MoveIndirectAbsPt */
CALL[ ]\011/* CallFunction */
SRP1[ ]\011/* SetRefPoint1 */
SRP2[ ]\011/* SetRefPoint2 */
SVTCA[0]\011/* SetFreedomAndProjectionVectorToAxis */
IP[ ]\011/* InterpolatePts */
RTG[ ]\011/* RoundToGrid */
MDAP[1]\011/* MoveDirectAbsPt */
SRP1[ ]\011/* SetRefPoint1 */
IP[ ]\011/* InterpolatePts */
SRP1[ ]\011/* SetRefPoint1 */
SRP2[ ]\011/* SetRefPoint2 */
SVTCA[1]\011/* SetFreedomAndProjectionVectorToAxis */
SLOOP[ ]\011/* SetLoopVariable */
IP[ ]\011/* InterpolatePts */
SRP1[ ]\011/* SetRefPoint1 */
SHP[1]\011/* ShiftPointByLastPoint */
SRP1[ ]\011/* SetRefPoint1 */
SHP[1]\011/* ShiftPointByLastPoint */
SRP1[ ]\011/* SetRefPoint1 */
SHP[1]\011/* ShiftPointByLastPoint */
SHP[1]\011/* ShiftPointByLastPoint */
SRP1[ ]\011/* SetRefPoint1 */
SHP[1]\011/* ShiftPointByLastPoint */
IUP[1]\011/* InterpolateUntPts */
IUP[0]\011/* InterpolateUntPts */";
};
width = 1168;
}
);
note = uni0635;
unicode = 0635;
},
{
glyphname = "sad-ar.fina";
lastChange = "2019-08-29 01:59:26 +0000";
layers = (
{
anchors = (
{
name = bottom;
position = "{811, -78}";
},
{
name = top;
position = "{830, 586}";
}
);
layerId = "307C4A58-79B8-4138-817C-FBEE21722E1A";
paths = (
{
closed = 1;
nodes = (
"1325 0 LINE SMOOTH",
"1328.333 0 OFFCURVE",
"1330 1.667 OFFCURVE",
"1330 5 CURVE SMOOTH",
"1330 116 LINE SMOOTH",
"1330 118.667 OFFCURVE",
"1328.333 120 OFFCURVE",
"1325 120 CURVE SMOOTH",
"1195 120 LINE",
"1195 240 LINE SMOOTH",
"1195 420 OFFCURVE",
"1111 505 OFFCURVE",
"947 505 CURVE SMOOTH",
"827 505 OFFCURVE",
"736.667 443.333 OFFCURVE",
"676 320 CURVE",
"676 495 LINE",
"527 495 LINE",
"527 39 LINE SMOOTH",
"527 -62.333 OFFCURVE",
"479.667 -120 OFFCURVE",
"377 -120 CURVE SMOOTH",
"347 -120 LINE SMOOTH",
"267 -120 OFFCURVE",
"214 -58.333 OFFCURVE",
"214 39 CURVE SMOOTH",
"214 107 OFFCURVE",
"226.667 190.333 OFFCURVE",
"248 261 CURVE",
"116 261 LINE",
"84 198.333 OFFCURVE",
"65 116 OFFCURVE",
"65 40 CURVE SMOOTH",
"65 -69.333 OFFCURVE",
"109.5 -158.333 OFFCURVE",
"191.5 -205 CURVE SMOOTH",
"232.5 -228.333 OFFCURVE",
"281 -240 OFFCURVE",
"337 -240 CURVE SMOOTH",
"381 -240 LINE SMOOTH",
"563.667 -240 OFFCURVE",
"664.333 -157.333 OFFCURVE",
"675 0 CURVE"
);
},
{
closed = 1;
nodes = (
"676 120 LINE",
"676 198 LINE",
"741.333 322.667 OFFCURVE",
"819 385 OFFCURVE",
"909 385 CURVE SMOOTH",
"1002.333 385 OFFCURVE",
"1046 340.333 OFFCURVE",
"1046 243 CURVE SMOOTH",
"1046 120 LINE"
);
}
);
userData = {
assembly = "NPUSHB[ ]\011/* 43 values pushed */
21 14 44 31 6 6 28 38 37 37 28 14 3 46 2 47 33 42 70 89 33 16 31 29 17 17 6 29 15 10 24 70 89 10 27 37 45 6 45 70 89 6 18 
SVTCA[0]\011/* SetFreedomAndProjectionVectorToAxis */
MIAP[1]\011/* MoveIndirectAbsPt */
CALL[ ]\011/* CallFunction */
SRP1[ ]\011/* SetRefPoint1 */
SVTCA[0]\011/* SetFreedomAndProjectionVectorToAxis */
SHP[1]\011/* ShiftPointByLastPoint */
RTG[ ]\011/* RoundToGrid */
MIAP[1]\011/* MoveIndirectAbsPt */
CALL[ ]\011/* CallFunction */
SVTCA[0]\011/* SetFreedomAndProjectionVectorToAxis */
RTG[ ]\011/* RoundToGrid */
MIAP[1]\011/* MoveIndirectAbsPt */
SRP2[ ]\011/* SetRefPoint2 */
IP[ ]\011/* InterpolatePts */
MDAP[1]\011/* MoveDirectAbsPt */
SRP2[ ]\011/* SetRefPoint2 */
IP[ ]\011/* InterpolatePts */
MIAP[1]\011/* MoveIndirectAbsPt */
CALL[ ]\011/* CallFunction */
SRP1[ ]\011/* SetRefPoint1 */
SVTCA[1]\011/* SetFreedomAndProjectionVectorToAxis */
SHP[1]\011/* ShiftPointByLastPoint */
SRP2[ ]\011/* SetRefPoint2 */
SLOOP[ ]\011/* SetLoopVariable */
IP[ ]\011/* InterpolatePts */
SRP1[ ]\011/* SetRefPoint1 */
SHP[1]\011/* ShiftPointByLastPoint */
SRP1[ ]\011/* SetRefPoint1 */
SHP[1]\011/* ShiftPointByLastPoint */
SRP1[ ]\011/* SetRefPoint1 */
SHP[1]\011/* ShiftPointByLastPoint */
SHP[1]\011/* ShiftPointByLastPoint */
SRP1[ ]\011/* SetRefPoint1 */
SHP[1]\011/* ShiftPointByLastPoint */
IUP[1]\011/* InterpolateUntPts */
IUP[0]\011/* InterpolateUntPts */";
};
width = 1320;
},
{
anchors = (
{
name = bottom;
position = "{811, -78}";
},
{
name = top;
position = "{830, 586}";
}
);
layerId = "15908E2C-AB74-4DC1-B0E7-8741EE8F4DA5";
paths = (
{
closed = 1;
nodes = (
"1227 0 LINE SMOOTH",
"1230.333 0 OFFCURVE",
"1232 1.667 OFFCURVE",
"1232 5 CURVE SMOOTH",
"1232 74 LINE SMOOTH",
"1232 76.667 OFFCURVE",
"1230.333 78 OFFCURVE",
"1227 78 CURVE SMOOTH",
"1093 78 LINE",
"1093 241 LINE SMOOTH",
"1093 415.667 OFFCURVE",
"1014.667 495 OFFCURVE",
"864 495 CURVE SMOOTH",
"745.333 495 OFFCURVE",
"649.667 419.333 OFFCURVE",
"587 270 CURVE",
"587 485 LINE",
"502 485 LINE",
"502 -3 LINE SMOOTH",
"502 -109.667 OFFCURVE",
"450 -162 OFFCURVE",
"334 -162 CURVE SMOOTH",
"285 -162 LINE SMOOTH",
"202.333 -162 OFFCURVE",
"155 -97.333 OFFCURVE",
"155 16 CURVE SMOOTH",
"155 116 OFFCURVE",
"166.333 194.667 OFFCURVE",
"189 252 CURVE",
"106 252 LINE",
"79.333 188 OFFCURVE",
"65 98.667 OFFCURVE",
"65 16 CURVE SMOOTH",
"65 -84 OFFCURVE",
"95 -159 OFFCURVE",
"148 -201 CURVE SMOOTH",
"179 -226 OFFCURVE",
"219 -240 OFFCURVE",
"266 -240 CURVE SMOOTH",
"338 -240 LINE SMOOTH",
"510 -240 OFFCURVE",
"587 -161.333 OFFCURVE",
"587 0 CURVE"
);
},
{
closed = 1;
nodes = (
"587 78 LINE",
"587 162 LINE",
"656.333 331.333 OFFCURVE",
"742.667 416 OFFCURVE",
"846 416 CURVE SMOOTH",
"955.333 416 OFFCURVE",
"1008 359.667 OFFCURVE",
"1008 237 CURVE SMOOTH",
"1008 78 LINE"
);
}
);
userData = {
assembly = "NPUSHB[ ]\011/* 41 values pushed */
13 7 44 23 0 0 20 30 20 7 3 45 33 46 26 41 70 89 26 16 23 21 10 10 0 21 15 4 16 70 89 4 27 30 44 0 44 70 89 0 18 
SVTCA[0]\011/* SetFreedomAndProjectionVectorToAxis */
MIAP[1]\011/* MoveIndirectAbsPt */
CALL[ ]\011/* CallFunction */
SRP1[ ]\011/* SetRefPoint1 */
SVTCA[0]\011/* SetFreedomAndProjectionVectorToAxis */
SHP[1]\011/* ShiftPointByLastPoint */
RTG[ ]\011/* RoundToGrid */
MIAP[1]\011/* MoveIndirectAbsPt */
CALL[ ]\011/* CallFunction */
SVTCA[0]\011/* SetFreedomAndProjectionVectorToAxis */
RTG[ ]\011/* RoundToGrid */
MIAP[1]\011/* MoveIndirectAbsPt */
SRP2[ ]\011/* SetRefPoint2 */
IP[ ]\011/* InterpolatePts */
MDAP[1]\011/* MoveDirectAbsPt */
SRP2[ ]\011/* SetRefPoint2 */
IP[ ]\011/* InterpolatePts */
MIAP[1]\011/* MoveIndirectAbsPt */
CALL[ ]\011/* CallFunction */
SRP1[ ]\011/* SetRefPoint1 */
SVTCA[1]\011/* SetFreedomAndProjectionVectorToAxis */
SHP[1]\011/* ShiftPointByLastPoint */
SRP2[ ]\011/* SetRefPoint2 */
SLOOP[ ]\011/* SetLoopVariable */
IP[ ]\011/* InterpolatePts */
SRP1[ ]\011/* SetRefPoint1 */
SHP[1]\011/* ShiftPointByLastPoint */
SRP1[ ]\011/* SetRefPoint1 */
SHP[1]\011/* ShiftPointByLastPoint */
SHP[1]\011/* ShiftPointByLastPoint */
SRP1[ ]\011/* SetRefPoint1 */
SHP[1]\011/* ShiftPointByLastPoint */
IUP[1]\011/* InterpolateUntPts */
IUP[0]\011/* InterpolateUntPts */";
};
width = 1222;
}
);
note = uni0635.fina;
},
{
glyphname = "sad-ar.medi";
lastChange = "2019-08-29 01:59:26 +0000";
layers = (
{
anchors = (
{
name = bottom;
position = "{391, -78}";
},
{
name = top;
position = "{420, 586}";
}
);
layerId = "307C4A58-79B8-4138-817C-FBEE21722E1A";
paths = (
{
closed = 1;
nodes = (
"911 0 LINE SMOOTH",
"914.333 0 OFFCURVE",
"916 1.667 OFFCURVE",
"916 5 CURVE SMOOTH",
"916 116 LINE SMOOTH",
"916 118.667 OFFCURVE",
"914.333 120 OFFCURVE",
"911 120 CURVE SMOOTH",
"781 120 LINE",
"781 240 LINE SMOOTH",
"781 420 OFFCURVE",
"697 505 OFFCURVE",
"533 505 CURVE SMOOTH",
"413.667 505 OFFCURVE",
"323.333 443.333 OFFCURVE",
"262 320 CURVE",
"262 495 LINE",
"113 495 LINE",
"113 120 LINE",
"-5 120 LINE SMOOTH",
"-8.333 120 OFFCURVE",
"-10 118.667 OFFCURVE",
"-10 116 CURVE SMOOTH",
"-10 5 LINE SMOOTH",
"-10 1.667 OFFCURVE",
"-8.333 0 OFFCURVE",
"-5 0 CURVE SMOOTH"
);
},
{
closed = 1;
nodes = (
"262 120 LINE",
"262 198 LINE",
"327.333 322.667 OFFCURVE",
"405 385 OFFCURVE",
"495 385 CURVE SMOOTH",
"588.333 385 OFFCURVE",
"632 340.333 OFFCURVE",
"632 243 CURVE SMOOTH",
"632 120 LINE"
);
}
);
userData = {
assembly = "NPUSHB[ ]\011/* 32 values pushed */
22 15 9 29 29 6 15 6 30 18 31 3 30 11 26 70 89 11 16 9 0 7 15 29 15 5 0 5 70 89 0 18 
SVTCA[0]\011/* SetFreedomAndProjectionVectorToAxis */
MIAP[1]\011/* MoveIndirectAbsPt */
CALL[ ]\011/* CallFunction */
SRP1[ ]\011/* SetRefPoint1 */
SVTCA[0]\011/* SetFreedomAndProjectionVectorToAxis */
SHP[1]\011/* ShiftPointByLastPoint */
SHP[1]\011/* ShiftPointByLastPoint */
RTG[ ]\011/* RoundToGrid */
MIAP[1]\011/* MoveIndirectAbsPt */
SRP2[ ]\011/* SetRefPoint2 */
IP[ ]\011/* InterpolatePts */
MIAP[1]\011/* MoveIndirectAbsPt */
CALL[ ]\011/* CallFunction */
SRP1[ ]\011/* SetRefPoint1 */
SVTCA[1]\011/* SetFreedomAndProjectionVectorToAxis */
SHP[1]\011/* ShiftPointByLastPoint */
SRP1[ ]\011/* SetRefPoint1 */
SHP[1]\011/* ShiftPointByLastPoint */
SRP2[ ]\011/* SetRefPoint2 */
IP[ ]\011/* InterpolatePts */
IP[ ]\011/* InterpolatePts */
SRP1[ ]\011/* SetRefPoint1 */
SHP[1]\011/* ShiftPointByLastPoint */
SRP1[ ]\011/* SetRefPoint1 */
SHP[1]\011/* ShiftPointByLastPoint */
SRP1[ ]\011/* SetRefPoint1 */
SHP[1]\011/* ShiftPointByLastPoint */
IUP[1]\011/* InterpolateUntPts */
IUP[0]\011/* InterpolateUntPts */";
};
width = 906;
},
{
anchors = (
{
name = bottom;
position = "{391, -78}";
},
{
name = top;
position = "{420, 586}";
}
);
layerId = "15908E2C-AB74-4DC1-B0E7-8741EE8F4DA5";
paths = (
{
closed = 1;
nodes = (
"840 0 LINE SMOOTH",
"843.333 0 OFFCURVE",
"845 1.667 OFFCURVE",
"845 5 CURVE SMOOTH",
"845 74 LINE SMOOTH",
"845 76.667 OFFCURVE",
"843.333 78 OFFCURVE",
"840 78 CURVE SMOOTH",
"708 78 LINE",
"708 241 LINE SMOOTH",
"708 415.667 OFFCURVE",
"629.667 495 OFFCURVE",
"479 495 CURVE SMOOTH",
"361.667 495 OFFCURVE",
"264.667 419.333 OFFCURVE",
"202 270 CURVE",
"202 455 LINE",
"117 455 LINE",
"117 78 LINE",
"-5 78 LINE SMOOTH",
"-8.333 78 OFFCURVE",
"-10 76.667 OFFCURVE",
"-10 74 CURVE SMOOTH",
"-10 5 LINE SMOOTH",
"-10 1.667 OFFCURVE",
"-8.333 0 OFFCURVE",
"-5 0 CURVE SMOOTH"
);
},
{
closed = 1;
nodes = (
"202 78 LINE",
"202 160 LINE",
"272 330.667 OFFCURVE",
"358.333 416 OFFCURVE",
"461 416 CURVE SMOOTH",
"569 416 OFFCURVE",
"623 359.667 OFFCURVE",
"623 237 CURVE SMOOTH",
"623 78 LINE"
);
}
);
userData = {
assembly = "NPUSHB[ ]\011/* 33 values pushed */
23 16 9 30 30 6 16 6 31 19 32 3 31 9 0 12 12 27 70 89 12 16 7 15 30 16 5 0 5 70 89 0 18 
SVTCA[0]\011/* SetFreedomAndProjectionVectorToAxis */
MIAP[1]\011/* MoveIndirectAbsPt */
CALL[ ]\011/* CallFunction */
SRP1[ ]\011/* SetRefPoint1 */
SVTCA[0]\011/* SetFreedomAndProjectionVectorToAxis */
SHP[1]\011/* ShiftPointByLastPoint */
SHP[1]\011/* ShiftPointByLastPoint */
RTG[ ]\011/* RoundToGrid */
MIAP[1]\011/* MoveIndirectAbsPt */
MIAP[1]\011/* MoveIndirectAbsPt */
CALL[ ]\011/* CallFunction */
SRP1[ ]\011/* SetRefPoint1 */
SRP2[ ]\011/* SetRefPoint2 */
SVTCA[0]\011/* SetFreedomAndProjectionVectorToAxis */
IP[ ]\011/* InterpolatePts */
SRP1[ ]\011/* SetRefPoint1 */
SVTCA[1]\011/* SetFreedomAndProjectionVectorToAxis */
SHP[1]\011/* ShiftPointByLastPoint */
SRP1[ ]\011/* SetRefPoint1 */
SHP[1]\011/* ShiftPointByLastPoint */
SRP2[ ]\011/* SetRefPoint2 */
IP[ ]\011/* InterpolatePts */
IP[ ]\011/* InterpolatePts */
SRP1[ ]\011/* SetRefPoint1 */
SHP[1]\011/* ShiftPointByLastPoint */
SRP1[ ]\011/* SetRefPoint1 */
SHP[1]\011/* ShiftPointByLastPoint */
SRP1[ ]\011/* SetRefPoint1 */
SHP[1]\011/* ShiftPointByLastPoint */
IUP[1]\011/* InterpolateUntPts */
IUP[0]\011/* InterpolateUntPts */";
};
width = 835;
}
);
note = uni0635.medi;
},
{
glyphname = "sad-ar.init";
lastChange = "2019-08-29 01:59:26 +0000";
layers = (
{
anchors = (
{
name = bottom;
position = "{391, -78}";
},
{
name = top;
position = "{420, 586}";
}
);
layerId = "307C4A58-79B8-4138-817C-FBEE21722E1A";
paths = (
{
closed = 1;
nodes = (
"781 0 LINE",
"781 240 LINE SMOOTH",
"781 420 OFFCURVE",
"697 505 OFFCURVE",
"533 505 CURVE SMOOTH",
"413.667 505 OFFCURVE",
"323.333 443.333 OFFCURVE",
"262 320 CURVE",
"262 495 LINE",
"113 495 LINE",
"113 120 LINE",
"-5 120 LINE SMOOTH",
"-8.333 120 OFFCURVE",
"-10 118.667 OFFCURVE",
"-10 116 CURVE SMOOTH",
"-10 5 LINE SMOOTH",
"-10 1.667 OFFCURVE",
"-8.333 0 OFFCURVE",
"-5 0 CURVE SMOOTH"
);
},
{
closed = 1;
nodes = (
"262 120 LINE",
"262 198 LINE",
"327.333 322.667 OFFCURVE",
"405 385 OFFCURVE",
"495 385 CURVE SMOOTH",
"588.333 385 OFFCURVE",
"632 340.333 OFFCURVE",
"632 243 CURVE SMOOTH",
"632 120 LINE"
);
}
);
userData = {
assembly = "NPUSHB[ ]\011/* 29 values pushed */
0 23 17 7 7 14 23 14 25 11 24 19 4 70 89 19 16 17 8 15 15 7 13 8 13 70 89 8 18 
SVTCA[0]\011/* SetFreedomAndProjectionVectorToAxis */
MIAP[1]\011/* MoveIndirectAbsPt */
CALL[ ]\011/* CallFunction */
SRP1[ ]\011/* SetRefPoint1 */
SVTCA[0]\011/* SetFreedomAndProjectionVectorToAxis */
SHP[1]\011/* ShiftPointByLastPoint */
RTG[ ]\011/* RoundToGrid */
MIAP[1]\011/* MoveIndirectAbsPt */
SRP2[ ]\011/* SetRefPoint2 */
IP[ ]\011/* InterpolatePts */
MIAP[1]\011/* MoveIndirectAbsPt */
CALL[ ]\011/* CallFunction */
SRP1[ ]\011/* SetRefPoint1 */
SVTCA[1]\011/* SetFreedomAndProjectionVectorToAxis */
SHP[1]\011/* ShiftPointByLastPoint */
SRP2[ ]\011/* SetRefPoint2 */
IP[ ]\011/* InterpolatePts */
IP[ ]\011/* InterpolatePts */
SRP1[ ]\011/* SetRefPoint1 */
SHP[1]\011/* ShiftPointByLastPoint */
SRP1[ ]\011/* SetRefPoint1 */
SHP[1]\011/* ShiftPointByLastPoint */
SRP1[ ]\011/* SetRefPoint1 */
SHP[1]\011/* ShiftPointByLastPoint */
IUP[1]\011/* InterpolateUntPts */
IUP[0]\011/* InterpolateUntPts */";
};
width = 856;
},
{
anchors = (
{
name = bottom;
position = "{391, -78}";
},
{
name = top;
position = "{420, 586}";
}
);
layerId = "15908E2C-AB74-4DC1-B0E7-8741EE8F4DA5";
paths = (
{
closed = 1;
nodes = (
"708 0 LINE",
"708 241 LINE SMOOTH",
"708 415.667 OFFCURVE",
"629.667 495 OFFCURVE",
"479 495 CURVE SMOOTH",
"361.667 495 OFFCURVE",
"264.667 419.333 OFFCURVE",
"202 270 CURVE",
"202 455 LINE",
"117 455 LINE",
"117 78 LINE",
"-5 78 LINE SMOOTH",
"-8.333 78 OFFCURVE",
"-10 76.667 OFFCURVE",
"-10 74 CURVE SMOOTH",
"-10 5 LINE SMOOTH",
"-10 1.667 OFFCURVE",
"-8.333 0 OFFCURVE",
"-5 0 CURVE SMOOTH"
);
},
{
closed = 1;
nodes = (
"202 78 LINE",
"202 160 LINE",
"272 330.667 OFFCURVE",
"358.333 416 OFFCURVE",
"461 416 CURVE SMOOTH",
"569 416 OFFCURVE",
"623 359.667 OFFCURVE",
"623 237 CURVE SMOOTH",
"623 78 LINE"
);
}
);
userData = {
assembly = "NPUSHB[ ]\011/* 30 values pushed */
9 24 24 6 17 16 6 16 26 3 25 9 0 12 12 21 70 89 12 16 7 15 24 5 0 5 70 89 0 18 
SVTCA[0]\011/* SetFreedomAndProjectionVectorToAxis */
MIAP[1]\011/* MoveIndirectAbsPt */
CALL[ ]\011/* CallFunction */
SRP1[ ]\011/* SetRefPoint1 */
SVTCA[0]\011/* SetFreedomAndProjectionVectorToAxis */
SHP[1]\011/* ShiftPointByLastPoint */
RTG[ ]\011/* RoundToGrid */
MIAP[1]\011/* MoveIndirectAbsPt */
MIAP[1]\011/* MoveIndirectAbsPt */
CALL[ ]\011/* CallFunction */
SRP1[ ]\011/* SetRefPoint1 */
SRP2[ ]\011/* SetRefPoint2 */
SVTCA[0]\011/* SetFreedomAndProjectionVectorToAxis */
IP[ ]\011/* InterpolatePts */
SRP1[ ]\011/* SetRefPoint1 */
SVTCA[1]\011/* SetFreedomAndProjectionVectorToAxis */
SHP[1]\011/* ShiftPointByLastPoint */
SRP2[ ]\011/* SetRefPoint2 */
IP[ ]\011/* InterpolatePts */
IP[ ]\011/* InterpolatePts */
SRP1[ ]\011/* SetRefPoint1 */
SHP[1]\011/* ShiftPointByLastPoint */
SRP1[ ]\011/* SetRefPoint1 */
SHP[1]\011/* ShiftPointByLastPoint */
SRP1[ ]\011/* SetRefPoint1 */
SHP[1]\011/* ShiftPointByLastPoint */
IUP[1]\011/* InterpolateUntPts */
IUP[0]\011/* InterpolateUntPts */";
};
width = 783;
}
);
note = uni0635.init;
},
{
glyphname = "tah-ar";
lastChange = "2019-08-29 01:59:26 +0000";
layers = (
{
anchors = (
{
name = bottom;
position = "{391, -78}";
},
{
name = top;
position = "{459, 781}";
}
);
layerId = "307C4A58-79B8-4138-817C-FBEE21722E1A";
paths = (
{
closed = 1;
nodes = (
"781 0 LINE",
"781 240 LINE SMOOTH",
"781 420 OFFCURVE",
"697 505 OFFCURVE",
"533 505 CURVE SMOOTH",
"413.667 505 OFFCURVE",
"323.333 443.333 OFFCURVE",
"262 320 CURVE",
"262 760 LINE",
"113 760 LINE",
"113 120 LINE",
"25 120 LINE SMOOTH",
"21 120 OFFCURVE",
"20 119 OFFCURVE",
"20 115 CURVE SMOOTH",
"20 6 LINE SMOOTH",
"20 2 OFFCURVE",
"21 0 OFFCURVE",
"25 0 CURVE SMOOTH"
);
},
{
closed = 1;
nodes = (
"262 198 LINE",
"327.333 322.667 OFFCURVE",
"405 385 OFFCURVE",
"495 385 CURVE SMOOTH",
"588.333 385 OFFCURVE",
"632 340.333 OFFCURVE",
"632 243 CURVE SMOOTH",
"632 120 LINE",
"262 120 LINE"
);
}
);
userData = {
assembly = "NPUSHB[ ]\011/* 31 values pushed */
0 18 12 7 7 9 8 9 18 3 21 20 12 19 14 7 8 19 8 70 89 19 18 14 4 70 89 14 16 10 0 
SVTCA[0]\011/* SetFreedomAndProjectionVectorToAxis */
MIAP[1]\011/* MoveIndirectAbsPt */
MIAP[1]\011/* MoveIndirectAbsPt */
CALL[ ]\011/* CallFunction */
SVTCA[0]\011/* SetFreedomAndProjectionVectorToAxis */
RTG[ ]\011/* RoundToGrid */
MIAP[1]\011/* MoveIndirectAbsPt */
CALL[ ]\011/* CallFunction */
SRP1[ ]\011/* SetRefPoint1 */
SVTCA[0]\011/* SetFreedomAndProjectionVectorToAxis */
SHP[1]\011/* ShiftPointByLastPoint */
SRP1[ ]\011/* SetRefPoint1 */
SRP2[ ]\011/* SetRefPoint2 */
IP[ ]\011/* InterpolatePts */
SRP1[ ]\011/* SetRefPoint1 */
SRP2[ ]\011/* SetRefPoint2 */
SVTCA[1]\011/* SetFreedomAndProjectionVectorToAxis */
SLOOP[ ]\011/* SetLoopVariable */
IP[ ]\011/* InterpolatePts */
SRP1[ ]\011/* SetRefPoint1 */
SHP[1]\011/* ShiftPointByLastPoint */
SRP1[ ]\011/* SetRefPoint1 */
SHP[1]\011/* ShiftPointByLastPoint */
SRP1[ ]\011/* SetRefPoint1 */
SHP[1]\011/* ShiftPointByLastPoint */
IUP[1]\011/* InterpolateUntPts */
IUP[0]\011/* InterpolateUntPts */";
};
width = 856;
},
{
anchors = (
{
name = bottom;
position = "{391, -78}";
},
{
name = top;
position = "{420, 732}";
}
);
layerId = "15908E2C-AB74-4DC1-B0E7-8741EE8F4DA5";
paths = (
{
closed = 1;
nodes = (
"738 0 LINE",
"738 241 LINE SMOOTH",
"738 415.667 OFFCURVE",
"659.667 495 OFFCURVE",
"509 495 CURVE SMOOTH",
"390.333 495 OFFCURVE",
"294.667 419.333 OFFCURVE",
"232 270 CURVE",
"232 760 LINE",
"147 760 LINE",
"147 78 LINE",
"25 78 LINE SMOOTH",
"21.667 78 OFFCURVE",
"20 76.667 OFFCURVE",
"20 74 CURVE SMOOTH",
"20 5 LINE SMOOTH",
"20 1.667 OFFCURVE",
"21.667 0 OFFCURVE",
"25 0 CURVE SMOOTH"
);
},
{
closed = 1;
nodes = (
"232 160 LINE",
"302.667 332 OFFCURVE",
"391 416 OFFCURVE",
"491 416 CURVE SMOOTH",
"600.333 416 OFFCURVE",
"653 359.667 OFFCURVE",
"653 237 CURVE SMOOTH",
"653 78 LINE",
"232 78 LINE"
);
}
);
userData = {
assembly = "NPUSHB[ ]\011/* 31 values pushed */
17 16 9 24 24 6 3 6 16 3 27 26 9 0 12 12 21 70 89 12 16 7 0 25 5 0 5 70 89 0 18 
SVTCA[0]\011/* SetFreedomAndProjectionVectorToAxis */
MIAP[1]\011/* MoveIndirectAbsPt */
CALL[ ]\011/* CallFunction */
SRP1[ ]\011/* SetRefPoint1 */
SVTCA[0]\011/* SetFreedomAndProjectionVectorToAxis */
SHP[1]\011/* ShiftPointByLastPoint */
RTG[ ]\011/* RoundToGrid */
MIAP[1]\011/* MoveIndirectAbsPt */
MIAP[1]\011/* MoveIndirectAbsPt */
CALL[ ]\011/* CallFunction */
SRP1[ ]\011/* SetRefPoint1 */
SRP2[ ]\011/* SetRefPoint2 */
SVTCA[0]\011/* SetFreedomAndProjectionVectorToAxis */
IP[ ]\011/* InterpolatePts */
SRP1[ ]\011/* SetRefPoint1 */
SRP2[ ]\011/* SetRefPoint2 */
SVTCA[1]\011/* SetFreedomAndProjectionVectorToAxis */
SLOOP[ ]\011/* SetLoopVariable */
IP[ ]\011/* InterpolatePts */
SRP1[ ]\011/* SetRefPoint1 */
SHP[1]\011/* ShiftPointByLastPoint */
SRP1[ ]\011/* SetRefPoint1 */
SHP[1]\011/* ShiftPointByLastPoint */
SRP1[ ]\011/* SetRefPoint1 */
SHP[1]\011/* ShiftPointByLastPoint */
IUP[1]\011/* InterpolateUntPts */
IUP[0]\011/* InterpolateUntPts */";
};
width = 803;
}
);
note = uni0637;
unicode = 0637;
},
{
glyphname = "tah-ar.fina";
lastChange = "2019-08-29 01:59:26 +0000";
layers = (
{
anchors = (
{
name = bottom;
position = "{391, -78}";
},
{
name = top;
position = "{459, 781}";
}
);
layerId = "307C4A58-79B8-4138-817C-FBEE21722E1A";
paths = (
{
closed = 1;
nodes = (
"20 0 LINE",
"911 0 LINE SMOOTH",
"914.333 0 OFFCURVE",
"916 1.667 OFFCURVE",
"916 5 CURVE SMOOTH",
"916 116 LINE SMOOTH",
"916 118.667 OFFCURVE",
"914.333 120 OFFCURVE",
"911 120 CURVE SMOOTH",
"781 120 LINE",
"781 240 LINE SMOOTH",
"781 420 OFFCURVE",
"697 505 OFFCURVE",
"533 505 CURVE SMOOTH",
"413.667 505 OFFCURVE",
"323.333 443.333 OFFCURVE",
"262 320 CURVE",
"262 760 LINE",
"113 760 LINE",
"113 120 LINE",
"20 120 LINE"
);
},
{
closed = 1;
nodes = (
"262 120 LINE",
"262 198 LINE",
"327.333 322.667 OFFCURVE",
"405 385 OFFCURVE",
"495 385 CURVE SMOOTH",
"588.333 385 OFFCURVE",
"632 340.333 OFFCURVE",
"632 243 CURVE SMOOTH",
"632 120 LINE"
);
}
);
userData = {
assembly = "NPUSHB[ ]\011/* 33 values pushed */
4 25 25 1 18 10 10 1 0 3 26 13 27 4 17 6 25 10 0 17 0 70 89 17 18 6 22 70 89 6 16 2 0 
SVTCA[0]\011/* SetFreedomAndProjectionVectorToAxis */
MIAP[1]\011/* MoveIndirectAbsPt */
MIAP[1]\011/* MoveIndirectAbsPt */
CALL[ ]\011/* CallFunction */
SVTCA[0]\011/* SetFreedomAndProjectionVectorToAxis */
RTG[ ]\011/* RoundToGrid */
MIAP[1]\011/* MoveIndirectAbsPt */
CALL[ ]\011/* CallFunction */
SRP1[ ]\011/* SetRefPoint1 */
SVTCA[0]\011/* SetFreedomAndProjectionVectorToAxis */
SHP[1]\011/* ShiftPointByLastPoint */
SHP[1]\011/* ShiftPointByLastPoint */
SRP1[ ]\011/* SetRefPoint1 */
SRP2[ ]\011/* SetRefPoint2 */
IP[ ]\011/* InterpolatePts */
SRP1[ ]\011/* SetRefPoint1 */
SVTCA[1]\011/* SetFreedomAndProjectionVectorToAxis */
SHP[1]\011/* ShiftPointByLastPoint */
SRP2[ ]\011/* SetRefPoint2 */
SLOOP[ ]\011/* SetLoopVariable */
IP[ ]\011/* InterpolatePts */
SRP1[ ]\011/* SetRefPoint1 */
SHP[1]\011/* ShiftPointByLastPoint */
SRP1[ ]\011/* SetRefPoint1 */
SHP[1]\011/* ShiftPointByLastPoint */
SRP1[ ]\011/* SetRefPoint1 */
SHP[1]\011/* ShiftPointByLastPoint */
IUP[1]\011/* InterpolateUntPts */
IUP[0]\011/* InterpolateUntPts */";
};
width = 906;
},
{
anchors = (
{
name = bottom;
position = "{391, -78}";
},
{
name = top;
position = "{420, 732}";
}
);
layerId = "15908E2C-AB74-4DC1-B0E7-8741EE8F4DA5";
paths = (
{
closed = 1;
nodes = (
"30 0 LINE",
"850 0 LINE SMOOTH",
"853.333 0 OFFCURVE",
"855 1.667 OFFCURVE",
"855 5 CURVE SMOOTH",
"855 74 LINE SMOOTH",
"855 76.667 OFFCURVE",
"853.333 78 OFFCURVE",
"850 78 CURVE SMOOTH",
"718 78 LINE",
"718 241 LINE SMOOTH",
"718 415.667 OFFCURVE",
"639.667 495 OFFCURVE",
"489 495 CURVE SMOOTH",
"370.333 495 OFFCURVE",
"274.667 419.333 OFFCURVE",
"212 270 CURVE",
"212 760 LINE",
"127 760 LINE",
"127 78 LINE",
"30 78 LINE"
);
},
{
closed = 1;
nodes = (
"212 78 LINE",
"212 160 LINE",
"282.667 332 OFFCURVE",
"371 416 OFFCURVE",
"471 416 CURVE SMOOTH",
"580.333 416 OFFCURVE",
"633 359.667 OFFCURVE",
"633 237 CURVE SMOOTH",
"633 78 LINE"
);
}
);
userData = {
assembly = "NPUSHB[ ]\011/* 33 values pushed */
19 11 4 26 26 1 0 1 11 3 28 14 29 4 18 7 27 11 0 18 0 70 89 18 18 7 23 70 89 7 16 2 0 
SVTCA[0]\011/* SetFreedomAndProjectionVectorToAxis */
MIAP[1]\011/* MoveIndirectAbsPt */
MIAP[1]\011/* MoveIndirectAbsPt */
CALL[ ]\011/* CallFunction */
SVTCA[0]\011/* SetFreedomAndProjectionVectorToAxis */
RTG[ ]\011/* RoundToGrid */
MIAP[1]\011/* MoveIndirectAbsPt */
CALL[ ]\011/* CallFunction */
SRP1[ ]\011/* SetRefPoint1 */
SVTCA[0]\011/* SetFreedomAndProjectionVectorToAxis */
SHP[1]\011/* ShiftPointByLastPoint */
SHP[1]\011/* ShiftPointByLastPoint */
SRP1[ ]\011/* SetRefPoint1 */
SRP2[ ]\011/* SetRefPoint2 */
IP[ ]\011/* InterpolatePts */
SRP1[ ]\011/* SetRefPoint1 */
SVTCA[1]\011/* SetFreedomAndProjectionVectorToAxis */
SHP[1]\011/* ShiftPointByLastPoint */
SRP2[ ]\011/* SetRefPoint2 */
SLOOP[ ]\011/* SetLoopVariable */
IP[ ]\011/* InterpolatePts */
SRP1[ ]\011/* SetRefPoint1 */
SHP[1]\011/* ShiftPointByLastPoint */
SRP1[ ]\011/* SetRefPoint1 */
SHP[1]\011/* ShiftPointByLastPoint */
SRP1[ ]\011/* SetRefPoint1 */
SHP[1]\011/* ShiftPointByLastPoint */
IUP[1]\011/* InterpolateUntPts */
IUP[0]\011/* InterpolateUntPts */";
};
width = 845;
}
);
note = uni0637.fina;
},
{
glyphname = "tah-ar.medi";
lastChange = "2019-08-29 01:59:26 +0000";
layers = (
{
anchors = (
{
name = bottom;
position = "{361, -78}";
},
{
name = top;
position = "{479, 781}";
}
);
layerId = "307C4A58-79B8-4138-817C-FBEE21722E1A";
paths = (
{
closed = 1;
nodes = (
"911 0 LINE SMOOTH",
"914.333 0 OFFCURVE",
"916 1.667 OFFCURVE",
"916 5 CURVE SMOOTH",
"916 116 LINE SMOOTH",
"916 118.667 OFFCURVE",
"914.333 120 OFFCURVE",
"911 120 CURVE SMOOTH",
"781 120 LINE",
"781 240 LINE SMOOTH",
"781 420 OFFCURVE",
"697 505 OFFCURVE",
"533 505 CURVE SMOOTH",
"413.667 505 OFFCURVE",
"323.333 443.333 OFFCURVE",
"262 320 CURVE",
"262 760 LINE",
"113 760 LINE",
"113 120 LINE",
"-5 120 LINE SMOOTH",
"-8.333 120 OFFCURVE",
"-10 118.667 OFFCURVE",
"-10 116 CURVE SMOOTH",
"-10 5 LINE SMOOTH",
"-10 1.667 OFFCURVE",
"-8.333 0 OFFCURVE",
"-5 0 CURVE SMOOTH"
);
},
{
closed = 1;
nodes = (
"262 120 LINE",
"262 198 LINE",
"327.333 322.667 OFFCURVE",
"405 385 OFFCURVE",
"495 385 CURVE SMOOTH",
"588.333 385 OFFCURVE",
"632 340.333 OFFCURVE",
"632 243 CURVE SMOOTH",
"632 120 LINE"
);
}
);
userData = {
assembly = "NPUSHB[ ]\011/* 33 values pushed */
9 29 29 6 22 15 6 15 30 18 31 3 30 9 0 11 11 26 70 89 11 16 7 0 29 15 5 0 5 70 89 0 18 
SVTCA[0]\011/* SetFreedomAndProjectionVectorToAxis */
MIAP[1]\011/* MoveIndirectAbsPt */
CALL[ ]\011/* CallFunction */
SRP1[ ]\011/* SetRefPoint1 */
SVTCA[0]\011/* SetFreedomAndProjectionVectorToAxis */
SHP[1]\011/* ShiftPointByLastPoint */
SHP[1]\011/* ShiftPointByLastPoint */
RTG[ ]\011/* RoundToGrid */
MIAP[1]\011/* MoveIndirectAbsPt */
MIAP[1]\011/* MoveIndirectAbsPt */
CALL[ ]\011/* CallFunction */
SRP1[ ]\011/* SetRefPoint1 */
SRP2[ ]\011/* SetRefPoint2 */
SVTCA[0]\011/* SetFreedomAndProjectionVectorToAxis */
IP[ ]\011/* InterpolatePts */
SRP1[ ]\011/* SetRefPoint1 */
SVTCA[1]\011/* SetFreedomAndProjectionVectorToAxis */
SHP[1]\011/* ShiftPointByLastPoint */
SRP1[ ]\011/* SetRefPoint1 */
SHP[1]\011/* ShiftPointByLastPoint */
SRP2[ ]\011/* SetRefPoint2 */
IP[ ]\011/* InterpolatePts */
IP[ ]\011/* InterpolatePts */
SRP1[ ]\011/* SetRefPoint1 */
SHP[1]\011/* ShiftPointByLastPoint */
SRP1[ ]\011/* SetRefPoint1 */
SHP[1]\011/* ShiftPointByLastPoint */
SRP1[ ]\011/* SetRefPoint1 */
SHP[1]\011/* ShiftPointByLastPoint */
IUP[1]\011/* InterpolateUntPts */
IUP[0]\011/* InterpolateUntPts */";
};
width = 906;
},
{
anchors = (
{
name = bottom;
position = "{361, -78}";
},
{
name = top;
position = "{391, 732}";
}
);
layerId = "15908E2C-AB74-4DC1-B0E7-8741EE8F4DA5";
paths = (
{
closed = 1;
nodes = (
"840 0 LINE SMOOTH",
"843.333 0 OFFCURVE",
"845 1.667 OFFCURVE",
"845 5 CURVE SMOOTH",
"845 74 LINE SMOOTH",
"845 76.667 OFFCURVE",
"843.333 78 OFFCURVE",
"840 78 CURVE SMOOTH",
"708 78 LINE",
"708 241 LINE SMOOTH",
"708 415.667 OFFCURVE",
"629.667 495 OFFCURVE",
"479 495 CURVE SMOOTH",
"361.667 495 OFFCURVE",
"264.667 419.333 OFFCURVE",
"202 270 CURVE",
"202 760 LINE",
"117 760 LINE",
"117 78 LINE",
"-5 78 LINE SMOOTH",
"-8.333 78 OFFCURVE",
"-10 76.667 OFFCURVE",
"-10 74 CURVE SMOOTH",
"-10 5 LINE SMOOTH",
"-10 1.667 OFFCURVE",
"-8.333 0 OFFCURVE",
"-5 0 CURVE SMOOTH"
);
},
{
closed = 1;
nodes = (
"202 78 LINE",
"202 160 LINE",
"272 330.667 OFFCURVE",
"358.333 416 OFFCURVE",
"461 416 CURVE SMOOTH",
"569 416 OFFCURVE",
"623 359.667 OFFCURVE",
"623 237 CURVE SMOOTH",
"623 78 LINE"
);
}
);
userData = {
assembly = "NPUSHB[ ]\011/* 33 values pushed */
23 16 9 29 29 6 16 6 31 19 32 3 31 9 0 12 12 27 70 89 12 16 7 0 30 16 5 0 5 70 89 0 18 
SVTCA[0]\011/* SetFreedomAndProjectionVectorToAxis */
MIAP[1]\011/* MoveIndirectAbsPt */
CALL[ ]\011/* CallFunction */
SRP1[ ]\011/* SetRefPoint1 */
SVTCA[0]\011/* SetFreedomAndProjectionVectorToAxis */
SHP[1]\011/* ShiftPointByLastPoint */
SHP[1]\011/* ShiftPointByLastPoint */
RTG[ ]\011/* RoundToGrid */
MIAP[1]\011/* MoveIndirectAbsPt */
MIAP[1]\011/* MoveIndirectAbsPt */
CALL[ ]\011/* CallFunction */
SRP1[ ]\011/* SetRefPoint1 */
SRP2[ ]\011/* SetRefPoint2 */
SVTCA[0]\011/* SetFreedomAndProjectionVectorToAxis */
IP[ ]\011/* InterpolatePts */
SRP1[ ]\011/* SetRefPoint1 */
SVTCA[1]\011/* SetFreedomAndProjectionVectorToAxis */
SHP[1]\011/* ShiftPointByLastPoint */
SRP1[ ]\011/* SetRefPoint1 */
SHP[1]\011/* ShiftPointByLastPoint */
SRP2[ ]\011/* SetRefPoint2 */
IP[ ]\011/* InterpolatePts */
IP[ ]\011/* InterpolatePts */
SRP1[ ]\011/* SetRefPoint1 */
SHP[1]\011/* ShiftPointByLastPoint */
SRP1[ ]\011/* SetRefPoint1 */
SHP[1]\011/* ShiftPointByLastPoint */
SRP1[ ]\011/* SetRefPoint1 */
SHP[1]\011/* ShiftPointByLastPoint */
IUP[1]\011/* InterpolateUntPts */
IUP[0]\011/* InterpolateUntPts */";
};
width = 835;
}
);
note = uni0637.medi;
},
{
glyphname = "tah-ar.init";
lastChange = "2019-08-29 01:59:26 +0000";
layers = (
{
anchors = (
{
name = bottom;
position = "{361, -78}";
},
{
name = top;
position = "{479, 781}";
}
);
layerId = "307C4A58-79B8-4138-817C-FBEE21722E1A";
paths = (
{
closed = 1;
nodes = (
"811 0 LINE",
"811 240 LINE SMOOTH",
"811 420 OFFCURVE",
"727 505 OFFCURVE",
"563 505 CURVE SMOOTH",
"443 505 OFFCURVE",
"352.667 443.333 OFFCURVE",
"292 320 CURVE",
"292 760 LINE",
"143 760 LINE",
"143 120 LINE",
"-5 120 LINE SMOOTH",
"-8.333 120 OFFCURVE",
"-10 118.667 OFFCURVE",
"-10 116 CURVE SMOOTH",
"-10 5 LINE SMOOTH",
"-10 1.667 OFFCURVE",
"-8.333 0 OFFCURVE",
"-5 0 CURVE SMOOTH"
);
},
{
closed = 1;
nodes = (
"292 120 LINE",
"292 198 LINE",
"357.333 322.667 OFFCURVE",
"435 385 OFFCURVE",
"525 385 CURVE SMOOTH",
"618.333 385 OFFCURVE",
"662 340.333 OFFCURVE",
"662 243 CURVE SMOOTH",
"662 120 LINE"
);
}
);
userData = {
assembly = "NPUSHB[ ]\011/* 30 values pushed */
17 7 7 14 0 23 14 23 25 11 24 17 8 19 19 4 70 89 19 16 15 0 7 13 8 13 70 89 8 18 
SVTCA[0]\011/* SetFreedomAndProjectionVectorToAxis */
MIAP[1]\011/* MoveIndirectAbsPt */
CALL[ ]\011/* CallFunction */
SRP1[ ]\011/* SetRefPoint1 */
SVTCA[0]\011/* SetFreedomAndProjectionVectorToAxis */
SHP[1]\011/* ShiftPointByLastPoint */
RTG[ ]\011/* RoundToGrid */
MIAP[1]\011/* MoveIndirectAbsPt */
MIAP[1]\011/* MoveIndirectAbsPt */
CALL[ ]\011/* CallFunction */
SRP1[ ]\011/* SetRefPoint1 */
SRP2[ ]\011/* SetRefPoint2 */
SVTCA[0]\011/* SetFreedomAndProjectionVectorToAxis */
IP[ ]\011/* InterpolatePts */
SRP1[ ]\011/* SetRefPoint1 */
SVTCA[1]\011/* SetFreedomAndProjectionVectorToAxis */
SHP[1]\011/* ShiftPointByLastPoint */
SRP2[ ]\011/* SetRefPoint2 */
IP[ ]\011/* InterpolatePts */
IP[ ]\011/* InterpolatePts */
SRP1[ ]\011/* SetRefPoint1 */
SHP[1]\011/* ShiftPointByLastPoint */
SRP1[ ]\011/* SetRefPoint1 */
SHP[1]\011/* ShiftPointByLastPoint */
SRP1[ ]\011/* SetRefPoint1 */
SHP[1]\011/* ShiftPointByLastPoint */
IUP[1]\011/* InterpolateUntPts */
IUP[0]\011/* InterpolateUntPts */";
};
width = 886;
},
{
anchors = (
{
name = bottom;
position = "{361, -78}";
},
{
name = top;
position = "{391, 732}";
}
);
layerId = "15908E2C-AB74-4DC1-B0E7-8741EE8F4DA5";
paths = (
{
closed = 1;
nodes = (
"708 0 LINE",
"708 241 LINE SMOOTH",
"708 415.667 OFFCURVE",
"629.667 495 OFFCURVE",
"479 495 CURVE SMOOTH",
"361.667 495 OFFCURVE",
"264.667 419.333 OFFCURVE",
"202 270 CURVE",
"202 760 LINE",
"117 760 LINE",
"117 78 LINE",
"-5 78 LINE SMOOTH",
"-8.333 78 OFFCURVE",
"-10 76.667 OFFCURVE",
"-10 74 CURVE SMOOTH",
"-10 5 LINE SMOOTH",
"-10 1.667 OFFCURVE",
"-8.333 0 OFFCURVE",
"-5 0 CURVE SMOOTH"
);
},
{
closed = 1;
nodes = (
"202 78 LINE",
"202 160 LINE",
"272 330.667 OFFCURVE",
"358.333 416 OFFCURVE",
"461 416 CURVE SMOOTH",
"569 416 OFFCURVE",
"623 359.667 OFFCURVE",
"623 237 CURVE SMOOTH",
"623 78 LINE"
);
}
);
userData = {
assembly = "NPUSHB[ ]\011/* 30 values pushed */
18 15 9 24 24 6 15 6 26 3 25 9 0 12 12 21 70 89 12 16 7 0 24 5 0 5 70 89 0 18 
SVTCA[0]\011/* SetFreedomAndProjectionVectorToAxis */
MIAP[1]\011/* MoveIndirectAbsPt */
CALL[ ]\011/* CallFunction */
SRP1[ ]\011/* SetRefPoint1 */
SVTCA[0]\011/* SetFreedomAndProjectionVectorToAxis */
SHP[1]\011/* ShiftPointByLastPoint */
RTG[ ]\011/* RoundToGrid */
MIAP[1]\011/* MoveIndirectAbsPt */
MIAP[1]\011/* MoveIndirectAbsPt */
CALL[ ]\011/* CallFunction */
SRP1[ ]\011/* SetRefPoint1 */
SRP2[ ]\011/* SetRefPoint2 */
SVTCA[0]\011/* SetFreedomAndProjectionVectorToAxis */
IP[ ]\011/* InterpolatePts */
SRP1[ ]\011/* SetRefPoint1 */
SVTCA[1]\011/* SetFreedomAndProjectionVectorToAxis */
SHP[1]\011/* ShiftPointByLastPoint */
SRP2[ ]\011/* SetRefPoint2 */
IP[ ]\011/* InterpolatePts */
IP[ ]\011/* InterpolatePts */
SRP1[ ]\011/* SetRefPoint1 */
SHP[1]\011/* ShiftPointByLastPoint */
SRP1[ ]\011/* SetRefPoint1 */
SHP[1]\011/* ShiftPointByLastPoint */
SRP1[ ]\011/* SetRefPoint1 */
SHP[1]\011/* ShiftPointByLastPoint */
IUP[1]\011/* InterpolateUntPts */
IUP[0]\011/* InterpolateUntPts */";
};
width = 773;
}
);
note = uni0637.init;
},
{
glyphname = "ain-ar";
lastChange = "2019-08-29 01:59:26 +0000";
layers = (
{
anchors = (
{
name = bottom;
position = "{234, -381}";
},
{
name = top;
position = "{293, 586}";
}
);
layerId = "307C4A58-79B8-4138-817C-FBEE21722E1A";
paths = (
{
closed = 1;
nodes = (
"357.667 -326 OFFCURVE",
"422.333 -314.667 OFFCURVE",
"487 -292 CURVE",
"470 -183 LINE",
"416.667 -197 OFFCURVE",
"367.667 -204 OFFCURVE",
"323 -204 CURVE SMOOTH",
"249.667 -204 OFFCURVE",
"211 -171 OFFCURVE",
"211 -115 CURVE SMOOTH",
"211 -73 OFFCURVE",
"233.167 -36.167 OFFCURVE",
"277.5 -4.5 CURVE SMOOTH",
"321.833 27.167 OFFCURVE",
"395 56 OFFCURVE",
"497 82 CURVE",
"462 195 LINE",
"404 176.333 OFFCURVE",
"346 154.333 OFFCURVE",
"288 129 CURVE",
"261.333 166.333 OFFCURVE",
"247 202 OFFCURVE",
"247 258 CURVE SMOOTH",
"247 339.333 OFFCURVE",
"292 385 OFFCURVE",
"376 385 CURVE SMOOTH",
"416 385 OFFCURVE",
"452.667 377.667 OFFCURVE",
"506 355 CURVE",
"548 472 LINE",
"510.667 489.333 OFFCURVE",
"438.667 505 OFFCURVE",
"380 505 CURVE SMOOTH",
"209.333 505 OFFCURVE",
"104 413.333 OFFCURVE",
"104 267 CURVE SMOOTH",
"104 204 OFFCURVE",
"145.333 122.667 OFFCURVE",
"192 76 CURVE",
"107.333 18 OFFCURVE",
"65 -48.333 OFFCURVE",
"65 -123 CURVE SMOOTH",
"65 -244.333 OFFCURVE",
"155.667 -326 OFFCURVE",
"293 -326 CURVE SMOOTH"
);
}
);
userData = {
assembly = "NPUSHB[ ]\011/* 34 values pushed */
24 5 21 8 30 3 3 8 5 36 27 14 6 39 38 27 5 24 26 26 0 11 11 18 70 89 11 16 0 33 70 89 0 28 
SVTCA[0]\011/* SetFreedomAndProjectionVectorToAxis */
MIAP[1]\011/* MoveIndirectAbsPt */
CALL[ ]\011/* CallFunction */
SVTCA[0]\011/* SetFreedomAndProjectionVectorToAxis */
RTG[ ]\011/* RoundToGrid */
MIAP[1]\011/* MoveIndirectAbsPt */
CALL[ ]\011/* CallFunction */
SRP1[ ]\011/* SetRefPoint1 */
SRP2[ ]\011/* SetRefPoint2 */
SVTCA[0]\011/* SetFreedomAndProjectionVectorToAxis */
IP[ ]\011/* InterpolatePts */
RTG[ ]\011/* RoundToGrid */
MDAP[1]\011/* MoveDirectAbsPt */
IP[ ]\011/* InterpolatePts */
IP[ ]\011/* InterpolatePts */
SHP[1]\011/* ShiftPointByLastPoint */
SRP1[ ]\011/* SetRefPoint1 */
SRP2[ ]\011/* SetRefPoint2 */
SVTCA[1]\011/* SetFreedomAndProjectionVectorToAxis */
SLOOP[ ]\011/* SetLoopVariable */
IP[ ]\011/* InterpolatePts */
SRP1[ ]\011/* SetRefPoint1 */
SHP[1]\011/* ShiftPointByLastPoint */
SRP1[ ]\011/* SetRefPoint1 */
SHP[1]\011/* ShiftPointByLastPoint */
SRP1[ ]\011/* SetRefPoint1 */
SHP[1]\011/* ShiftPointByLastPoint */
IUP[1]\011/* InterpolateUntPts */
IUP[0]\011/* InterpolateUntPts */";
};
width = 593;
},
{
anchors = (
{
name = bottom;
position = "{195, -381}";
},
{
name = top;
position = "{293, 586}";
}
);
layerId = "15908E2C-AB74-4DC1-B0E7-8741EE8F4DA5";
paths = (
{
closed = 1;
nodes = (
"326.333 -321 OFFCURVE",
"372.333 -317 OFFCURVE",
"467 -297 CURVE",
"456 -228 LINE",
"391.333 -238.667 OFFCURVE",
"342.333 -244 OFFCURVE",
"309 -244 CURVE SMOOTH",
"205 -244 OFFCURVE",
"156 -206.667 OFFCURVE",
"156 -120 CURVE SMOOTH",
"156 -61.333 OFFCURVE",
"200.5 -6 OFFCURVE",
"294.5 42 CURVE SMOOTH",
"341.5 66 OFFCURVE",
"394.333 85.333 OFFCURVE",
"453 100 CURVE",
"429 174 LINE",
"369.667 156 OFFCURVE",
"312.333 133.333 OFFCURVE",
"257 106 CURVE",
"219.667 139.333 OFFCURVE",
"196 199.667 OFFCURVE",
"196 269 CURVE SMOOTH",
"196 363.667 OFFCURVE",
"250 417 OFFCURVE",
"346 417 CURVE SMOOTH",
"382.667 417 OFFCURVE",
"421.667 408.333 OFFCURVE",
"463 391 CURVE",
"490 466 LINE",
"459.333 482 OFFCURVE",
"408.333 495 OFFCURVE",
"351 495 CURVE SMOOTH",
"211 495 OFFCURVE",
"105 411 OFFCURVE",
"105 268 CURVE SMOOTH",
"105 186.667 OFFCURVE",
"134.667 120.333 OFFCURVE",
"194 69 CURVE",
"108 11.667 OFFCURVE",
"65 -54 OFFCURVE",
"65 -128 CURVE SMOOTH",
"65 -250.667 OFFCURVE",
"143.667 -321 OFFCURVE",
"273 -321 CURVE SMOOTH"
);
}
);
userData = {
assembly = "NPUSHB[ ]\011/* 40 values pushed */
23 5 20 7 30 3 3 7 5 26 36 14 6 40 39 26 23 5 0 15 25 1 11 3 25 25 11 0 11 17 70 89 11 16 0 33 70 89 0 28 
SVTCA[0]\011/* SetFreedomAndProjectionVectorToAxis */
MIAP[1]\011/* MoveIndirectAbsPt */
CALL[ ]\011/* CallFunction */
SVTCA[0]\011/* SetFreedomAndProjectionVectorToAxis */
RTG[ ]\011/* RoundToGrid */
MIAP[1]\011/* MoveIndirectAbsPt */
CALL[ ]\011/* CallFunction */
SRP1[ ]\011/* SetRefPoint1 */
SRP2[ ]\011/* SetRefPoint2 */
SVTCA[0]\011/* SetFreedomAndProjectionVectorToAxis */
IP[ ]\011/* InterpolatePts */
RTG[ ]\011/* RoundToGrid */
MDAP[1]\011/* MoveDirectAbsPt */
SDS[ ]\011/* SetDeltaShiftInGState */
SDB[ ]\011/* SetDeltaBaseInGState */
DELTAP1[ ]\011/* DeltaExceptionP1 */
SRP2[ ]\011/* SetRefPoint2 */
IP[ ]\011/* InterpolatePts */
IP[ ]\011/* InterpolatePts */
SHP[1]\011/* ShiftPointByLastPoint */
SRP1[ ]\011/* SetRefPoint1 */
SRP2[ ]\011/* SetRefPoint2 */
SVTCA[1]\011/* SetFreedomAndProjectionVectorToAxis */
SLOOP[ ]\011/* SetLoopVariable */
IP[ ]\011/* InterpolatePts */
SRP1[ ]\011/* SetRefPoint1 */
SHP[1]\011/* ShiftPointByLastPoint */
SRP1[ ]\011/* SetRefPoint1 */
SHP[1]\011/* ShiftPointByLastPoint */
SRP1[ ]\011/* SetRefPoint1 */
SHP[1]\011/* ShiftPointByLastPoint */
IUP[1]\011/* InterpolateUntPts */
IUP[0]\011/* InterpolateUntPts */";
};
width = 535;
}
);
note = uni0639;
unicode = 0639;
},
{
glyphname = "ain-ar.fina";
lastChange = "2019-08-29 01:59:26 +0000";
layers = (
{
anchors = (
{
name = bottom;
position = "{234, -381}";
},
{
name = top;
position = "{293, 605}";
}
);
layerId = "307C4A58-79B8-4138-817C-FBEE21722E1A";
paths = (
{
closed = 1;
nodes = (
"69 -244.333 OFFCURVE",
"159.667 -326 OFFCURVE",
"297 -326 CURVE SMOOTH",
"361 -326 OFFCURVE",
"419 -317.333 OFFCURVE",
"491 -292 CURVE",
"474 -183 LINE",
"420.667 -197 OFFCURVE",
"371.667 -204 OFFCURVE",
"327 -204 CURVE SMOOTH",
"253.667 -204 OFFCURVE",
"215 -171 OFFCURVE",
"215 -115 CURVE SMOOTH",
"215 -55 OFFCURVE",
"248 -4 OFFCURVE",
"328 56 CURVE",
"388 21.333 OFFCURVE",
"458.667 0 OFFCURVE",
"512 0 CURVE SMOOTH",
"639 0 LINE SMOOTH",
"642.333 0 OFFCURVE",
"644 1.667 OFFCURVE",
"644 5 CURVE SMOOTH",
"644 116 LINE SMOOTH",
"644 118.667 OFFCURVE",
"642.333 120 OFFCURVE",
"639 120 CURVE SMOOTH",
"524 120 LINE SMOOTH",
"490 120 OFFCURVE",
"459.667 124 OFFCURVE",
"433 132 CURVE",
"539.667 220 OFFCURVE",
"597 339.667 OFFCURVE",
"597 477 CURVE",
"524.333 517 OFFCURVE",
"440.667 537 OFFCURVE",
"346 537 CURVE SMOOTH",
"252.667 537 OFFCURVE",
"142.333 496 OFFCURVE",
"65 432 CURVE",
"82.333 324 OFFCURVE",
"146.667 205 OFFCURVE",
"232 125 CURVE",
"120 43.667 OFFCURVE",
"69 -35 OFFCURVE",
"69 -123 CURVE SMOOTH"
);
},
{
closed = 1;
nodes = (
"240.667 399 OFFCURVE",
"299.333 417 OFFCURVE",
"342 417 CURVE SMOOTH",
"388.667 417 OFFCURVE",
"421.667 412.333 OFFCURVE",
"455 399 CURVE",
"448.333 317.667 OFFCURVE",
"401.333 241.667 OFFCURVE",
"332 191 CURVE",
"274.667 244.333 OFFCURVE",
"235.333 307 OFFCURVE",
"214 379 CURVE"
);
}
);
userData = {
assembly = "NPUSHB[ ]\011/* 42 values pushed */
41 6 29 0 46 11 11 35 14 43 26 3 0 6 8 52 19 53 38 32 70 89 38 28 26 3 14 43 4 9 23 23 16 70 89 23 18 9 49 70 89 9 
SVTCA[0]\011/* SetFreedomAndProjectionVectorToAxis */
MDAP[1]\011/* MoveDirectAbsPt */
CALL[ ]\011/* CallFunction */
SVTCA[0]\011/* SetFreedomAndProjectionVectorToAxis */
RTG[ ]\011/* RoundToGrid */
MIAP[1]\011/* MoveIndirectAbsPt */
CALL[ ]\011/* CallFunction */
SRP1[ ]\011/* SetRefPoint1 */
SRP2[ ]\011/* SetRefPoint2 */
SVTCA[0]\011/* SetFreedomAndProjectionVectorToAxis */
SLOOP[ ]\011/* SetLoopVariable */
IP[ ]\011/* InterpolatePts */
RTG[ ]\011/* RoundToGrid */
MIAP[1]\011/* MoveIndirectAbsPt */
CALL[ ]\011/* CallFunction */
SRP1[ ]\011/* SetRefPoint1 */
SVTCA[1]\011/* SetFreedomAndProjectionVectorToAxis */
SHP[1]\011/* ShiftPointByLastPoint */
SRP2[ ]\011/* SetRefPoint2 */
SLOOP[ ]\011/* SetLoopVariable */
IP[ ]\011/* InterpolatePts */
SRP1[ ]\011/* SetRefPoint1 */
SHP[1]\011/* ShiftPointByLastPoint */
SRP1[ ]\011/* SetRefPoint1 */
SHP[1]\011/* ShiftPointByLastPoint */
SRP1[ ]\011/* SetRefPoint1 */
SHP[1]\011/* ShiftPointByLastPoint */
IUP[1]\011/* InterpolateUntPts */
IUP[0]\011/* InterpolateUntPts */";
};
width = 634;
},
{
anchors = (
{
name = bottom;
position = "{195, -381}";
},
{
name = top;
position = "{293, 586}";
}
);
layerId = "15908E2C-AB74-4DC1-B0E7-8741EE8F4DA5";
paths = (
{
closed = 1;
nodes = (
"94 -249.333 OFFCURVE",
"172.667 -321 OFFCURVE",
"302 -321 CURVE SMOOTH",
"360.667 -321 OFFCURVE",
"400 -317 OFFCURVE",
"496 -297 CURVE",
"485 -228 LINE",
"438.333 -236 OFFCURVE",
"390 -244 OFFCURVE",
"338 -244 CURVE SMOOTH",
"232.667 -244 OFFCURVE",
"185 -205.333 OFFCURVE",
"185 -120 CURVE SMOOTH",
"185 -60 OFFCURVE",
"219.333 -7 OFFCURVE",
"314 53 CURVE",
"370 22.333 OFFCURVE",
"451.333 0 OFFCURVE",
"502 0 CURVE SMOOTH",
"619 0 LINE SMOOTH",
"622.333 0 OFFCURVE",
"624 1.667 OFFCURVE",
"624 5 CURVE SMOOTH",
"624 74 LINE SMOOTH",
"624 76.667 OFFCURVE",
"622.333 78 OFFCURVE",
"619 78 CURVE SMOOTH",
"498 78 LINE SMOOTH",
"458.667 78 OFFCURVE",
"421 85.667 OFFCURVE",
"385 101 CURVE",
"501 191.667 OFFCURVE",
"564.333 316 OFFCURVE",
"567 444 CURVE",
"503 488 OFFCURVE",
"412 517 OFFCURVE",
"328 517 CURVE SMOOTH",
"233.333 517 OFFCURVE",
"138.333 475 OFFCURVE",
"65 407 CURVE",
"79.667 311 OFFCURVE",
"151.333 190.667 OFFCURVE",
"246 100 CURVE",
"140.667 26.667 OFFCURVE",
"94 -44 OFFCURVE",
"94 -128 CURVE SMOOTH"
);
},
{
closed = 1;
nodes = (
"217.667 419.667 OFFCURVE",
"274.333 439 OFFCURVE",
"331 439 CURVE SMOOTH",
"380.333 439 OFFCURVE",
"428.333 426.667 OFFCURVE",
"475 402 CURVE",
"467 296.667 OFFCURVE",
"417.667 216.667 OFFCURVE",
"315 146 CURVE",
"236.333 210 OFFCURVE",
"177 303.667 OFFCURVE",
"161 381 CURVE"
);
}
);
userData = {
assembly = "NPUSHB[ ]\011/* 44 values pushed */
49 30 0 15 46 27 3 4 12 43 6 6 0 37 12 4 53 20 54 40 33 70 89 40 28 15 3 27 27 46 46 9 24 24 17 70 89 24 18 9 51 70 89 9 
SVTCA[0]\011/* SetFreedomAndProjectionVectorToAxis */
MDAP[1]\011/* MoveDirectAbsPt */
CALL[ ]\011/* CallFunction */
SVTCA[0]\011/* SetFreedomAndProjectionVectorToAxis */
RTG[ ]\011/* RoundToGrid */
MIAP[1]\011/* MoveIndirectAbsPt */
CALL[ ]\011/* CallFunction */
SRP1[ ]\011/* SetRefPoint1 */
SRP2[ ]\011/* SetRefPoint2 */
SVTCA[0]\011/* SetFreedomAndProjectionVectorToAxis */
IP[ ]\011/* InterpolatePts */
SRP1[ ]\011/* SetRefPoint1 */
SHP[1]\011/* ShiftPointByLastPoint */
SRP2[ ]\011/* SetRefPoint2 */
IP[ ]\011/* InterpolatePts */
IP[ ]\011/* InterpolatePts */
RTG[ ]\011/* RoundToGrid */
MIAP[1]\011/* MoveIndirectAbsPt */
CALL[ ]\011/* CallFunction */
SRP1[ ]\011/* SetRefPoint1 */
SVTCA[1]\011/* SetFreedomAndProjectionVectorToAxis */
SHP[1]\011/* ShiftPointByLastPoint */
SRP2[ ]\011/* SetRefPoint2 */
SLOOP[ ]\011/* SetLoopVariable */
IP[ ]\011/* InterpolatePts */
SRP1[ ]\011/* SetRefPoint1 */
SHP[1]\011/* ShiftPointByLastPoint */
SRP2[ ]\011/* SetRefPoint2 */
SLOOP[ ]\011/* SetLoopVariable */
IP[ ]\011/* InterpolatePts */
SRP1[ ]\011/* SetRefPoint1 */
SHP[1]\011/* ShiftPointByLastPoint */
SHP[0]\011/* ShiftPointByLastPoint */
IUP[1]\011/* InterpolateUntPts */
IUP[0]\011/* InterpolateUntPts */";
};
width = 614;
}
);
note = uni0639.fina;
},
{
glyphname = "ain-ar.medi";
lastChange = "2019-08-29 01:59:26 +0000";
layers = (
{
anchors = (
{
name = bottom;
position = "{244, -78}";
},
{
name = top;
position = "{273, 625}";
}
);
layerId = "307C4A58-79B8-4138-817C-FBEE21722E1A";
paths = (
{
closed = 1;
nodes = (
"609 0 LINE SMOOTH",
"612.333 0 OFFCURVE",
"614 1.667 OFFCURVE",
"614 5 CURVE SMOOTH",
"614 116 LINE SMOOTH",
"614 118.667 OFFCURVE",
"612.333 120 OFFCURVE",
"609 120 CURVE SMOOTH",
"494 120 LINE SMOOTH",
"458.667 120 OFFCURVE",
"428.667 126.667 OFFCURVE",
"404 140 CURVE",
"504 204 OFFCURVE",
"567 333 OFFCURVE",
"567 477 CURVE",
"495 517 OFFCURVE",
"411.333 537 OFFCURVE",
"316 537 CURVE SMOOTH",
"222.667 537 OFFCURVE",
"113.667 497.333 OFFCURVE",
"35 432 CURVE",
"47 360 OFFCURVE",
"82 277.5 OFFCURVE",
"126 211.5 CURVE SMOOTH",
"148 178.5 OFFCURVE",
"169 154.333 OFFCURVE",
"189 139 CURVE",
"166.333 128.333 OFFCURVE",
"125.667 120 OFFCURVE",
"95 120 CURVE SMOOTH",
"-5 120 LINE SMOOTH",
"-8.333 120 OFFCURVE",
"-10 118.667 OFFCURVE",
"-10 116 CURVE SMOOTH",
"-10 5 LINE SMOOTH",
"-10 1.667 OFFCURVE",
"-8.333 0 OFFCURVE",
"-5 0 CURVE SMOOTH",
"111 0 LINE SMOOTH",
"173.667 0 OFFCURVE",
"235.667 18.667 OFFCURVE",
"297 56 CURVE",
"345 24 OFFCURVE",
"419.333 0 OFFCURVE",
"482 0 CURVE SMOOTH"
);
},
{
closed = 1;
nodes = (
"247 235.667 OFFCURVE",
"204 305.667 OFFCURVE",
"184 379 CURVE",
"213.333 400.333 OFFCURVE",
"269.333 417 OFFCURVE",
"312 417 CURVE SMOOTH",
"358 417 OFFCURVE",
"395.667 411 OFFCURVE",
"425 399 CURVE",
"419 313.667 OFFCURVE",
"377 247.667 OFFCURVE",
"299 201 CURVE"
);
}
);
userData = {
assembly = "NPUSHB[ ]\011/* 40 values pushed */
38 30 43 25 25 21 9 36 33 30 6 46 3 47 15 46 9 21 33 36 4 28 6 28 40 70 89 28 11 18 70 89 11 18 6 35 70 89 6 18 
SVTCA[0]\011/* SetFreedomAndProjectionVectorToAxis */
MIAP[1]\011/* MoveIndirectAbsPt */
CALL[ ]\011/* CallFunction */
SVTCA[0]\011/* SetFreedomAndProjectionVectorToAxis */
RTG[ ]\011/* RoundToGrid */
MIAP[1]\011/* MoveIndirectAbsPt */
CALL[ ]\011/* CallFunction */
SVTCA[0]\011/* SetFreedomAndProjectionVectorToAxis */
RTG[ ]\011/* RoundToGrid */
MDAP[1]\011/* MoveDirectAbsPt */
CALL[ ]\011/* CallFunction */
SRP1[ ]\011/* SetRefPoint1 */
SRP2[ ]\011/* SetRefPoint2 */
SVTCA[0]\011/* SetFreedomAndProjectionVectorToAxis */
SLOOP[ ]\011/* SetLoopVariable */
IP[ ]\011/* InterpolatePts */
SRP1[ ]\011/* SetRefPoint1 */
SVTCA[1]\011/* SetFreedomAndProjectionVectorToAxis */
SHP[1]\011/* ShiftPointByLastPoint */
SRP1[ ]\011/* SetRefPoint1 */
SHP[1]\011/* ShiftPointByLastPoint */
SRP2[ ]\011/* SetRefPoint2 */
SLOOP[ ]\011/* SetLoopVariable */
IP[ ]\011/* InterpolatePts */
SRP1[ ]\011/* SetRefPoint1 */
SHP[1]\011/* ShiftPointByLastPoint */
SRP1[ ]\011/* SetRefPoint1 */
SHP[1]\011/* ShiftPointByLastPoint */
IUP[1]\011/* InterpolateUntPts */
IUP[0]\011/* InterpolateUntPts */";
};
width = 604;
},
{
anchors = (
{
name = bottom;
position = "{244, -78}";
},
{
name = top;
position = "{273, 586}";
}
);
layerId = "15908E2C-AB74-4DC1-B0E7-8741EE8F4DA5";
paths = (
{
closed = 1;
nodes = (
"599 0 LINE SMOOTH",
"602.333 0 OFFCURVE",
"604 1.667 OFFCURVE",
"604 5 CURVE SMOOTH",
"604 74 LINE SMOOTH",
"604 76.667 OFFCURVE",
"602.333 78 OFFCURVE",
"599 78 CURVE SMOOTH",
"478 78 LINE SMOOTH",
"441.333 78 OFFCURVE",
"404.333 85 OFFCURVE",
"367 99 CURVE",
"479 176.333 OFFCURVE",
"547 305.333 OFFCURVE",
"547 444 CURVE",
"483 488 OFFCURVE",
"392 517 OFFCURVE",
"308 517 CURVE SMOOTH",
"213.333 517 OFFCURVE",
"118.333 475 OFFCURVE",
"45 407 CURVE",
"57 335 OFFCURVE",
"96.667 248.5 OFFCURVE",
"150 178.5 CURVE SMOOTH",
"176.667 143.5 OFFCURVE",
"203 116.667 OFFCURVE",
"229 98 CURVE",
"197.667 84.667 OFFCURVE",
"158 78 OFFCURVE",
"110 78 CURVE SMOOTH",
"-5 78 LINE SMOOTH",
"-8.333 78 OFFCURVE",
"-10 76.667 OFFCURVE",
"-10 74 CURVE SMOOTH",
"-10 5 LINE SMOOTH",
"-10 1.667 OFFCURVE",
"-8.333 0 OFFCURVE",
"-5 0 CURVE SMOOTH",
"111 0 LINE SMOOTH",
"176.333 0 OFFCURVE",
"238.333 16.667 OFFCURVE",
"297 50 CURVE",
"358.333 16.667 OFFCURVE",
"426 0 OFFCURVE",
"482 0 CURVE SMOOTH"
);
},
{
closed = 1;
nodes = (
"219.333 201.667 OFFCURVE",
"161 289 OFFCURVE",
"141 381 CURVE",
"197.667 419.667 OFFCURVE",
"254.333 439 OFFCURVE",
"311 439 CURVE SMOOTH",
"360.333 439 OFFCURVE",
"408.333 426.667 OFFCURVE",
"455 402 CURVE",
"448.333 292.667 OFFCURVE",
"400.667 212.333 OFFCURVE",
"298 143 CURVE"
);
}
);
userData = {
assembly = "NPUSHB[ ]\011/* 41 values pushed */
43 14 3 36 27 4 18 39 24 18 24 46 32 47 9 46 27 14 3 3 36 36 21 5 21 41 70 89 21 5 12 70 89 5 18 0 29 70 89 0 18 
SVTCA[0]\011/* SetFreedomAndProjectionVectorToAxis */
MIAP[1]\011/* MoveIndirectAbsPt */
CALL[ ]\011/* CallFunction */
SVTCA[0]\011/* SetFreedomAndProjectionVectorToAxis */
RTG[ ]\011/* RoundToGrid */
MIAP[1]\011/* MoveIndirectAbsPt */
CALL[ ]\011/* CallFunction */
SVTCA[0]\011/* SetFreedomAndProjectionVectorToAxis */
RTG[ ]\011/* RoundToGrid */
MDAP[1]\011/* MoveDirectAbsPt */
CALL[ ]\011/* CallFunction */
SRP1[ ]\011/* SetRefPoint1 */
SRP2[ ]\011/* SetRefPoint2 */
SVTCA[0]\011/* SetFreedomAndProjectionVectorToAxis */
IP[ ]\011/* InterpolatePts */
SRP1[ ]\011/* SetRefPoint1 */
SHP[1]\011/* ShiftPointByLastPoint */
SRP2[ ]\011/* SetRefPoint2 */
IP[ ]\011/* InterpolatePts */
IP[ ]\011/* InterpolatePts */
SRP1[ ]\011/* SetRefPoint1 */
SVTCA[1]\011/* SetFreedomAndProjectionVectorToAxis */
SHP[1]\011/* ShiftPointByLastPoint */
SRP1[ ]\011/* SetRefPoint1 */
SHP[1]\011/* ShiftPointByLastPoint */
SRP2[ ]\011/* SetRefPoint2 */
IP[ ]\011/* InterpolatePts */
IP[ ]\011/* InterpolatePts */
SRP1[ ]\011/* SetRefPoint1 */
SHP[1]\011/* ShiftPointByLastPoint */
SRP2[ ]\011/* SetRefPoint2 */
SLOOP[ ]\011/* SetLoopVariable */
IP[ ]\011/* InterpolatePts */
SHP[0]\011/* ShiftPointByLastPoint */
IUP[1]\011/* InterpolateUntPts */
IUP[0]\011/* InterpolateUntPts */";
};
width = 594;
}
);
note = uni0639.medi;
},
{
glyphname = "ain-ar.init";
lastChange = "2019-08-29 01:59:26 +0000";
layers = (
{
anchors = (
{
name = bottom;
position = "{244, -78}";
},
{
name = top;
position = "{273, 586}";
}
);
layerId = "307C4A58-79B8-4138-817C-FBEE21722E1A";
paths = (
{
closed = 1;
nodes = (
"522 0 LINE",
"522 120 LINE",
"339 120 LINE SMOOTH",
"260.333 120 OFFCURVE",
"211 176.667 OFFCURVE",
"211 258 CURVE SMOOTH",
"211 339.333 OFFCURVE",
"257.333 385 OFFCURVE",
"340 385 CURVE SMOOTH",
"381.333 385 OFFCURVE",
"419.333 377.667 OFFCURVE",
"470 355 CURVE",
"512 472 LINE",
"474.667 489.333 OFFCURVE",
"402.667 505 OFFCURVE",
"344 505 CURVE SMOOTH",
"173.333 505 OFFCURVE",
"68 413.333 OFFCURVE",
"68 264 CURVE SMOOTH",
"68 200 OFFCURVE",
"99.667 142.667 OFFCURVE",
"149 120 CURVE",
"-5 120 LINE SMOOTH",
"-8.333 120 OFFCURVE",
"-10 118.667 OFFCURVE",
"-10 116 CURVE SMOOTH",
"-10 5 LINE SMOOTH",
"-10 1.667 OFFCURVE",
"-8.333 0 OFFCURVE",
"-5 0 CURVE SMOOTH"
);
}
);
userData = {
assembly = "NPUSHB[ ]\011/* 23 values pushed */
22 9 9 15 26 3 29 3 28 12 19 70 89 12 16 25 5 0 5 70 89 0 18 
SVTCA[0]\011/* SetFreedomAndProjectionVectorToAxis */
MIAP[1]\011/* MoveIndirectAbsPt */
CALL[ ]\011/* CallFunction */
SRP1[ ]\011/* SetRefPoint1 */
SVTCA[0]\011/* SetFreedomAndProjectionVectorToAxis */
SHP[1]\011/* ShiftPointByLastPoint */
RTG[ ]\011/* RoundToGrid */
MIAP[1]\011/* MoveIndirectAbsPt */
CALL[ ]\011/* CallFunction */
SRP1[ ]\011/* SetRefPoint1 */
SVTCA[1]\011/* SetFreedomAndProjectionVectorToAxis */
SHP[1]\011/* ShiftPointByLastPoint */
SRP2[ ]\011/* SetRefPoint2 */
SLOOP[ ]\011/* SetLoopVariable */
IP[ ]\011/* InterpolatePts */
SRP1[ ]\011/* SetRefPoint1 */
SHP[1]\011/* ShiftPointByLastPoint */
IUP[1]\011/* InterpolateUntPts */
IUP[0]\011/* InterpolateUntPts */";
};
width = 567;
},
{
anchors = (
{
name = bottom;
position = "{244, -78}";
},
{
name = top;
position = "{273, 586}";
}
);
layerId = "15908E2C-AB74-4DC1-B0E7-8741EE8F4DA5";
paths = (
{
closed = 1;
nodes = (
"470 0 LINE",
"470 78 LINE",
"292 78 LINE SMOOTH",
"218.667 78 OFFCURVE",
"169 148 OFFCURVE",
"169 252 CURVE SMOOTH",
"169 362 OFFCURVE",
"216.333 417 OFFCURVE",
"311 417 CURVE SMOOTH",
"347.667 417 OFFCURVE",
"386.667 408.333 OFFCURVE",
"428 391 CURVE",
"455 466 LINE",
"424.333 482 OFFCURVE",
"373.333 495 OFFCURVE",
"316 495 CURVE SMOOTH",
"172 495 OFFCURVE",
"78 406.667 OFFCURVE",
"78 256 CURVE SMOOTH",
"78 180 OFFCURVE",
"106.333 114 OFFCURVE",
"149 78 CURVE",
"-5 78 LINE SMOOTH",
"-8.333 78 OFFCURVE",
"-10 76.667 OFFCURVE",
"-10 74 CURVE SMOOTH",
"-10 5 LINE SMOOTH",
"-10 1.667 OFFCURVE",
"-8.333 0 OFFCURVE",
"-5 0 CURVE SMOOTH"
);
}
);
userData = {
assembly = "NPUSHB[ ]\011/* 24 values pushed */
20 9 9 6 15 24 4 27 3 26 12 18 70 89 12 16 23 5 0 5 70 89 0 18 
SVTCA[0]\011/* SetFreedomAndProjectionVectorToAxis */
MIAP[1]\011/* MoveIndirectAbsPt */
CALL[ ]\011/* CallFunction */
SRP1[ ]\011/* SetRefPoint1 */
SVTCA[0]\011/* SetFreedomAndProjectionVectorToAxis */
SHP[1]\011/* ShiftPointByLastPoint */
RTG[ ]\011/* RoundToGrid */
MIAP[1]\011/* MoveIndirectAbsPt */
CALL[ ]\011/* CallFunction */
SRP1[ ]\011/* SetRefPoint1 */
SVTCA[1]\011/* SetFreedomAndProjectionVectorToAxis */
SHP[1]\011/* ShiftPointByLastPoint */
SRP2[ ]\011/* SetRefPoint2 */
SLOOP[ ]\011/* SetLoopVariable */
IP[ ]\011/* InterpolatePts */
SRP1[ ]\011/* SetRefPoint1 */
SHP[1]\011/* ShiftPointByLastPoint */
IUP[1]\011/* InterpolateUntPts */
IUP[0]\011/* InterpolateUntPts */";
};
width = 515;
}
);
note = uni0639.init;
},
{
glyphname = "fehDotless-ar.fina";
lastChange = "2019-08-29 01:59:26 +0000";
layers = (
{
anchors = (
{
name = bottom;
position = "{732, -78}";
},
{
name = top;
position = "{732, 566}";
}
);
layerId = "307C4A58-79B8-4138-817C-FBEE21722E1A";
paths = (
{
closed = 1;
nodes = (
"1115 0 LINE SMOOTH",
"1118.333 0 OFFCURVE",
"1120 1.667 OFFCURVE",
"1120 5 CURVE SMOOTH",
"1120 116 LINE SMOOTH",
"1120 118.667 OFFCURVE",
"1118.333 120 OFFCURVE",
"1115 120 CURVE SMOOTH",
"990 120 LINE",
"990 495 LINE",
"812 495 LINE SMOOTH",
"628 495 OFFCURVE",
"520 401.333 OFFCURVE",
"520 252 CURVE SMOOTH",
"520 202.667 OFFCURVE",
"536 158.667 OFFCURVE",
"568 120 CURVE",
"308 120 LINE SMOOTH",
"252 120 OFFCURVE",
"214 161.667 OFFCURVE",
"214 223 CURVE SMOOTH",
"214 267 OFFCURVE",
"219 310.667 OFFCURVE",
"229 354 CURVE",
"97 354 LINE",
"78.333 314 OFFCURVE",
"65 251.667 OFFCURVE",
"65 201 CURVE SMOOTH",
"65 75.667 OFFCURVE",
"141.333 0 OFFCURVE",
"264 0 CURVE SMOOTH"
);
},
{
closed = 1;
nodes = (
"722.333 120 OFFCURVE",
"673 165.333 OFFCURVE",
"673 244 CURVE SMOOTH",
"673 329.333 OFFCURVE",
"724.333 375 OFFCURVE",
"815 375 CURVE SMOOTH",
"841 375 LINE",
"841 120 LINE",
"813 120 LINE SMOOTH"
);
}
);
userData = {
assembly = "NPUSHB[ ]\011/* 32 values pushed */
24 18 5 30 0 35 35 30 18 3 36 11 37 21 21 15 33 33 2 70 89 33 15 35 8 27 15 27 70 89 15 18 
SVTCA[0]\011/* SetFreedomAndProjectionVectorToAxis */
MIAP[1]\011/* MoveIndirectAbsPt */
CALL[ ]\011/* CallFunction */
SRP1[ ]\011/* SetRefPoint1 */
SVTCA[0]\011/* SetFreedomAndProjectionVectorToAxis */
SHP[1]\011/* ShiftPointByLastPoint */
SHP[1]\011/* ShiftPointByLastPoint */
RTG[ ]\011/* RoundToGrid */
MIAP[1]\011/* MoveIndirectAbsPt */
CALL[ ]\011/* CallFunction */
SRP1[ ]\011/* SetRefPoint1 */
SRP2[ ]\011/* SetRefPoint2 */
SVTCA[0]\011/* SetFreedomAndProjectionVectorToAxis */
IP[ ]\011/* InterpolatePts */
RTG[ ]\011/* RoundToGrid */
MDAP[1]\011/* MoveDirectAbsPt */
SRP1[ ]\011/* SetRefPoint1 */
SVTCA[1]\011/* SetFreedomAndProjectionVectorToAxis */
SHP[1]\011/* ShiftPointByLastPoint */
SRP2[ ]\011/* SetRefPoint2 */
SLOOP[ ]\011/* SetLoopVariable */
IP[ ]\011/* InterpolatePts */
SRP1[ ]\011/* SetRefPoint1 */
SHP[1]\011/* ShiftPointByLastPoint */
SRP1[ ]\011/* SetRefPoint1 */
SHP[1]\011/* ShiftPointByLastPoint */
SRP1[ ]\011/* SetRefPoint1 */
SHP[1]\011/* ShiftPointByLastPoint */
IUP[1]\011/* InterpolateUntPts */
IUP[0]\011/* InterpolateUntPts */";
};
width = 1110;
},
{
anchors = (
{
name = bottom;
position = "{732, -78}";
},
{
name = top;
position = "{732, 566}";
}
);
layerId = "15908E2C-AB74-4DC1-B0E7-8741EE8F4DA5";
paths = (
{
closed = 1;
nodes = (
"1037 0 LINE SMOOTH",
"1040.333 0 OFFCURVE",
"1042 1.667 OFFCURVE",
"1042 5 CURVE SMOOTH",
"1042 74 LINE SMOOTH",
"1042 76.667 OFFCURVE",
"1040.333 78 OFFCURVE",
"1037 78 CURVE SMOOTH",
"927 78 LINE",
"927 485 LINE",
"796 485 LINE SMOOTH",
"626.667 485 OFFCURVE",
"522 385 OFFCURVE",
"522 229 CURVE SMOOTH",
"522 173 OFFCURVE",
"543.333 112.667 OFFCURVE",
"574 78 CURVE",
"249 78 LINE SMOOTH",
"193 78 OFFCURVE",
"155 127.667 OFFCURVE",
"155 201 CURVE SMOOTH",
"155 248.333 OFFCURVE",
"160 296 OFFCURVE",
"170 344 CURVE",
"90 344 LINE",
"75.333 304 OFFCURVE",
"65 238 OFFCURVE",
"65 194 CURVE SMOOTH",
"65 74 OFFCURVE",
"137.333 0 OFFCURVE",
"252 0 CURVE SMOOTH"
);
},
{
closed = 1;
nodes = (
"656.667 78 OFFCURVE",
"611 128.667 OFFCURVE",
"611 230 CURVE SMOOTH",
"611 342 OFFCURVE",
"680.333 407 OFFCURVE",
"799 407 CURVE SMOOTH",
"842 407 LINE",
"842 78 LINE",
"748 78 LINE SMOOTH"
);
}
);
userData = {
assembly = "NPUSHB[ ]\011/* 32 values pushed */
17 11 5 24 0 29 29 24 11 3 36 32 37 14 14 8 27 27 2 70 89 27 15 29 7 20 8 20 70 89 8 18 
SVTCA[0]\011/* SetFreedomAndProjectionVectorToAxis */
MIAP[1]\011/* MoveIndirectAbsPt */
CALL[ ]\011/* CallFunction */
SRP1[ ]\011/* SetRefPoint1 */
SVTCA[0]\011/* SetFreedomAndProjectionVectorToAxis */
SHP[1]\011/* ShiftPointByLastPoint */
SHP[1]\011/* ShiftPointByLastPoint */
RTG[ ]\011/* RoundToGrid */
MIAP[1]\011/* MoveIndirectAbsPt */
CALL[ ]\011/* CallFunction */
SRP1[ ]\011/* SetRefPoint1 */
SRP2[ ]\011/* SetRefPoint2 */
SVTCA[0]\011/* SetFreedomAndProjectionVectorToAxis */
IP[ ]\011/* InterpolatePts */
RTG[ ]\011/* RoundToGrid */
MDAP[1]\011/* MoveDirectAbsPt */
SRP1[ ]\011/* SetRefPoint1 */
SVTCA[1]\011/* SetFreedomAndProjectionVectorToAxis */
SHP[1]\011/* ShiftPointByLastPoint */
SRP2[ ]\011/* SetRefPoint2 */
SLOOP[ ]\011/* SetLoopVariable */
IP[ ]\011/* InterpolatePts */
SRP1[ ]\011/* SetRefPoint1 */
SHP[1]\011/* ShiftPointByLastPoint */
SRP1[ ]\011/* SetRefPoint1 */
SHP[1]\011/* ShiftPointByLastPoint */
SRP1[ ]\011/* SetRefPoint1 */
SHP[1]\011/* ShiftPointByLastPoint */
IUP[1]\011/* InterpolateUntPts */
IUP[0]\011/* InterpolateUntPts */";
};
width = 1032;
}
);
note = uni06A1.fina;
},
{
glyphname = "qafDotless-ar";
lastChange = "2019-08-29 01:59:26 +0000";
layers = (
{
anchors = (
{
name = bottom;
position = "{439, -312}";
},
{
name = top;
position = "{586, 566}";
}
);
layerId = "307C4A58-79B8-4138-817C-FBEE21722E1A";
paths = (
{
closed = 1;
nodes = (
"594 -240 LINE SMOOTH",
"790 -240 OFFCURVE",
"877 -154 OFFCURVE",
"877 26 CURVE SMOOTH",
"877 495 LINE",
"700 495 LINE SMOOTH",
"527 495 OFFCURVE",
"407 412 OFFCURVE",
"407 248 CURVE SMOOTH",
"407 100 OFFCURVE",
"505 0 OFFCURVE",
"651 0 CURVE SMOOTH",
"728 0 LINE",
"728 -5 LINE SMOOTH",
"728 -85 OFFCURVE",
"673.333 -120 OFFCURVE",
"544 -120 CURVE SMOOTH",
"375 -120 LINE SMOOTH",
"269.667 -120 OFFCURVE",
"214 -61 OFFCURVE",
"214 39 CURVE SMOOTH",
"214 107 OFFCURVE",
"226.667 190.333 OFFCURVE",
"248 261 CURVE",
"116 261 LINE",
"84 198.333 OFFCURVE",
"65 116 OFFCURVE",
"65 40 CURVE SMOOTH",
"65 -119 OFFCURVE",
"174 -240 OFFCURVE",
"330 -240 CURVE SMOOTH"
);
},
{
closed = 1;
nodes = (
"700 120 LINE SMOOTH",
"612 120 OFFCURVE",
"560 160.667 OFFCURVE",
"560 242 CURVE SMOOTH",
"560 330.667 OFFCURVE",
"607.333 375 OFFCURVE",
"702 375 CURVE SMOOTH",
"728 375 LINE",
"728 120 LINE"
);
}
);
userData = {
assembly = "NPUSHB[ ]\011/* 36 values pushed */
11 4 39 25 35 18 18 31 31 25 4 3 43 44 7 7 20 29 29 37 70 89 29 15 20 42 70 89 20 18 0 14 70 89 0 27 
SVTCA[0]\011/* SetFreedomAndProjectionVectorToAxis */
MIAP[1]\011/* MoveIndirectAbsPt */
CALL[ ]\011/* CallFunction */
SVTCA[0]\011/* SetFreedomAndProjectionVectorToAxis */
RTG[ ]\011/* RoundToGrid */
MIAP[1]\011/* MoveIndirectAbsPt */
CALL[ ]\011/* CallFunction */
SVTCA[0]\011/* SetFreedomAndProjectionVectorToAxis */
RTG[ ]\011/* RoundToGrid */
MIAP[1]\011/* MoveIndirectAbsPt */
CALL[ ]\011/* CallFunction */
SRP1[ ]\011/* SetRefPoint1 */
SRP2[ ]\011/* SetRefPoint2 */
SVTCA[0]\011/* SetFreedomAndProjectionVectorToAxis */
IP[ ]\011/* InterpolatePts */
RTG[ ]\011/* RoundToGrid */
MDAP[1]\011/* MoveDirectAbsPt */
SRP1[ ]\011/* SetRefPoint1 */
SRP2[ ]\011/* SetRefPoint2 */
SVTCA[1]\011/* SetFreedomAndProjectionVectorToAxis */
SLOOP[ ]\011/* SetLoopVariable */
IP[ ]\011/* InterpolatePts */
SRP1[ ]\011/* SetRefPoint1 */
SHP[1]\011/* ShiftPointByLastPoint */
SRP1[ ]\011/* SetRefPoint1 */
SHP[1]\011/* ShiftPointByLastPoint */
SRP1[ ]\011/* SetRefPoint1 */
SHP[1]\011/* ShiftPointByLastPoint */
SRP1[ ]\011/* SetRefPoint1 */
SHP[1]\011/* ShiftPointByLastPoint */
IUP[1]\011/* InterpolateUntPts */
IUP[0]\011/* InterpolateUntPts */";
};
width = 962;
},
{
anchors = (
{
name = bottom;
position = "{439, -312}";
},
{
name = top;
position = "{586, 566}";
}
);
layerId = "15908E2C-AB74-4DC1-B0E7-8741EE8F4DA5";
paths = (
{
closed = 1;
nodes = (
"538 -240 LINE SMOOTH",
"706.667 -240 OFFCURVE",
"791 -162 OFFCURVE",
"791 -6 CURVE SMOOTH",
"791 485 LINE",
"660 485 LINE SMOOTH",
"494.667 485 OFFCURVE",
"386 386.667 OFFCURVE",
"386 228 CURVE SMOOTH",
"386 80 OFFCURVE",
"466 0 OFFCURVE",
"614 0 CURVE SMOOTH",
"706 0 LINE",
"706 -7 LINE SMOOTH",
"706 -112.333 OFFCURVE",
"652.667 -162 OFFCURVE",
"522 -162 CURVE SMOOTH",
"320 -162 LINE SMOOTH",
"214.667 -162 OFFCURVE",
"155 -101 OFFCURVE",
"155 7 CURVE SMOOTH",
"155 96.333 OFFCURVE",
"166.333 173 OFFCURVE",
"189 237 CURVE",
"106 237 LINE",
"78.667 164.333 OFFCURVE",
"65 85.667 OFFCURVE",
"65 1 CURVE SMOOTH",
"65 -147 OFFCURVE",
"155.333 -240 OFFCURVE",
"302 -240 CURVE SMOOTH"
);
},
{
closed = 1;
nodes = (
"612 78 LINE SMOOTH",
"520 78 OFFCURVE",
"475 125 OFFCURVE",
"475 229 CURVE SMOOTH",
"475 341 OFFCURVE",
"544.333 407 OFFCURVE",
"663 407 CURVE SMOOTH",
"706 407 LINE",
"706 78 LINE"
);
}
);
userData = {
assembly = "NPUSHB[ ]\011/* 36 values pushed */
16 28 28 25 33 20 8 3 3 20 25 3 38 37 5 5 17 23 23 30 70 89 23 15 17 36 70 89 17 18 0 11 70 89 0 27 
SVTCA[0]\011/* SetFreedomAndProjectionVectorToAxis */
MIAP[1]\011/* MoveIndirectAbsPt */
CALL[ ]\011/* CallFunction */
SVTCA[0]\011/* SetFreedomAndProjectionVectorToAxis */
RTG[ ]\011/* RoundToGrid */
MIAP[1]\011/* MoveIndirectAbsPt */
CALL[ ]\011/* CallFunction */
SVTCA[0]\011/* SetFreedomAndProjectionVectorToAxis */
RTG[ ]\011/* RoundToGrid */
MIAP[1]\011/* MoveIndirectAbsPt */
CALL[ ]\011/* CallFunction */
SRP1[ ]\011/* SetRefPoint1 */
SRP2[ ]\011/* SetRefPoint2 */
SVTCA[0]\011/* SetFreedomAndProjectionVectorToAxis */
IP[ ]\011/* InterpolatePts */
RTG[ ]\011/* RoundToGrid */
MDAP[1]\011/* MoveDirectAbsPt */
SRP1[ ]\011/* SetRefPoint1 */
SRP2[ ]\011/* SetRefPoint2 */
SVTCA[1]\011/* SetFreedomAndProjectionVectorToAxis */
SLOOP[ ]\011/* SetLoopVariable */
IP[ ]\011/* InterpolatePts */
SRP1[ ]\011/* SetRefPoint1 */
SHP[1]\011/* ShiftPointByLastPoint */
SRP1[ ]\011/* SetRefPoint1 */
SHP[1]\011/* ShiftPointByLastPoint */
SRP1[ ]\011/* SetRefPoint1 */
SHP[1]\011/* ShiftPointByLastPoint */
SRP1[ ]\011/* SetRefPoint1 */
SHP[1]\011/* ShiftPointByLastPoint */
IUP[1]\011/* InterpolateUntPts */
IUP[0]\011/* InterpolateUntPts */";
};
width = 876;
}
);
note = uni066F;
unicode = 066F;
},
{
glyphname = "qafDotless-ar.medi";
lastChange = "2019-08-29 01:59:26 +0000";
layers = (
{
anchors = (
{
name = bottom;
position = "{293, -78}";
},
{
name = top;
position = "{293, 566}";
}
);
layerId = "307C4A58-79B8-4138-817C-FBEE21722E1A";
paths = (
{
closed = 1;
nodes = (
"560 120 LINE",
"560 495 LINE",
"382 495 LINE SMOOTH",
"198 495 OFFCURVE",
"90 401.333 OFFCURVE",
"90 252 CURVE SMOOTH",
"90 202 OFFCURVE",
"106 158 OFFCURVE",
"138 120 CURVE",
"-5 120 LINE SMOOTH",
"-8.333 120 OFFCURVE",
"-10 118.667 OFFCURVE",
"-10 116 CURVE SMOOTH",
"-10 5 LINE SMOOTH",
"-10 1.667 OFFCURVE",
"-8.333 0 OFFCURVE",
"-5 0 CURVE SMOOTH",
"685 0 LINE SMOOTH",
"688.333 0 OFFCURVE",
"690 1.667 OFFCURVE",
"690 5 CURVE SMOOTH",
"690 116 LINE SMOOTH",
"690 118.667 OFFCURVE",
"688.333 120 OFFCURVE",
"685 120 CURVE SMOOTH"
);
},
{
closed = 1;
nodes = (
"383 120 LINE SMOOTH",
"292.333 120 OFFCURVE",
"243 165.333 OFFCURVE",
"243 244 CURVE SMOOTH",
"243 329.333 OFFCURVE",
"294.333 375 OFFCURVE",
"385 375 CURVE SMOOTH",
"411 375 LINE",
"411 120 LINE"
);
}
);
userData = {
assembly = "NPUSHB[ ]\011/* 26 values pushed */
25 14 20 19 14 19 29 2 30 9 29 17 22 70 89 17 15 28 19 11 6 11 70 89 6 18 
SVTCA[0]\011/* SetFreedomAndProjectionVectorToAxis */
MIAP[1]\011/* MoveIndirectAbsPt */
CALL[ ]\011/* CallFunction */
SRP1[ ]\011/* SetRefPoint1 */
SVTCA[0]\011/* SetFreedomAndProjectionVectorToAxis */
SHP[1]\011/* ShiftPointByLastPoint */
SHP[1]\011/* ShiftPointByLastPoint */
RTG[ ]\011/* RoundToGrid */
MIAP[1]\011/* MoveIndirectAbsPt */
CALL[ ]\011/* CallFunction */
SRP1[ ]\011/* SetRefPoint1 */
SVTCA[1]\011/* SetFreedomAndProjectionVectorToAxis */
SHP[1]\011/* ShiftPointByLastPoint */
SRP1[ ]\011/* SetRefPoint1 */
SHP[1]\011/* ShiftPointByLastPoint */
SRP2[ ]\011/* SetRefPoint2 */
IP[ ]\011/* InterpolatePts */
IP[ ]\011/* InterpolatePts */
SRP1[ ]\011/* SetRefPoint1 */
SHP[1]\011/* ShiftPointByLastPoint */
SRP1[ ]\011/* SetRefPoint1 */
SHP[1]\011/* ShiftPointByLastPoint */
IUP[1]\011/* InterpolateUntPts */
IUP[0]\011/* InterpolateUntPts */";
};
width = 680;
},
{
anchors = (
{
name = bottom;
position = "{293, -78}";
},
{
name = top;
position = "{293, 566}";
}
);
layerId = "15908E2C-AB74-4DC1-B0E7-8741EE8F4DA5";
paths = (
{
closed = 1;
nodes = (
"500 78 LINE",
"500 485 LINE",
"369 485 LINE SMOOTH",
"201 485 OFFCURVE",
"95 387.667 OFFCURVE",
"95 229 CURVE SMOOTH",
"95 175.667 OFFCURVE",
"113.667 116.667 OFFCURVE",
"147 78 CURVE",
"-5 78 LINE SMOOTH",
"-8.333 78 OFFCURVE",
"-10 76.667 OFFCURVE",
"-10 74 CURVE SMOOTH",
"-10 5 LINE SMOOTH",
"-10 1.667 OFFCURVE",
"-8.333 0 OFFCURVE",
"-5 0 CURVE SMOOTH",
"606 0 LINE SMOOTH",
"609.333 0 OFFCURVE",
"611 1.333 OFFCURVE",
"611 4 CURVE SMOOTH",
"611 73 LINE SMOOTH",
"611 75 OFFCURVE",
"611 78 OFFCURVE",
"606 78 CURVE SMOOTH"
);
},
{
closed = 1;
nodes = (
"321 78 LINE SMOOTH",
"229.667 78 OFFCURVE",
"184 128.333 OFFCURVE",
"184 229 CURVE SMOOTH",
"184 341 OFFCURVE",
"253.333 407 OFFCURVE",
"372 407 CURVE SMOOTH",
"415 407 LINE",
"415 78 LINE"
);
}
);
userData = {
assembly = "NPUSHB[ ]\011/* 26 values pushed */
0 22 5 17 22 17 30 26 31 11 30 20 2 70 89 20 15 22 7 13 8 13 70 89 8 18 
SVTCA[0]\011/* SetFreedomAndProjectionVectorToAxis */
MIAP[1]\011/* MoveIndirectAbsPt */
CALL[ ]\011/* CallFunction */
SRP1[ ]\011/* SetRefPoint1 */
SVTCA[0]\011/* SetFreedomAndProjectionVectorToAxis */
SHP[1]\011/* ShiftPointByLastPoint */
SHP[1]\011/* ShiftPointByLastPoint */
RTG[ ]\011/* RoundToGrid */
MIAP[1]\011/* MoveIndirectAbsPt */
CALL[ ]\011/* CallFunction */
SRP1[ ]\011/* SetRefPoint1 */
SVTCA[1]\011/* SetFreedomAndProjectionVectorToAxis */
SHP[1]\011/* ShiftPointByLastPoint */
SRP1[ ]\011/* SetRefPoint1 */
SHP[1]\011/* ShiftPointByLastPoint */
SRP2[ ]\011/* SetRefPoint2 */
IP[ ]\011/* InterpolatePts */
IP[ ]\011/* InterpolatePts */
SRP1[ ]\011/* SetRefPoint1 */
SHP[1]\011/* ShiftPointByLastPoint */
SRP1[ ]\011/* SetRefPoint1 */
SHP[1]\011/* ShiftPointByLastPoint */
IUP[1]\011/* InterpolateUntPts */
IUP[0]\011/* InterpolateUntPts */";
};
width = 601;
}
);
note = uni066F.medi;
},
{
glyphname = "qafDotless-ar.init";
lastChange = "2019-08-29 01:59:26 +0000";
layers = (
{
anchors = (
{
name = bottom;
position = "{293, -78}";
},
{
name = top;
position = "{293, 566}";
}
);
layerId = "307C4A58-79B8-4138-817C-FBEE21722E1A";
paths = (
{
closed = 1;
nodes = (
"560 0 LINE",
"560 495 LINE",
"382 495 LINE SMOOTH",
"198 495 OFFCURVE",
"90 401.333 OFFCURVE",
"90 252 CURVE SMOOTH",
"90 202 OFFCURVE",
"106 158 OFFCURVE",
"138 120 CURVE",
"-5 120 LINE SMOOTH",
"-8.333 120 OFFCURVE",
"-10 118.667 OFFCURVE",
"-10 116 CURVE SMOOTH",
"-10 5 LINE SMOOTH",
"-10 1.667 OFFCURVE",
"-8.333 0 OFFCURVE",
"-5 0 CURVE SMOOTH"
);
},
{
closed = 1;
nodes = (
"292.333 120 OFFCURVE",
"243 165.333 OFFCURVE",
"243 244 CURVE SMOOTH",
"243 329.333 OFFCURVE",
"294.333 375 OFFCURVE",
"385 375 CURVE SMOOTH",
"411 375 LINE",
"411 120 LINE",
"383 120 LINE SMOOTH"
);
}
);
userData = {
assembly = "NPUSHB[ ]\011/* 23 values pushed */
0 16 5 11 16 11 24 20 23 8 22 17 22 70 89 17 18 14 2 70 89 14 15 
SVTCA[0]\011/* SetFreedomAndProjectionVectorToAxis */
MIAP[1]\011/* MoveIndirectAbsPt */
CALL[ ]\011/* CallFunction */
SVTCA[0]\011/* SetFreedomAndProjectionVectorToAxis */
RTG[ ]\011/* RoundToGrid */
MIAP[1]\011/* MoveIndirectAbsPt */
CALL[ ]\011/* CallFunction */
SRP1[ ]\011/* SetRefPoint1 */
SVTCA[0]\011/* SetFreedomAndProjectionVectorToAxis */
SHP[1]\011/* ShiftPointByLastPoint */
SRP1[ ]\011/* SetRefPoint1 */
SVTCA[1]\011/* SetFreedomAndProjectionVectorToAxis */
SHP[1]\011/* ShiftPointByLastPoint */
SRP2[ ]\011/* SetRefPoint2 */
IP[ ]\011/* InterpolatePts */
IP[ ]\011/* InterpolatePts */
SRP1[ ]\011/* SetRefPoint1 */
SHP[1]\011/* ShiftPointByLastPoint */
SRP1[ ]\011/* SetRefPoint1 */
SHP[1]\011/* ShiftPointByLastPoint */
IUP[1]\011/* InterpolateUntPts */
IUP[0]\011/* InterpolateUntPts */";
};
width = 645;
},
{
anchors = (
{
name = bottom;
position = "{293, -78}";
},
{
name = top;
position = "{293, 566}";
}
);
layerId = "15908E2C-AB74-4DC1-B0E7-8741EE8F4DA5";
paths = (
{
closed = 1;
nodes = (
"500 0 LINE",
"500 485 LINE",
"369 485 LINE SMOOTH",
"199.667 485 OFFCURVE",
"95 385 OFFCURVE",
"95 229 CURVE SMOOTH",
"95 175.667 OFFCURVE",
"113.667 116.667 OFFCURVE",
"147 78 CURVE",
"-5 78 LINE SMOOTH",
"-8.333 78 OFFCURVE",
"-10 76.667 OFFCURVE",
"-10 74 CURVE SMOOTH",
"-10 5 LINE SMOOTH",
"-10 1.667 OFFCURVE",
"-8.333 0 OFFCURVE",
"-5 0 CURVE SMOOTH"
);
},
{
closed = 1;
nodes = (
"229.667 78 OFFCURVE",
"184 128.667 OFFCURVE",
"184 230 CURVE SMOOTH",
"184 342 OFFCURVE",
"253.333 407 OFFCURVE",
"372 407 CURVE SMOOTH",
"415 407 LINE",
"415 78 LINE",
"321 78 LINE SMOOTH"
);
}
);
userData = {
assembly = "NPUSHB[ ]\011/* 23 values pushed */
0 22 5 17 22 17 24 11 23 20 2 70 89 20 15 7 13 8 13 70 89 8 18 
SVTCA[0]\011/* SetFreedomAndProjectionVectorToAxis */
MIAP[1]\011/* MoveIndirectAbsPt */
CALL[ ]\011/* CallFunction */
SRP1[ ]\011/* SetRefPoint1 */
SVTCA[0]\011/* SetFreedomAndProjectionVectorToAxis */
SHP[1]\011/* ShiftPointByLastPoint */
RTG[ ]\011/* RoundToGrid */
MIAP[1]\011/* MoveIndirectAbsPt */
CALL[ ]\011/* CallFunction */
SRP1[ ]\011/* SetRefPoint1 */
SVTCA[1]\011/* SetFreedomAndProjectionVectorToAxis */
SHP[1]\011/* ShiftPointByLastPoint */
SRP2[ ]\011/* SetRefPoint2 */
IP[ ]\011/* InterpolatePts */
IP[ ]\011/* InterpolatePts */
SRP1[ ]\011/* SetRefPoint1 */
SHP[1]\011/* ShiftPointByLastPoint */
SRP1[ ]\011/* SetRefPoint1 */
SHP[1]\011/* ShiftPointByLastPoint */
IUP[1]\011/* InterpolateUntPts */
IUP[0]\011/* InterpolateUntPts */";
};
width = 585;
}
);
note = uni066F.init;
},
{
glyphname = "qafDotless-ar.fina";
lastChange = "2019-08-29 01:59:26 +0000";
layers = (
{
anchors = (
{
name = bottom;
position = "{439, -312}";
},
{
name = top;
position = "{586, 566}";
}
);
layerId = "307C4A58-79B8-4138-817C-FBEE21722E1A";
paths = (
{
closed = 1;
nodes = (
"877 120 LINE",
"877 495 LINE",
"700 495 LINE SMOOTH",
"576 495 OFFCURVE",
"486.333 453.667 OFFCURVE",
"441 379 CURVE SMOOTH",
"418.333 341.667 OFFCURVE",
"407 298 OFFCURVE",
"407 248 CURVE SMOOTH",
"407 148 OFFCURVE",
"450.5 71.167 OFFCURVE",
"524.5 30.5 CURVE SMOOTH",
"561.5 10.167 OFFCURVE",
"603.667 0 OFFCURVE",
"651 0 CURVE SMOOTH",
"728 0 LINE",
"728 -5 LINE SMOOTH",
"728 -85 OFFCURVE",
"673.333 -120 OFFCURVE",
"544 -120 CURVE SMOOTH",
"375 -120 LINE SMOOTH",
"269.667 -120 OFFCURVE",
"214 -61 OFFCURVE",
"214 39 CURVE SMOOTH",
"214 107 OFFCURVE",
"226.667 190.333 OFFCURVE",
"248 261 CURVE",
"116 261 LINE",
"84 198.333 OFFCURVE",
"65 116 OFFCURVE",
"65 40 CURVE SMOOTH",
"65 -65.333 OFFCURVE",
"112.667 -156 OFFCURVE",
"194 -204 CURVE SMOOTH",
"234.667 -228 OFFCURVE",
"280 -240 OFFCURVE",
"330 -240 CURVE SMOOTH",
"594 -240 LINE SMOOTH",
"778 -240 OFFCURVE",
"876 -150 OFFCURVE",
"876 -4 CURVE SMOOTH",
"876 0 LINE",
"1002 0 LINE SMOOTH",
"1005.333 0 OFFCURVE",
"1007 1.667 OFFCURVE",
"1007 5 CURVE SMOOTH",
"1007 116 LINE SMOOTH",
"1007 118.667 OFFCURVE",
"1005.333 120 OFFCURVE",
"1002 120 CURVE SMOOTH"
);
},
{
closed = 1;
nodes = (
"612 120 OFFCURVE",
"560 160.667 OFFCURVE",
"560 242 CURVE SMOOTH",
"560 330.667 OFFCURVE",
"607.333 375 OFFCURVE",
"702 375 CURVE SMOOTH",
"728 375 LINE",
"728 120 LINE",
"700 120 LINE SMOOTH"
);
}
);
userData = {
assembly = "NPUSHB[ ]\011/* 44 values pushed */
21 14 46 35 28 42 42 6 41 41 35 14 3 50 2 51 17 17 30 39 39 44 70 89 39 15 30 49 70 89 30 18 10 24 70 89 10 27 6 41 70 89 6 18 
SVTCA[0]\011/* SetFreedomAndProjectionVectorToAxis */
MIAP[1]\011/* MoveIndirectAbsPt */
CALL[ ]\011/* CallFunction */
SVTCA[0]\011/* SetFreedomAndProjectionVectorToAxis */
RTG[ ]\011/* RoundToGrid */
MIAP[1]\011/* MoveIndirectAbsPt */
CALL[ ]\011/* CallFunction */
SVTCA[0]\011/* SetFreedomAndProjectionVectorToAxis */
RTG[ ]\011/* RoundToGrid */
MIAP[1]\011/* MoveIndirectAbsPt */
CALL[ ]\011/* CallFunction */
SVTCA[0]\011/* SetFreedomAndProjectionVectorToAxis */
RTG[ ]\011/* RoundToGrid */
MIAP[1]\011/* MoveIndirectAbsPt */
CALL[ ]\011/* CallFunction */
SRP1[ ]\011/* SetRefPoint1 */
SRP2[ ]\011/* SetRefPoint2 */
SVTCA[0]\011/* SetFreedomAndProjectionVectorToAxis */
IP[ ]\011/* InterpolatePts */
RTG[ ]\011/* RoundToGrid */
MDAP[1]\011/* MoveDirectAbsPt */
SRP1[ ]\011/* SetRefPoint1 */
SVTCA[1]\011/* SetFreedomAndProjectionVectorToAxis */
SHP[1]\011/* ShiftPointByLastPoint */
SRP2[ ]\011/* SetRefPoint2 */
SLOOP[ ]\011/* SetLoopVariable */
IP[ ]\011/* InterpolatePts */
SRP1[ ]\011/* SetRefPoint1 */
SHP[1]\011/* ShiftPointByLastPoint */
SHP[1]\011/* ShiftPointByLastPoint */
SRP1[ ]\011/* SetRefPoint1 */
SHP[1]\011/* ShiftPointByLastPoint */
SRP1[ ]\011/* SetRefPoint1 */
SHP[1]\011/* ShiftPointByLastPoint */
SRP1[ ]\011/* SetRefPoint1 */
SHP[1]\011/* ShiftPointByLastPoint */
IUP[1]\011/* InterpolateUntPts */
IUP[0]\011/* InterpolateUntPts */";
};
width = 997;
},
{
anchors = (
{
name = bottom;
position = "{439, -312}";
},
{
name = top;
position = "{586, 566}";
}
);
layerId = "15908E2C-AB74-4DC1-B0E7-8741EE8F4DA5";
paths = (
{
closed = 1;
nodes = (
"791 78 LINE",
"791 485 LINE",
"660 485 LINE SMOOTH",
"545 485 OFFCURVE",
"458 438 OFFCURVE",
"415 356 CURVE SMOOTH",
"396 320 OFFCURVE",
"386 277 OFFCURVE",
"386 228 CURVE SMOOTH",
"386 137 OFFCURVE",
"417 71 OFFCURVE",
"475 34 CURVE SMOOTH",
"511 12 OFFCURVE",
"557 0 OFFCURVE",
"614 0 CURVE SMOOTH",
"706 0 LINE",
"706 -7 LINE SMOOTH",
"706 -112.333 OFFCURVE",
"652.667 -162 OFFCURVE",
"522 -162 CURVE SMOOTH",
"320 -162 LINE SMOOTH",
"214.667 -162 OFFCURVE",
"155 -101 OFFCURVE",
"155 7 CURVE SMOOTH",
"155 96.333 OFFCURVE",
"166.333 173 OFFCURVE",
"189 237 CURVE",
"106 237 LINE",
"78.667 164.333 OFFCURVE",
"65 85.667 OFFCURVE",
"65 1 CURVE SMOOTH",
"65 -93 OFFCURVE",
"102 -165 OFFCURVE",
"166 -205 CURVE SMOOTH",
"203 -228 OFFCURVE",
"249 -240 OFFCURVE",
"302 -240 CURVE SMOOTH",
"538 -240 LINE SMOOTH",
"706.667 -240 OFFCURVE",
"791 -162 OFFCURVE",
"791 -6 CURVE SMOOTH",
"791 0 LINE",
"901 0 LINE SMOOTH",
"904.333 0 OFFCURVE",
"906 1.667 OFFCURVE",
"906 5 CURVE SMOOTH",
"906 74 LINE SMOOTH",
"906 76.667 OFFCURVE",
"904.333 78 OFFCURVE",
"901 78 CURVE SMOOTH"
);
},
{
closed = 1;
nodes = (
"520 78 OFFCURVE",
"475 125 OFFCURVE",
"475 229 CURVE SMOOTH",
"475 341 OFFCURVE",
"544.333 407 OFFCURVE",
"663 407 CURVE SMOOTH",
"706 407 LINE",
"706 78 LINE",
"612 78 LINE SMOOTH"
);
}
);
userData = {
assembly = "NPUSHB[ ]\011/* 44 values pushed */
35 0 0 15 44 5 39 27 22 22 39 44 3 45 11 46 24 24 36 42 42 2 70 89 42 15 36 8 70 89 36 18 19 30 70 89 19 27 15 44 70 89 15 18 
SVTCA[0]\011/* SetFreedomAndProjectionVectorToAxis */
MIAP[1]\011/* MoveIndirectAbsPt */
CALL[ ]\011/* CallFunction */
SVTCA[0]\011/* SetFreedomAndProjectionVectorToAxis */
RTG[ ]\011/* RoundToGrid */
MIAP[1]\011/* MoveIndirectAbsPt */
CALL[ ]\011/* CallFunction */
SVTCA[0]\011/* SetFreedomAndProjectionVectorToAxis */
RTG[ ]\011/* RoundToGrid */
MIAP[1]\011/* MoveIndirectAbsPt */
CALL[ ]\011/* CallFunction */
SVTCA[0]\011/* SetFreedomAndProjectionVectorToAxis */
RTG[ ]\011/* RoundToGrid */
MIAP[1]\011/* MoveIndirectAbsPt */
CALL[ ]\011/* CallFunction */
SRP1[ ]\011/* SetRefPoint1 */
SRP2[ ]\011/* SetRefPoint2 */
SVTCA[0]\011/* SetFreedomAndProjectionVectorToAxis */
IP[ ]\011/* InterpolatePts */
RTG[ ]\011/* RoundToGrid */
MDAP[1]\011/* MoveDirectAbsPt */
SRP1[ ]\011/* SetRefPoint1 */
SVTCA[1]\011/* SetFreedomAndProjectionVectorToAxis */
SHP[1]\011/* ShiftPointByLastPoint */
SRP2[ ]\011/* SetRefPoint2 */
SLOOP[ ]\011/* SetLoopVariable */
IP[ ]\011/* InterpolatePts */
SRP1[ ]\011/* SetRefPoint1 */
SHP[1]\011/* ShiftPointByLastPoint */
SRP1[ ]\011/* SetRefPoint1 */
SHP[1]\011/* ShiftPointByLastPoint */
SRP1[ ]\011/* SetRefPoint1 */
SHP[1]\011/* ShiftPointByLastPoint */
SHP[1]\011/* ShiftPointByLastPoint */
SRP1[ ]\011/* SetRefPoint1 */
SHP[1]\011/* ShiftPointByLastPoint */
IUP[1]\011/* InterpolateUntPts */
IUP[0]\011/* InterpolateUntPts */";
};
width = 896;
}
);
note = uni066F.fina;
},
{
glyphname = "kaf-ar";
lastChange = "2019-08-29 01:59:26 +0000";
layers = (
{
anchors = (
{
name = bottom;
position = "{391, -78}";
},
{
name = top;
position = "{381, 566}";
}
);
layerId = "307C4A58-79B8-4138-817C-FBEE21722E1A";
paths = (
{
closed = 1;
nodes = (
"323 310 LINE",
"420.333 324 OFFCURVE",
"490.667 332.333 OFFCURVE",
"534 335 CURVE",
"534 393 LINE",
"512 392 OFFCURVE",
"465 385 OFFCURVE",
"435 380 CURVE",
"415 390 OFFCURVE",
"405 405 OFFCURVE",
"405 425 CURVE SMOOTH",
"405 453 OFFCURVE",
"423.667 473 OFFCURVE",
"453 473 CURVE SMOOTH",
"471 473 OFFCURVE",
"489 468.667 OFFCURVE",
"507 460 CURVE",
"527 511 LINE",
"504.333 523 OFFCURVE",
"477 529 OFFCURVE",
"445 529 CURVE SMOOTH",
"377 529 OFFCURVE",
"335 494 OFFCURVE",
"335 438 CURVE SMOOTH",
"335 407.333 OFFCURVE",
"353.333 383.333 OFFCURVE",
"380 370 CURVE",
"323 361 LINE"
);
},
{
closed = 1;
nodes = (
"782 0 LINE",
"782 760 LINE",
"633 760 LINE",
"633 120 LINE",
"308 120 LINE SMOOTH",
"252 120 OFFCURVE",
"214 161.667 OFFCURVE",
"214 223 CURVE SMOOTH",
"214 267 OFFCURVE",
"219 310.667 OFFCURVE",
"229 354 CURVE",
"97 354 LINE",
"78.333 314 OFFCURVE",
"65 251.667 OFFCURVE",
"65 201 CURVE SMOOTH",
"65 75.667 OFFCURVE",
"141.333 0 OFFCURVE",
"264 0 CURVE SMOOTH"
);
}
);
userData = {
assembly = "NPUSHB[ ]\011/* 42 values pushed */
33 27 15 4 37 40 40 20 9 4 0 27 6 41 42 1 21 23 20 0 17 16 17 2 9 3 17 12 64 7 31 7 31 24 38 0 24 36 70 89 24 18 
SVTCA[0]\011/* SetFreedomAndProjectionVectorToAxis */
MIAP[1]\011/* MoveIndirectAbsPt */
CALL[ ]\011/* CallFunction */
SVTCA[0]\011/* SetFreedomAndProjectionVectorToAxis */
RTG[ ]\011/* RoundToGrid */
MIAP[1]\011/* MoveIndirectAbsPt */
SRP2[ ]\011/* SetRefPoint2 */
IP[ ]\011/* InterpolatePts */
IP[ ]\011/* InterpolatePts */
MDAP[1]\011/* MoveDirectAbsPt */
MDAP[1]\011/* MoveDirectAbsPt */
SMD[ ]\011/* SetMinimumDistance */
MDRP[01101]\011/* MoveDirectRelPt */
MDRP[10100]\011/* MoveDirectRelPt */
SDS[ ]\011/* SetDeltaShiftInGState */
SDB[ ]\011/* SetDeltaBaseInGState */
DELTAP1[ ]\011/* DeltaExceptionP1 */
SHP[0]\011/* ShiftPointByLastPoint */
MDRP[01101]\011/* MoveDirectRelPt */
IP[ ]\011/* InterpolatePts */
IP[ ]\011/* InterpolatePts */
SRP1[ ]\011/* SetRefPoint1 */
SRP2[ ]\011/* SetRefPoint2 */
SVTCA[1]\011/* SetFreedomAndProjectionVectorToAxis */
SLOOP[ ]\011/* SetLoopVariable */
IP[ ]\011/* InterpolatePts */
SRP1[ ]\011/* SetRefPoint1 */
SHP[1]\011/* ShiftPointByLastPoint */
SRP1[ ]\011/* SetRefPoint1 */
SHP[1]\011/* ShiftPointByLastPoint */
SRP1[ ]\011/* SetRefPoint1 */
SHP[1]\011/* ShiftPointByLastPoint */
IUP[1]\011/* InterpolateUntPts */
IUP[0]\011/* InterpolateUntPts */";
};
width = 882;
},
{
anchors = (
{
name = bottom;
position = "{391, -78}";
},
{
name = top;
position = "{342, 537}";
}
);
layerId = "15908E2C-AB74-4DC1-B0E7-8741EE8F4DA5";
paths = (
{
closed = 1;
nodes = (
"286 311 LINE",
"308 315 OFFCURVE",
"425 332 OFFCURVE",
"479 335 CURVE",
"479 384 LINE",
"460.333 384 OFFCURVE",
"395 375 OFFCURVE",
"379 371 CURVE",
"361.667 379 OFFCURVE",
"349 395.333 OFFCURVE",
"349 418 CURVE SMOOTH",
"349 452.667 OFFCURVE",
"371.667 469 OFFCURVE",
"401 469 CURVE SMOOTH",
"420.333 469 OFFCURVE",
"437 465 OFFCURVE",
"451 457 CURVE",
"466 502 LINE",
"446.667 512 OFFCURVE",
"424.667 517 OFFCURVE",
"400 517 CURVE SMOOTH",
"338.667 517 OFFCURVE",
"298 483 OFFCURVE",
"298 427 CURVE SMOOTH",
"298 400.333 OFFCURVE",
"309.667 379.333 OFFCURVE",
"333 364 CURVE",
"286 357 LINE"
);
},
{
closed = 1;
nodes = (
"693 0 LINE",
"693 760 LINE",
"608 760 LINE",
"608 78 LINE",
"249 78 LINE SMOOTH",
"187.667 78 OFFCURVE",
"150 119.333 OFFCURVE",
"150 186 CURVE SMOOTH",
"150 224 OFFCURVE",
"155 266.667 OFFCURVE",
"165 314 CURVE",
"90 314 LINE",
"73.333 268.667 OFFCURVE",
"65 223.667 OFFCURVE",
"65 179 CURVE SMOOTH",
"65 64.333 OFFCURVE",
"130.667 0 OFFCURVE",
"252 0 CURVE SMOOTH"
);
}
);
userData = {
assembly = "NPUSHB[ ]\011/* 23 values pushed */
8 20 26 14 3 35 30 30 3 20 42 4 44 43 20 21 72 89 17 1 20 20 26 
PUSHW[ ]\011/* 1 value pushed */
-64 
NPUSHB[ ]\011/* 28 values pushed */
9 12 72 26 6 64 6 11 72 89 0 6 1 18 3 6 32 6 32 27 40 0 27 38 70 89 27 18 
SVTCA[0]\011/* SetFreedomAndProjectionVectorToAxis */
MIAP[1]\011/* MoveIndirectAbsPt */
CALL[ ]\011/* CallFunction */
SVTCA[0]\011/* SetFreedomAndProjectionVectorToAxis */
RTG[ ]\011/* RoundToGrid */
MIAP[1]\011/* MoveIndirectAbsPt */
SRP2[ ]\011/* SetRefPoint2 */
IP[ ]\011/* InterpolatePts */
IP[ ]\011/* InterpolatePts */
MDAP[1]\011/* MoveDirectAbsPt */
MDAP[1]\011/* MoveDirectAbsPt */
SDS[ ]\011/* SetDeltaShiftInGState */
SDB[ ]\011/* SetDeltaBaseInGState */
DELTAP1[ ]\011/* DeltaExceptionP1 */
CALL[ ]\011/* CallFunction */
SVTCA[0]\011/* SetFreedomAndProjectionVectorToAxis */
SMD[ ]\011/* SetMinimumDistance */
RTG[ ]\011/* RoundToGrid */
SRP0[ ]\011/* SetRefPoint0 */
MDRP[01100]\011/* MoveDirectRelPt */
CALL[ ]\011/* CallFunction */
IP[ ]\011/* InterpolatePts */
MDAP[1]\011/* MoveDirectAbsPt */
IP[ ]\011/* InterpolatePts */
IP[ ]\011/* InterpolatePts */
CALL[ ]\011/* CallFunction */
SRP1[ ]\011/* SetRefPoint1 */
SRP2[ ]\011/* SetRefPoint2 */
SVTCA[1]\011/* SetFreedomAndProjectionVectorToAxis */
SLOOP[ ]\011/* SetLoopVariable */
IP[ ]\011/* InterpolatePts */
SRP1[ ]\011/* SetRefPoint1 */
SHP[1]\011/* ShiftPointByLastPoint */
SRP1[ ]\011/* SetRefPoint1 */
SHP[1]\011/* ShiftPointByLastPoint */
SHP[1]\011/* ShiftPointByLastPoint */
SRP1[ ]\011/* SetRefPoint1 */
SHP[1]\011/* ShiftPointByLastPoint */
IUP[1]\011/* InterpolateUntPts */
IUP[0]\011/* InterpolateUntPts */";
};
width = 793;
}
);
note = uni0643;
unicode = 0643;
},
{
glyphname = "kaf-ar.fina";
lastChange = "2019-08-29 01:59:26 +0000";
layers = (
{
anchors = (
{
name = bottom;
position = "{391, -78}";
},
{
name = top;
position = "{381, 566}";
}
);
layerId = "307C4A58-79B8-4138-817C-FBEE21722E1A";
paths = (
{
closed = 1;
nodes = (
"912 0 LINE SMOOTH",
"915.333 0 OFFCURVE",
"917 1.667 OFFCURVE",
"917 5 CURVE SMOOTH",
"917 116 LINE SMOOTH",
"917 118.667 OFFCURVE",
"915.333 120 OFFCURVE",
"912 120 CURVE SMOOTH",
"782 120 LINE",
"782 760 LINE",
"633 760 LINE",
"633 120 LINE",
"308 120 LINE SMOOTH",
"252 120 OFFCURVE",
"214 161.667 OFFCURVE",
"214 223 CURVE SMOOTH",
"214 267 OFFCURVE",
"219 310.667 OFFCURVE",
"229 354 CURVE",
"97 354 LINE",
"78.333 314 OFFCURVE",
"65 251.667 OFFCURVE",
"65 201 CURVE SMOOTH",
"65 75.667 OFFCURVE",
"141.333 0 OFFCURVE",
"264 0 CURVE SMOOTH"
);
},
{
closed = 1;
nodes = (
"323 310 LINE",
"364 316 OFFCURVE",
"399 321 OFFCURVE",
"431 325 CURVE SMOOTH",
"474 330 OFFCURVE",
"509 333 OFFCURVE",
"534 335 CURVE",
"534 393 LINE",
"513.333 391.667 OFFCURVE",
"486.333 388.333 OFFCURVE",
"453 383 CURVE SMOOTH",
"435 380 LINE",
"415 390 OFFCURVE",
"405 405 OFFCURVE",
"405 425 CURVE SMOOTH",
"405 453 OFFCURVE",
"423.667 473 OFFCURVE",
"453 473 CURVE SMOOTH",
"471 473 OFFCURVE",
"489 468.667 OFFCURVE",
"507 460 CURVE",
"527 511 LINE",
"504.333 523 OFFCURVE",
"477 529 OFFCURVE",
"445 529 CURVE SMOOTH",
"377 529 OFFCURVE",
"335 494 OFFCURVE",
"335 438 CURVE SMOOTH",
"335 407.333 OFFCURVE",
"353.333 383.333 OFFCURVE",
"380 370 CURVE",
"323 361 LINE"
);
}
);
userData = {
assembly = "NPUSHB[ ]\011/* 45 values pushed */
9 3 38 27 13 16 16 43 32 27 46 3 6 47 19 48 24 44 46 43 0 40 16 40 2 9 3 40 35 64 30 7 30 7 0 14 0 16 12 0 12 70 89 0 18 
SVTCA[0]\011/* SetFreedomAndProjectionVectorToAxis */
MIAP[1]\011/* MoveIndirectAbsPt */
CALL[ ]\011/* CallFunction */
SRP1[ ]\011/* SetRefPoint1 */
SVTCA[0]\011/* SetFreedomAndProjectionVectorToAxis */
SHP[1]\011/* ShiftPointByLastPoint */
RTG[ ]\011/* RoundToGrid */
MIAP[1]\011/* MoveIndirectAbsPt */
SRP2[ ]\011/* SetRefPoint2 */
IP[ ]\011/* InterpolatePts */
IP[ ]\011/* InterpolatePts */
MDAP[1]\011/* MoveDirectAbsPt */
MDAP[1]\011/* MoveDirectAbsPt */
SMD[ ]\011/* SetMinimumDistance */
MDRP[01101]\011/* MoveDirectRelPt */
MDRP[10100]\011/* MoveDirectRelPt */
SDS[ ]\011/* SetDeltaShiftInGState */
SDB[ ]\011/* SetDeltaBaseInGState */
DELTAP1[ ]\011/* DeltaExceptionP1 */
SHP[0]\011/* ShiftPointByLastPoint */
MDRP[01101]\011/* MoveDirectRelPt */
IP[ ]\011/* InterpolatePts */
IP[ ]\011/* InterpolatePts */
SRP1[ ]\011/* SetRefPoint1 */
SVTCA[1]\011/* SetFreedomAndProjectionVectorToAxis */
SHP[1]\011/* ShiftPointByLastPoint */
SRP2[ ]\011/* SetRefPoint2 */
SLOOP[ ]\011/* SetLoopVariable */
IP[ ]\011/* InterpolatePts */
SRP1[ ]\011/* SetRefPoint1 */
SHP[1]\011/* ShiftPointByLastPoint */
SRP1[ ]\011/* SetRefPoint1 */
SHP[1]\011/* ShiftPointByLastPoint */
SRP1[ ]\011/* SetRefPoint1 */
SHP[1]\011/* ShiftPointByLastPoint */
IUP[1]\011/* InterpolateUntPts */
IUP[0]\011/* InterpolateUntPts */";
};
width = 907;
},
{
anchors = (
{
name = bottom;
position = "{391, -78}";
},
{
name = top;
position = "{342, 537}";
}
);
layerId = "15908E2C-AB74-4DC1-B0E7-8741EE8F4DA5";
paths = (
{
closed = 1;
nodes = (
"826 0 LINE SMOOTH",
"829.333 0 OFFCURVE",
"831 1.667 OFFCURVE",
"831 5 CURVE SMOOTH",
"831 74 LINE SMOOTH",
"831 76.667 OFFCURVE",
"829.333 78 OFFCURVE",
"826 78 CURVE SMOOTH",
"693 78 LINE",
"693 760 LINE",
"608 760 LINE",
"608 78 LINE",
"249 78 LINE SMOOTH",
"187.667 78 OFFCURVE",
"150 119.333 OFFCURVE",
"150 186 CURVE SMOOTH",
"150 224 OFFCURVE",
"155 266.667 OFFCURVE",
"165 314 CURVE",
"90 314 LINE",
"73.333 268.667 OFFCURVE",
"65 223.667 OFFCURVE",
"65 179 CURVE SMOOTH",
"65 64.333 OFFCURVE",
"130.667 0 OFFCURVE",
"252 0 CURVE SMOOTH"
);
},
{
closed = 1;
nodes = (
"286 311 LINE",
"292.667 312.333 OFFCURVE",
"324.667 317 OFFCURVE",
"382 325 CURVE SMOOTH",
"404.667 329 OFFCURVE",
"468.333 335 OFFCURVE",
"479 335 CURVE",
"479 384 LINE",
"464 384 OFFCURVE",
"416 378 OFFCURVE",
"396 374 CURVE SMOOTH",
"379 371 LINE",
"361.667 379 OFFCURVE",
"349 395.333 OFFCURVE",
"349 418 CURVE SMOOTH",
"349 452.667 OFFCURVE",
"371.667 469 OFFCURVE",
"401 469 CURVE SMOOTH",
"420.333 469 OFFCURVE",
"437 465 OFFCURVE",
"451 457 CURVE",
"466 502 LINE",
"446.667 512 OFFCURVE",
"424.667 517 OFFCURVE",
"400 517 CURVE SMOOTH",
"338.667 517 OFFCURVE",
"298 483 OFFCURVE",
"298 427 CURVE SMOOTH",
"298 400.333 OFFCURVE",
"309.667 379.333 OFFCURVE",
"333 364 CURVE",
"286 357 LINE"
);
}
);
userData = {
assembly = "NPUSHB[ ]\011/* 22 values pushed */
48 36 25 30 42 15 42 25 3 4 49 18 50 42 43 72 89 39 23 42 42 48 
PUSHW[ ]\011/* 1 value pushed */
-64 
NPUSHB[ ]\011/* 30 values pushed */
9 12 72 48 28 64 28 33 72 89 0 28 1 18 3 28 6 28 6 0 14 0 15 11 0 11 70 89 0 18 
SVTCA[0]\011/* SetFreedomAndProjectionVectorToAxis */
MIAP[1]\011/* MoveIndirectAbsPt */
CALL[ ]\011/* CallFunction */
SRP1[ ]\011/* SetRefPoint1 */
SVTCA[0]\011/* SetFreedomAndProjectionVectorToAxis */
SHP[1]\011/* ShiftPointByLastPoint */
RTG[ ]\011/* RoundToGrid */
MIAP[1]\011/* MoveIndirectAbsPt */
SRP2[ ]\011/* SetRefPoint2 */
IP[ ]\011/* InterpolatePts */
IP[ ]\011/* InterpolatePts */
MDAP[1]\011/* MoveDirectAbsPt */
MDAP[1]\011/* MoveDirectAbsPt */
SDS[ ]\011/* SetDeltaShiftInGState */
SDB[ ]\011/* SetDeltaBaseInGState */
DELTAP1[ ]\011/* DeltaExceptionP1 */
CALL[ ]\011/* CallFunction */
SVTCA[0]\011/* SetFreedomAndProjectionVectorToAxis */
SMD[ ]\011/* SetMinimumDistance */
RTG[ ]\011/* RoundToGrid */
SRP0[ ]\011/* SetRefPoint0 */
MDRP[01100]\011/* MoveDirectRelPt */
CALL[ ]\011/* CallFunction */
IP[ ]\011/* InterpolatePts */
MDAP[1]\011/* MoveDirectAbsPt */
IP[ ]\011/* InterpolatePts */
IP[ ]\011/* InterpolatePts */
CALL[ ]\011/* CallFunction */
SRP1[ ]\011/* SetRefPoint1 */
SVTCA[1]\011/* SetFreedomAndProjectionVectorToAxis */
SHP[1]\011/* ShiftPointByLastPoint */
SRP2[ ]\011/* SetRefPoint2 */
SLOOP[ ]\011/* SetLoopVariable */
IP[ ]\011/* InterpolatePts */
SRP1[ ]\011/* SetRefPoint1 */
SHP[1]\011/* ShiftPointByLastPoint */
SRP1[ ]\011/* SetRefPoint1 */
SHP[1]\011/* ShiftPointByLastPoint */
SHP[1]\011/* ShiftPointByLastPoint */
IUP[1]\011/* InterpolateUntPts */
IUP[0]\011/* InterpolateUntPts */";
};
width = 821;
}
);
note = uni0643.fina;
},
